<svg id="Capa_1" enable-background="new 0 0 512 512" height="512" viewBox="0 0 512 512" width="512" xmlns="http://www.w3.org/2000/svg" xmlns:xlink="http://www.w3.org/1999/xlink"><linearGradient id="lg1"><stop offset="0" stop-color="#addcff"/><stop offset=".5028" stop-color="#eaf6ff"/><stop offset="1" stop-color="#eaf6ff"/></linearGradient><linearGradient id="SVGID_1_" gradientUnits="userSpaceOnUse" x1="256" x2="256" xlink:href="#lg1" y1="107" y2="0"/><linearGradient id="SVGID_2_" gradientUnits="userSpaceOnUse" x1="256" x2="256" y1="497" y2="77"><stop offset="0" stop-color="#5558ff"/><stop offset="1" stop-color="#00c0ff"/></linearGradient><linearGradient id="SVGID_3_" gradientUnits="userSpaceOnUse" x1="256" x2="256" xlink:href="#lg1" y1="512" y2="482"/><linearGradient id="SVGID_4_" gradientUnits="userSpaceOnUse" x1="256" x2="256" xlink:href="#lg1" y1="452" y2="175.137"/><g><path d="m376 0c-5.31 0-243.032 0-240 0-8.291 0-15 6.709-15 15s6.709 15 15 15h14.714c-.3 16.084-.901 33.276-1.815 47l100.398 30 113.803-30c-.914-13.724-1.514-30.916-1.815-47h14.715c8.291 0 15-6.709 15-15s-6.709-15-15-15z" fill="url(#SVGID_1_)"/><path d="m405.099 251.6c-18.6-48.9-35.999-95.7-41.999-174.6h-214.2c-6 78.9-23.399 125.7-41.999 174.6-22.5 60.301-45.901 122.699-45.901 245.4h390c0-122.701-23.401-185.099-45.901-245.4z" fill="url(#SVGID_2_)"/><g id="Nuclear_plant_2_"><g><path d="m497 512h-482c-8.291 0-15-6.709-15-15s6.709-15 15-15h482c8.291 0 15 6.709 15 15s-6.709 15-15 15z" fill="url(#SVGID_3_)"/></g><path d="m346 317c0-40.459-60.117-114.932-78.545-136.787-5.684-6.768-17.227-6.768-22.91 0-18.428 21.855-78.545 96.328-78.545 136.787 0 44.493 32.523 81.292 75 88.484v31.516c0 8.291 6.709 15 15 15s15-6.709 15-15v-31.516c42.477-7.192 75-43.991 75-88.484z" fill="url(#SVGID_4_)"/></g></g></svg>