<svg id="Capa_1" enable-background="new 0 0 512 512" height="512" viewBox="0 0 512 512" width="512" xmlns="http://www.w3.org/2000/svg" xmlns:xlink="http://www.w3.org/1999/xlink"><linearGradient id="lg1"><stop offset="0" stop-color="#fd3a84"/><stop offset="1" stop-color="#ffa68d"/></linearGradient><linearGradient id="SVGID_1_" gradientUnits="userSpaceOnUse" x1="333.864" x2="333.864" xlink:href="#lg1" y1="90" y2="0"/><linearGradient id="SVGID_2_" gradientUnits="userSpaceOnUse" x1="256" x2="256" xlink:href="#lg1" y1="497" y2="75"/><linearGradient id="lg2"><stop offset="0" stop-color="#ffc8d1"/><stop offset="1" stop-color="#fff6f7"/></linearGradient><linearGradient id="SVGID_3_" gradientUnits="userSpaceOnUse" x1="256" x2="256" xlink:href="#lg2" y1="421" y2="144.137"/><linearGradient id="SVGID_4_" gradientUnits="userSpaceOnUse" x1="106" x2="106" xlink:href="#lg2" y1="211" y2="181"/><linearGradient id="SVGID_5_" gradientUnits="userSpaceOnUse" x1="406" x2="406" xlink:href="#lg2" y1="211" y2="181"/><linearGradient id="SVGID_6_" gradientUnits="userSpaceOnUse" x1="106" x2="106" xlink:href="#lg2" y1="391" y2="361"/><linearGradient id="SVGID_7_" gradientUnits="userSpaceOnUse" x1="406" x2="406" xlink:href="#lg2" y1="391" y2="361"/><linearGradient id="SVGID_8_" gradientUnits="userSpaceOnUse" x1="256" x2="256" xlink:href="#lg2" y1="90" y2="60"/><linearGradient id="SVGID_9_" gradientUnits="userSpaceOnUse" x1="256" x2="256" xlink:href="#lg2" y1="512" y2="482"/><g><g><path d="m391 15c0-8.291-6.709-15-15-15h-60c-5.684 0-10.869 3.208-13.418 8.291l-25.854 51.709 54.272 30 60-30z" fill="url(#SVGID_1_)"/><path d="m91 75h330v422h-330z" fill="url(#SVGID_2_)"/></g><g id="Barrel_2_"><path d="m346 286c0-40.459-60.117-114.932-78.545-136.787-5.684-6.768-17.227-6.768-22.91 0-18.428 21.855-78.545 96.328-78.545 136.787 0 44.493 32.523 81.292 75 88.484v31.516c0 8.291 6.709 15 15 15s15-6.709 15-15v-31.516c42.477-7.192 75-43.991 75-88.484z" fill="url(#SVGID_3_)"/><g><path d="m136 211h-60c-8.291 0-15-6.709-15-15s6.709-15 15-15h60c8.291 0 15 6.709 15 15s-6.709 15-15 15z" fill="url(#SVGID_4_)"/></g><g><path d="m436 211h-60c-8.291 0-15-6.709-15-15s6.709-15 15-15h60c8.291 0 15 6.709 15 15s-6.709 15-15 15z" fill="url(#SVGID_5_)"/></g><g><path d="m136 391h-60c-8.291 0-15-6.709-15-15s6.709-15 15-15h60c8.291 0 15 6.709 15 15s-6.709 15-15 15z" fill="url(#SVGID_6_)"/></g><g><path d="m436 391h-60c-8.291 0-15-6.709-15-15s6.709-15 15-15h60c8.291 0 15 6.709 15 15s-6.709 15-15 15z" fill="url(#SVGID_7_)"/></g></g><g><path d="m436 90h-360c-8.291 0-15-6.709-15-15s6.709-15 15-15h360c8.291 0 15 6.709 15 15s-6.709 15-15 15z" fill="url(#SVGID_8_)"/></g><g><path d="m436 512h-360c-8.291 0-15-6.709-15-15s6.709-15 15-15h360c8.291 0 15 6.709 15 15s-6.709 15-15 15z" fill="url(#SVGID_9_)"/></g></g></svg>