<svg id="Capa_1" enable-background="new 0 0 512.009 512.009" height="512" viewBox="0 0 512.009 512.009" width="512" xmlns="http://www.w3.org/2000/svg" xmlns:xlink="http://www.w3.org/1999/xlink"><linearGradient id="lg1"><stop offset="0" stop-color="#ffbef9"/><stop offset="1" stop-color="#fff1ff"/></linearGradient><linearGradient id="SVGID_1_" gradientUnits="userSpaceOnUse" x1="256.004" x2="256.004" xlink:href="#lg1" y1="215.455" y2="128.501"/><linearGradient id="SVGID_2_" gradientUnits="userSpaceOnUse" x1="256.005" x2="256.005" y1="362" y2="31"><stop offset="0" stop-color="#a93aff"/><stop offset="1" stop-color="#ff81ff"/></linearGradient><linearGradient id="SVGID_3_" gradientUnits="userSpaceOnUse" x1="256.005" x2="256.005" xlink:href="#lg1" y1="215.455" y2="128.501"/><g><g><g><path d="m256.004 61c8.291 0 15-6.709 15-15v-31c0-8.291-6.709-15-15-15s-15 6.709-15 15v31c0 8.291 6.709 15 15 15zm131.719 426.625-120-150c-.154-.192-.406-.253-.569-.434-2.747-3.126-6.656-5.191-11.149-5.191s-8.401 2.067-11.149 5.193c-.163.181-.416.24-.569.432l-120 150c-5.171 6.475-4.116 15.908 2.343 21.094 6.505 5.2 15.909 4.102 21.094-2.344l93.281-116.614v107.239c0 8.291 6.709 15 15 15s15-6.709 15-15v-107.239l93.281 116.614c2.974 3.691 7.324 5.625 11.733 5.625 3.281 0 6.592-1.069 9.36-3.281 6.46-5.186 7.515-14.619 2.344-21.094z" fill="url(#SVGID_1_)"/></g></g><g><path d="m497.004 362h-482c-8.291 0-15-6.709-15-15v-301c0-8.291 6.709-15 15-15h482c8.291 0 15 6.709 15 15v301c0 8.291-6.708 15-15 15z" fill="url(#SVGID_2_)"/></g><g><g><path d="m226.004 121h-45v-15c0-8.291-6.709-15-15-15s-15 6.709-15 15v15h-45c-8.291 0-15 6.709-15 15v151c0 8.291 6.709 15 15 15h120c8.291 0 15-6.709 15-15v-151c0-8.291-6.709-15-15-15zm180 0h-45v-15c0-8.291-6.709-15-15-15s-15 6.709-15 15v15h-45c-8.291 0-15 6.709-15 15v151c0 8.291 6.709 15 15 15h120c8.291 0 15-6.709 15-15v-151c0-8.291-6.708-15-15-15z" fill="url(#SVGID_3_)"/></g></g></g></svg>