<svg id="Capa_1" enable-background="new 0 0 512 512" height="512" viewBox="0 0 512 512" width="512" xmlns="http://www.w3.org/2000/svg" xmlns:xlink="http://www.w3.org/1999/xlink"><linearGradient id="SVGID_1_" gradientUnits="userSpaceOnUse" x1="256" x2="256" y1="381.76" y2="130.253"><stop offset="0" stop-color="#addcff"/><stop offset=".5028" stop-color="#eaf6ff"/><stop offset="1" stop-color="#eaf6ff"/></linearGradient><linearGradient id="SVGID_2_" gradientUnits="userSpaceOnUse" x1="256" x2="256" y1="512" y2="0"><stop offset="0" stop-color="#5558ff"/><stop offset="1" stop-color="#00c0ff"/></linearGradient><g><g><path d="m192.187 229.179 141.043-70.521c7.412-3.706 10.4-12.715 6.709-20.127-3.721-7.412-12.686-10.371-20.127-6.709l-141.042 70.521c-7.412 3.706-10.4 12.715-6.709 20.127 3.657 7.295 12.547 10.447 20.126 6.709zm141.043 124.164-141.043-70.521c-7.383-3.633-16.377-.703-20.127 6.709-3.691 7.412-.703 16.421 6.709 20.127l141.043 70.521c7.585 3.741 16.473.579 20.127-6.709 3.692-7.412.704-16.421-6.709-20.127z" fill="url(#SVGID_1_)"/></g></g><g><g><path d="m105 151c-57.891 0-105 47.109-105 105s47.109 105 105 105 105-47.109 105-105-47.109-105-105-105zm302 59c57.891 0 105-47.109 105-105s-47.109-105-105-105-105 47.109-105 105 47.109 105 105 105zm0 92c-57.891 0-105 47.109-105 105s47.109 105 105 105 105-47.109 105-105-47.109-105-105-105z" fill="url(#SVGID_2_)"/></g></g></svg>