<svg id="Capa_1" enable-background="new 0 0 511.78 511.78" height="512" viewBox="0 0 511.78 511.78" width="512" xmlns="http://www.w3.org/2000/svg" xmlns:xlink="http://www.w3.org/1999/xlink"><linearGradient id="SVGID_1_" gradientUnits="userSpaceOnUse" x1="255.89" x2="255.89" y1="496.78" y2="389.78"><stop offset="0" stop-color="#c3ffe8"/><stop offset=".9973" stop-color="#f0fff4"/></linearGradient><linearGradient id="lg1"><stop offset="0" stop-color="#00b59c"/><stop offset="1" stop-color="#9cffac"/></linearGradient><linearGradient id="SVGID_2_" gradientUnits="userSpaceOnUse" x1="255.89" x2="255.89" xlink:href="#lg1" y1="419.78" y2="0"/><linearGradient id="SVGID_3_" gradientUnits="userSpaceOnUse" x1="255.89" x2="255.89" xlink:href="#lg1" y1="511.78" y2="481.78"/><g><path d="m300.89 404.78c0-8.291-6.709-15-15-15h-60c-8.291 0-15 6.709-15 15v92h90z" fill="url(#SVGID_1_)"/><g><path d="m420.89 419.78h-330c-5.801 0-11.074-3.34-13.564-8.599-2.49-5.244-1.699-11.455 1.992-15.923l78.516-95.479h-51.944c-5.742 0-10.986-3.281-13.506-8.452-2.49-5.171-1.846-11.309 1.729-15.835l75.381-95.713h-48.604c-5.918 0-11.279-3.486-13.711-8.892-2.402-5.42-1.406-11.733 2.549-16.143l135-150c5.742-6.328 16.582-6.328 22.324 0l135 150c3.955 4.409 4.951 10.723 2.549 16.143-2.432 5.405-7.793 8.892-13.711 8.892h-48.604l75.381 95.713c3.574 4.526 4.219 10.664 1.729 15.835-2.52 5.171-7.764 8.452-13.506 8.452h-51.943l78.516 95.479c3.691 4.468 4.482 10.679 1.992 15.923-2.491 5.259-7.764 8.599-13.565 8.599z" fill="url(#SVGID_2_)"/></g><g><path d="m405.89 511.78h-300c-8.291 0-15-6.709-15-15s6.709-15 15-15h300c8.291 0 15 6.709 15 15s-6.709 15-15 15z" fill="url(#SVGID_3_)"/></g></g></svg>