<svg id="Capa_1" enable-background="new 0 0 512 512" height="512" viewBox="0 0 512 512" width="512" xmlns="http://www.w3.org/2000/svg" xmlns:xlink="http://www.w3.org/1999/xlink"><linearGradient id="SVGID_1_" gradientTransform="matrix(.707 .707 -.707 .707 4109.34 1598.177)" gradientUnits="userSpaceOnUse" x1="-3673.785" x2="-3673.785" y1="2101.481" y2="1449.84"><stop offset="0" stop-color="#c3ffe8"/><stop offset=".9973" stop-color="#f0fff4"/></linearGradient><linearGradient id="SVGID_2_" gradientUnits="userSpaceOnUse" x1="256" x2="256" y1="512" y2="0"><stop offset="0" stop-color="#00b59c"/><stop offset="1" stop-color="#9cffac"/></linearGradient><g><g id="Satellite_1_"><g><g><path d="m171.147 65.081-74.246 31.82-31.82 74.246 21.213 21.213 74.246-31.82 31.82-74.246zm180.312 286.378-31.82 74.246 21.213 21.213 74.246-31.82 31.82-74.246-21.213-21.213zm-169.705-190.918c-5.863-5.863-15.351-5.863-21.213 0-5.863 5.863-5.863 15.351 0 21.213l42.427 42.426c5.863 5.863 15.351 5.863 21.213 0 5.863-5.863 5.863-15.351 0-21.213zm169.705 169.705-42.426-42.426c-5.863-5.863-15.351-5.863-21.213 0-5.863 5.863-5.863 15.351 0 21.213l42.426 42.426c5.863 5.863 15.351 5.863 21.213 0 5.863-5.862 5.863-15.35 0-21.213zm134.931-304.636c-5.863-5.863-15.351-5.863-21.213 0l-42.427 42.427c-5.863 5.863-5.863 15.351 0 21.213 5.863 5.863 15.351 5.863 21.213 0l42.427-42.426c5.862-5.863 5.862-15.351 0-21.214zm-156.144 177.357 50.078-50.078c5.863-5.863 5.863-15.351 0-21.213-5.863-5.863-15.351-5.863-21.213 0l-50.078 50.078c-5.863 5.863-5.863 15.351 0 21.213 5.863 5.863 15.351 5.863 21.213 0zm-262.209 219.783-42.427 42.427c-5.863 5.863-5.863 15.351 0 21.213 5.863 5.863 15.351 5.863 21.213 0l42.426-42.426c5.863-5.863 5.863-15.351 0-21.213-5.862-5.863-15.35-5.863-21.212-.001zm113.717-113.717-50.078 50.078c-5.863 5.863-5.863 15.351 0 21.213 5.863 5.863 15.351 5.863 21.213 0l50.078-50.078c5.863-5.863 5.863-15.351 0-21.213-5.863-5.863-15.351-5.863-21.213 0z" fill="url(#SVGID_1_)"/></g></g></g><g><g><path d="m393.886 287.82c-5.94-5.94-15.273-5.94-21.213 0l-84.853 84.853c-5.94 5.94-5.94 15.273 0 21.213l31.82 31.82 106.066-106.066zm53.033 53.033-106.066 106.066 31.82 31.82c5.94 5.94 15.273 5.94 21.213 0l84.853-84.853c5.94-5.94 5.94-15.273 0-21.213zm-74.246-116.673-84.853-84.853c-5.863-5.863-15.351-5.863-21.213 0l-127.28 127.28c-5.863 5.863-5.863 15.351 0 21.213l84.853 84.853c5.863 5.863 15.351 5.863 21.213 0l127.279-127.279c5.863-5.863 5.863-15.351.001-21.214zm134.93-92.504-127.279-127.279c-5.863-5.863-15.351-5.863-21.213 0-40.935 40.935-40.935 107.558 0 148.492 40.935 40.935 107.558 40.935 148.492 0 5.863-5.862 5.863-15.35 0-21.213zm-503.206 227.435c-5.863 5.863-5.863 15.351 0 21.213l127.279 127.279c5.863 5.863 15.351 5.863 21.213 0 40.935-40.935 40.935-107.558 0-148.492-40.934-40.935-107.557-40.935-148.492 0zm113.717-134.931c5.94 5.94 15.273 5.94 21.213 0l84.853-84.853c5.94-5.94 5.94-15.273 0-21.213l-31.82-31.82-106.066 106.066zm-53.033-53.033 106.066-106.066-31.82-31.82c-5.94-5.94-15.273-5.94-21.213 0l-84.853 84.853c-5.94 5.94-5.94 15.273 0 21.213z" fill="url(#SVGID_2_)"/></g></g></g></svg>