<svg id="Capa_1" enable-background="new 0 0 512 512" height="512" viewBox="0 0 512 512" width="512" xmlns="http://www.w3.org/2000/svg" xmlns:xlink="http://www.w3.org/1999/xlink"><linearGradient id="lg1"><stop offset="0" stop-color="#ffbef9"/><stop offset="1" stop-color="#fff1ff"/></linearGradient><linearGradient id="SVGID_1_" gradientUnits="userSpaceOnUse" x1="165" x2="165" xlink:href="#lg1" y1="512" y2="62"/><linearGradient id="SVGID_2_" gradientUnits="userSpaceOnUse" x1="347" x2="347" y1="450" y2="0"><stop offset="0" stop-color="#a93aff"/><stop offset="1" stop-color="#ff81ff"/></linearGradient><linearGradient id="SVGID_3_" gradientUnits="userSpaceOnUse" x1="377" x2="377" xlink:href="#lg1" y1="330" y2="0"/><g><g><path d="m315 512h-300c-8.291 0-15-6.709-15-15v-420c0-8.291 6.709-15 15-15h180c8.291 0 15 6.709 15 15v345h105c8.291 0 15 6.709 15 15v60c0 8.291-6.709 15-15 15z" fill="url(#SVGID_1_)"/></g><g id="Document_2_"><g><path d="m392 120-15-120h-180c-8.401 0-15 6.599-15 15v420c0 8.401 6.599 15 15 15h300c8.401 0 15-6.599 15-15v-300z" fill="url(#SVGID_2_)"/></g><g><g><path d="m392 135h120c0-3.9-1.5-7.8-4.501-10.499l-120-120c-2.699-3.001-6.599-4.501-10.499-4.501v120c0 8.284 6.716 15 15 15zm45 75h-180c-8.291 0-15 6.709-15 15s6.709 15 15 15h180c8.291 0 15-6.709 15-15s-6.709-15-15-15zm0 90h-180c-8.291 0-15 6.709-15 15s6.709 15 15 15h180c8.291 0 15-6.709 15-15s-6.709-15-15-15z" fill="url(#SVGID_3_)"/></g></g></g></g></svg>