<svg id="Capa_1" enable-background="new 0 0 512 512" height="512" viewBox="0 0 512 512" width="512" xmlns="http://www.w3.org/2000/svg" xmlns:xlink="http://www.w3.org/1999/xlink"><linearGradient id="SVGID_1_" gradientUnits="userSpaceOnUse" x1="321.413" x2="321.413" y1="153.509" y2="0"><stop offset="0" stop-color="#ffc2cc"/><stop offset="1" stop-color="#fff2f4"/></linearGradient><linearGradient id="SVGID_2_" gradientUnits="userSpaceOnUse" x1="256" x2="256" y1="512" y2="62"><stop offset="0" stop-color="#fd3a84"/><stop offset="1" stop-color="#ffa68d"/></linearGradient><linearGradient id="SVGID_3_" gradientUnits="userSpaceOnUse" x1="331" x2="331" y1="408.011" y2="122"><stop offset="0" stop-color="#ffc8d1"/><stop offset="1" stop-color="#fff6f7"/></linearGradient><g><g><g><path d="m316 0h-120c-8.291 0-15 6.709-15 15s6.709 15 15 15h45v47c0 8.291 6.709 15 15 15s15-6.709 15-15v-47h45c8.291 0 15-6.709 15-15s-6.709-15-15-15zm141.431 85.569c-5.859-5.859-15.352-5.859-21.211 0l-42.334 42.334c-5.859 5.859-5.859 15.352 0 21.211 2.93 2.93 6.768 4.395 10.605 4.395s7.676-1.465 10.605-4.395l42.334-42.334c5.86-5.859 5.86-15.351.001-21.211z" fill="url(#SVGID_1_)"/></g></g><g><path d="m256 512c-124.072 0-225-100.928-225-225s100.928-225 225-225 225 100.928 225 225-100.928 225-225 225z" fill="url(#SVGID_2_)"/></g><g><path d="m362.011 408.011c-3.838 0-7.676-1.465-10.605-4.395l-106.011-106.011c-2.813-2.812-4.395-6.621-4.395-10.605v-150c0-8.291 6.709-15 15-15 20.186 0 39.932 3.633 58.682 10.781 63.589 24.273 106.318 86.25 106.318 154.219 0 44.019-17.183 85.43-48.384 116.616-2.929 2.93-6.767 4.395-10.605 4.395z" fill="url(#SVGID_3_)"/></g></g></svg>