<svg id="Capa_1" enable-background="new 0 0 512 512" height="512" viewBox="0 0 512 512" width="512" xmlns="http://www.w3.org/2000/svg" xmlns:xlink="http://www.w3.org/1999/xlink"><linearGradient id="SVGID_1_" gradientUnits="userSpaceOnUse" x1="256" x2="256" y1="466" y2="46"><stop offset="0" stop-color="#fd3a84"/><stop offset="1" stop-color="#ffa68d"/></linearGradient><linearGradient id="SVGID_2_" gradientUnits="userSpaceOnUse" x1="256" x2="256" y1="346" y2="106"><stop offset="0" stop-color="#ffc8d1"/><stop offset="1" stop-color="#fff6f7"/></linearGradient><g id="Feedback_2_"><g><path d="m60 451v-45h-45c-8.291 0-15-6.709-15-15v-330c0-8.291 6.709-15 15-15h482c8.291 0 15 6.709 15 15v330c0 8.291-6.709 15-15 15h-355.789l-55.605 55.605c-9.409 9.409-25.606 2.71-25.606-10.605z" fill="url(#SVGID_1_)"/></g><g><path d="m256 346c-2.373 0-4.731-.557-6.899-1.685-111.46-57.671-128.101-120.806-128.101-153.31 0-47.666 32.944-85.005 75-85.005 28.257 0 48.237 13.022 60 23.921 11.763-10.899 31.743-23.921 60-23.921 42.056 0 75 37.339 75 85.005 0 32.505-16.641 95.64-128.101 153.311-2.168 1.127-4.526 1.684-6.899 1.684z" fill="url(#SVGID_2_)"/></g></g></svg>