<svg id="Capa_1" enable-background="new 0 0 512 512" height="512" viewBox="0 0 512 512" width="512" xmlns="http://www.w3.org/2000/svg" xmlns:xlink="http://www.w3.org/1999/xlink"><linearGradient id="SVGID_1_" gradientUnits="userSpaceOnUse" x1="256" x2="256" y1="480.97" y2="120.97"><stop offset="0" stop-color="#fd5900"/><stop offset="1" stop-color="#ffde00"/></linearGradient><linearGradient id="SVGID_2_" gradientUnits="userSpaceOnUse" x1="256.03" x2="256.03" y1="420.97" y2="31.03"><stop offset="0" stop-color="#ffe59a"/><stop offset="1" stop-color="#ffffd5"/></linearGradient><g><g><g><path d="m497 150.97h-46l-14.801-30-15.199 30h-406c-8.401 0-15 6.599-15 15v300c0 8.401 6.599 15 15 15h482c8.401 0 15-6.599 15-15v-300c0-8.401-6.599-15-15-15z" fill="url(#SVGID_1_)"/></g></g><g><g><path d="m406 210.97h-195v90h195c8.401 0 15-6.599 15-15v-60c0-8.401-6.599-15-15-15zm-225 90v-90h-75c-8.401 0-15 6.599-15 15v60c0 8.401 6.599 15 15 15zm105 30h-180c-8.291 0-15 6.709-15 15s6.709 15 15 15h180c8.291 0 15-6.709 15-15s-6.709-15-15-15zm0 60h-180c-8.291 0-15 6.709-15 15s6.709 15 15 15h180c8.291 0 15-6.709 15-15s-6.709-15-15-15zm90-60c-24.814 0-45 20.186-45 45s20.186 45 45 45 45-20.186 45-45-20.185-45-45-45zm62.402-239.7-360-60c-7.8-1.5-15.901 4.2-17.102 12.299-1.501 8.101 4.2 15.901 12.297 17.1l347.403 57.9v32.401h30v-45c0-7.2-5.398-13.501-12.598-14.7z" fill="url(#SVGID_2_)"/></g></g></g></svg>