<svg id="Capa_1" enable-background="new 0 0 512 512" height="512" viewBox="0 0 512 512" width="512" xmlns="http://www.w3.org/2000/svg" xmlns:xlink="http://www.w3.org/1999/xlink"><linearGradient id="SVGID_1_" gradientUnits="userSpaceOnUse" x1="256" x2="256" y1="512" y2="0"><stop offset="0" stop-color="#fd3a84"/><stop offset="1" stop-color="#ffa68d"/></linearGradient><linearGradient id="SVGID_2_" gradientUnits="userSpaceOnUse" x1="290.405" x2="290.405" y1="426.043" y2="61"><stop offset="0" stop-color="#ffc2cc"/><stop offset="1" stop-color="#fff2f4"/></linearGradient><g><g><g><path d="m430.302 442c49.797-46.499 81.698-112.8 81.698-186 0-140.7-115.302-256-256-256s-256 115.3-256 256 115.302 256 256 256c56.4 0 108.6-19.3 150.901-50.501 4.2-2.999 42.151 20.589 42.151 20.589s-22.35-36.638-18.75-40.088z" fill="url(#SVGID_1_)"/></g></g><g><g><path d="m497 482c-27.598 0-53.8-16.3-66.698-40-7.2 6.899-15 13.5-23.401 19.499 18.896 30.301 53.5 50.501 90.099 50.501 8.401 0 15-6.599 15-15s-6.599-15-15-15zm-239.799-301c33.076 0 60-26.909 60-60s-26.924-60-60-60c-33.077 0-60 26.909-60 60s26.923 60 60 60zm-71.338 51.812c10.225-31.45-7.061-65.361-38.525-75.601-31.426-10.222-65.31 6.891-75.586 38.54-10.225 31.45 7.061 65.361 38.525 75.601 31.558 10.241 65.343-6.993 75.586-38.54zm27.246 83.876c-26.69-19.444-64.275-13.644-83.789 13.257-19.521 26.827-13.543 64.373 13.271 83.804 26.847 19.488 64.396 13.433 83.789-13.257 19.522-26.827 13.544-64.373-13.271-83.804zm229.541-120.937c-10.185-31.367-43.824-48.832-75.586-38.54-31.7 10.313-48.724 44.249-38.525 75.601 10.246 31.556 44.037 48.779 75.585 38.54 31.466-10.24 48.75-44.151 38.526-75.601zm-141.65 60.249c0-24.814-20.186-45-45-45s-45 20.186-45 45 20.186 45 45 45 45-20.186 45-45zm.293 60.674c-26.911 19.53-32.729 57.08-13.271 83.818 19.332 26.65 56.735 32.874 83.789 13.271 26.911-19.53 32.729-57.08 13.271-83.818-19.583-26.995-57.202-32.64-83.789-13.271z" fill="url(#SVGID_2_)"/></g></g></g></svg>