<svg id="Capa_1" enable-background="new 0 0 512 512" height="512" viewBox="0 0 512 512" width="512" xmlns="http://www.w3.org/2000/svg" xmlns:xlink="http://www.w3.org/1999/xlink"><linearGradient id="lg1"><stop offset="0" stop-color="#fd5900"/><stop offset="1" stop-color="#ffde00"/></linearGradient><linearGradient id="SVGID_1_" gradientUnits="userSpaceOnUse" x1="243.716" x2="243.716" xlink:href="#lg1" y1="270" y2="90"/><linearGradient id="SVGID_2_" gradientUnits="userSpaceOnUse" x1="408.716" x2="408.716" xlink:href="#lg1" y1="150" y2="0"/><linearGradient id="SVGID_3_" gradientUnits="userSpaceOnUse" x1="256" x2="256" y1="512" y2="299.196"><stop offset="0" stop-color="#ffedad"/><stop offset="1" stop-color="#ffffe5"/></linearGradient><g><g><path d="m243.716 270c-49.626 0-90-40.374-90-90s40.374-90 90-90 90 40.374 90 90-40.374 90-90 90z" fill="url(#SVGID_1_)"/></g><g><path d="m408.716 150c-41.355 0-75-33.645-75-75s33.645-75 75-75 75 33.645 75 75-33.645 75-75 75z" fill="url(#SVGID_2_)"/></g><path d="m31.11 430.031c-5.858-5.858-5.858-15.355 0-21.213l91.815-91.815c8.441-8.441 19.89-13.003 31.828-13.003h140.145c16.569 0 30 13.25 30 29.819s-13.431 30-30 30h-105c-8.291 0-15 6.709-15 15s6.709 15 15 15h124.654c19.896 0 38.978-7.904 53.047-21.973l62.035-62.035c14.154-14.154 37.103-14.154 51.258 0 5.859 5.859 5.858 15.358-.002 21.215l-92.153 92.118c-19.648 19.641-46.292 30.674-74.073 30.674h-124.762c-3.979 0-7.796 1.581-10.609 4.395l-49.393 49.393c-5.858 5.858-15.355 5.858-21.213 0z" fill="url(#SVGID_3_)"/></g></svg>