<svg id="Capa_1" enable-background="new 0 0 512 512" height="512" viewBox="0 0 512 512" width="512" xmlns="http://www.w3.org/2000/svg" xmlns:xlink="http://www.w3.org/1999/xlink"><linearGradient id="lg1"><stop offset="0" stop-color="#eaf6ff"/><stop offset=".4972" stop-color="#eaf6ff"/><stop offset="1" stop-color="#addcff"/></linearGradient><linearGradient id="SVGID_1_" gradientUnits="userSpaceOnUse" x1="122.767" x2="122.767" xlink:href="#lg1" y1="431.735" y2="151"/><linearGradient id="SVGID_2_" gradientUnits="userSpaceOnUse" x1="389.234" x2="389.234" xlink:href="#lg1" y1="431.735" y2="151"/><linearGradient id="lg2"><stop offset="0" stop-color="#5558ff"/><stop offset="1" stop-color="#00c0ff"/></linearGradient><linearGradient id="SVGID_3_" gradientUnits="userSpaceOnUse" x1="256" x2="256" xlink:href="#lg2" y1="436" y2="158"/><linearGradient id="SVGID_4_" gradientUnits="userSpaceOnUse" x1="92.595" x2="92.595" xlink:href="#lg1" y1="181" y2="76"/><linearGradient id="SVGID_5_" gradientUnits="userSpaceOnUse" x1="419.405" x2="419.405" xlink:href="#lg1" y1="181" y2="76"/><linearGradient id="SVGID_6_" gradientUnits="userSpaceOnUse" x1="256" x2="256" xlink:href="#lg2" y1="181" y2="76"/><g><g><path d="m241.955 426.267-75-240c-.636-1.696-.946-3.481-.946-5.267l-85.009-30-80.999 30c0 .005-.001.01-.001.016.004 3.984 1.593 7.802 4.416 10.613l241 240c.038.038.079.069.118.106-1.548-1.508-2.787-3.357-3.579-5.468z" fill="url(#SVGID_1_)"/><path d="m511.999 181-89.999-30-76.009 30c0 1.786-.31 3.57-.946 5.267l-75 240c-.792 2.111-2.031 3.96-3.578 5.468.038-.037.08-.068.118-.106l241-240c2.823-2.811 4.412-6.629 4.416-10.613-.001-.006-.002-.011-.002-.016z" fill="url(#SVGID_2_)"/><path d="m151.955 186.267 90 240c2.195 5.854 7.793 9.733 14.045 9.733s11.85-3.879 14.045-9.733l90-240c.636-1.696.946-3.481.946-5.267l-103.991-23-105.991 23c0 1.786.31 3.57.946 5.267z" fill="url(#SVGID_3_)"/></g></g><g><path d="m185.188 76h-80.188c-3.978 0-7.793 1.58-10.606 4.393l-90 90c-2.814 2.813-4.393 6.629-4.393 10.607h151.008c0-1.601 15.247-18.203 15.76-19.743z" fill="url(#SVGID_4_)"/><path d="m507.606 170.393-90-90c-2.813-2.813-6.628-4.393-10.606-4.393h-80.188l18.419 85.257c.513 1.541 15.76 18.143 15.76 19.743h151.008c0-3.978-1.579-7.794-4.393-10.607z" fill="url(#SVGID_5_)"/><path d="m326.812 76h-141.624l-33.418 100.257c-.513 1.541-.76 3.143-.76 4.743h209.982c0-1.601-.247-3.203-.76-4.743z" fill="url(#SVGID_6_)"/></g></svg>