<svg id="Capa_1" enable-background="new 0 0 512 512" height="512" viewBox="0 0 512 512" width="512" xmlns="http://www.w3.org/2000/svg" xmlns:xlink="http://www.w3.org/1999/xlink"><linearGradient id="SVGID_1_" gradientUnits="userSpaceOnUse" x1="256" x2="256" y1="512" y2="0"><stop offset="0" stop-color="#00b59c"/><stop offset="1" stop-color="#9cffac"/></linearGradient><linearGradient id="SVGID_2_" gradientUnits="userSpaceOnUse" x1="256" x2="256" y1="392" y2="62"><stop offset="0" stop-color="#c3ffe8"/><stop offset=".9973" stop-color="#f0fff4"/></linearGradient><g><g id="Trash_Bin_1_"><g><g><path d="m195 92c8.291 0 15-6.709 15-15v-47h90v47c0 8.291 6.709 15 15 15s15-6.709 15-15v-62c0-8.291-6.709-15-15-15h-120c-8.291 0-15 6.709-15 15v62c0 8.291 6.709 15 15 15zm237.045 34.849c-2.842-3.091-6.856-4.849-11.045-4.849h-330c-4.189 0-8.203 1.758-11.045 4.849-2.842 3.076-4.248 7.222-3.896 11.396l30 360c.644 7.778 7.148 13.755 14.941 13.755h270c7.793 0 14.297-5.977 14.941-13.755l30-360c.352-4.175-1.054-8.32-3.896-11.396z" fill="url(#SVGID_1_)"/></g></g><g><g><path d="m451 62h-390c-8.291 0-15 6.709-15 15v60c0 8.291 6.709 15 15 15h390c8.291 0 15-6.709 15-15v-60c0-8.291-6.709-15-15-15zm-120.264 260.405c-4.277-7.119-13.506-9.375-20.566-5.142-7.119 4.263-9.434 13.477-5.156 20.581l14.502 24.156h-29.766c-8.291 0-15 6.709-15 15s6.709 15 15 15h56.25c5.391 0 10.4-2.9 13.066-7.603 2.637-4.702 2.578-10.474-.205-15.117zm-108.486 39.595h-29.766l14.502-24.155c4.277-7.104 1.963-16.318-5.156-20.581-7.002-4.233-16.289-1.978-20.566 5.142l-28.125 46.875c-2.783 4.644-2.842 10.415-.205 15.117 2.666 4.702 7.675 7.602 13.066 7.602h56.25c8.291 0 15-6.709 15-15s-6.709-15-15-15zm75.205-65.889c7.119-4.263 9.434-13.477 5.156-20.581l-33.75-56.25c-5.391-9.023-20.332-9.023-25.723 0l-33.75 56.25c-4.277 7.104-1.963 16.318 5.156 20.581 7.061 4.248 16.289 2.007 20.566-5.142l20.89-34.819 20.889 34.819c4.284 7.141 13.544 9.381 20.566 5.142z" fill="url(#SVGID_2_)"/></g></g></g></g></svg>