<svg id="Capa_1" enable-background="new 0 0 512 512" height="512" viewBox="0 0 512 512" width="512" xmlns="http://www.w3.org/2000/svg" xmlns:xlink="http://www.w3.org/1999/xlink"><linearGradient id="lg1"><stop offset="0" stop-color="#addcff"/><stop offset=".5028" stop-color="#eaf6ff"/><stop offset="1" stop-color="#eaf6ff"/></linearGradient><linearGradient id="SVGID_1_" gradientUnits="userSpaceOnUse" x1="256" x2="256" xlink:href="#lg1" y1="158.101" y2="0"/><linearGradient id="SVGID_2_" gradientUnits="userSpaceOnUse" x1="256" x2="256" y1="512" y2="128.101"><stop offset="0" stop-color="#5558ff"/><stop offset="1" stop-color="#00c0ff"/></linearGradient><linearGradient id="SVGID_3_" gradientUnits="userSpaceOnUse" x1="256" x2="256" xlink:href="#lg1" y1="390" y2="210.513"/><g><g id="Trash_4_"><path d="m331 15c0 40.8-12.9 81.301-22.2 105-1.201 2.999-2.401 5.7-3.3 8.101l-51.176 30-47.825-30c-.899-2.401-2.098-5.101-3.3-8.101-9.299-23.699-22.199-64.2-22.199-105 0-8.401 6.599-15 15-15h120c8.401 0 15 6.599 15 15z" fill="url(#SVGID_1_)"/><path d="m481 497c0 8.401-6.599 15-15 15h-420c-8.401 0-15-6.599-15-15 0-28.801 20.4-55.201 30-66 1.8-184.2 89.399-266.901 134.099-296 4.2-2.701 8.101-5.099 11.4-6.899h99.001c3.3 1.8 7.2 4.199 11.4 6.899 44.701 29.099 132.3 111.799 134.1 296 9.602 10.799 30 37.199 30 66z" fill="url(#SVGID_2_)"/><g><g><path d="m358.861 367.28-28.125-46.875c-4.277-7.119-13.506-9.375-20.566-5.142-7.119 4.263-9.434 13.477-5.156 20.581l14.502 24.156h-29.766c-8.291 0-15 6.709-15 15s6.709 15 15 15h56.25c5.391 0 10.4-2.9 13.066-7.603 2.637-4.702 2.579-10.473-.205-15.117zm-136.611-7.28h-29.766l14.502-24.155c4.277-7.104 1.963-16.318-5.156-20.581-7.002-4.233-16.289-1.978-20.566 5.142l-28.125 46.875c-2.783 4.644-2.842 10.415-.205 15.117 2.666 4.702 7.675 7.602 13.066 7.602h56.25c8.291 0 15-6.709 15-15s-6.709-15-15-15zm75.205-65.889c7.119-4.263 9.434-13.477 5.156-20.581l-33.75-56.25c-5.391-9.023-20.332-9.023-25.723 0l-33.75 56.25c-4.277 7.104-1.963 16.318 5.156 20.581 7.061 4.248 16.289 2.007 20.566-5.142l20.89-34.819 20.889 34.819c4.284 7.141 13.544 9.381 20.566 5.142z" fill="url(#SVGID_3_)"/></g></g></g></g></svg>