<svg id="Capa_1" enable-background="new 0 0 512 512" height="512" viewBox="0 0 512 512" width="512" xmlns="http://www.w3.org/2000/svg" xmlns:xlink="http://www.w3.org/1999/xlink"><linearGradient id="lg1"><stop offset="0" stop-color="#ffbef9"/><stop offset="1" stop-color="#fff1ff"/></linearGradient><linearGradient id="SVGID_1_" gradientUnits="userSpaceOnUse" x1="255.98" x2="255.98" xlink:href="#lg1" y1="512" y2="300"/><linearGradient id="SVGID_2_" gradientUnits="userSpaceOnUse" x1="256" x2="256" y1="512" y2="0"><stop offset="0" stop-color="#a93aff"/><stop offset="1" stop-color="#ff81ff"/></linearGradient><linearGradient id="SVGID_3_" gradientUnits="userSpaceOnUse" x1="255.98" x2="255.98" xlink:href="#lg1" y1="210" y2="120.21"/><g><g id="Flower_1_"><g><path d="m255.98 512c-8.291 0-15-6.709-15-15v-182c0-8.291 6.709-15 15-15s15 6.709 15 15v182c0 8.291-6.709 15-15 15z" fill="url(#SVGID_1_)"/></g><g><g><path d="m375.98 362c-52.566 0-97.714 30.494-120 74.451-22.286-43.957-67.434-74.451-120-74.451-8.291 0-15 6.709-15 15 0 74.443 60.557 135 135 135s135-60.557 135-135c0-8.291-6.709-15-15-15zm22.588-178.719c-4.164-7.085-9.521-13.241-15.718-18.268 6.258-5.078 11.649-11.308 15.806-18.485 11.279-19.438 11.748-42.349 1.318-61.641-.352-1.216-.85-2.388-1.494-3.486-11.514-19.292-32.021-30.762-54.902-30.762h-.381c-8.251.046-16.304 1.609-23.801 4.479-1.24-7.873-3.882-15.581-7.917-22.718-11.4-20.101-31.5-32.1-55.8-32.401-22.8 0-43.2 12.001-54.901 32.1-4.199 7.2-6.899 15-8.099 23.101-7.5-3.001-15.901-4.501-24.3-4.501-23.401 0-43.801 11.7-55.201 31.5-.3.601-.601.901-.899 1.5-10.801 19.801-10.501 43.2 1.199 63.001 4.125 7.115 9.455 13.273 15.624 18.291-6.255 5.077-11.645 11.305-15.8 18.48-11.279 19.438-11.748 42.349-1.318 61.641.352 1.216.85 2.388 1.494 3.486 11.514 19.292 32.021 30.762 54.902 30.762h.381c8.227-.046 16.257-1.599 23.737-4.456 1.24 7.904 3.892 15.648 7.962 22.825 11.367 20.024 31.641 32.095 54.316 32.271h1.494c22.793 0 43.33-12.026 54.932-32.168 4.15-7.23 6.856-15.048 8.124-23.028 7.624 2.914 15.829 4.483 24.249 4.483h.117c23.203-.044 43.828-11.821 55.166-31.494.293-.498.557-1.011.791-1.523 10.93-19.673 10.52-43.213-1.081-62.989zm-134.971-5.537c-.014.008-.027.018-.041.026-.102.058-.21.104-.311.165-4.161 2.543-9.331 2.633-13.591.629-.415-.293-.845-.568-1.292-.82-4.629-2.622-7.383-7.383-7.383-12.744 0-5.4 2.701-10.201 7.5-12.599 0-.3.3-.3.3-.3h.3c3.866-2.321 8.397-2.642 12.261-1.164.708.565 1.468 1.075 2.285 1.51 4.395 2.344 7.354 7.383 7.354 12.554.001 5.36-2.753 10.121-7.382 12.743z" fill="url(#SVGID_2_)"/></g></g><g><g><path d="m280.589 127.632c-9.506-8.227-31.442-10.838-46.992-1.479-13.945 7.91-22.617 22.793-22.617 38.848 0 15.469 8.027 29.839 21.094 37.939 4.171 3.293 13.942 7.061 23.906 7.061 7.969 0 15.82-2.197 22.383-6.152 13.945-7.91 22.617-22.793 22.617-38.848 0-15.074-7.91-29.386-20.391-37.369z" fill="url(#SVGID_3_)"/></g></g></g></g></svg>