<svg id="Capa_1" enable-background="new 0 0 512.001 512.001" height="512" viewBox="0 0 512.001 512.001" width="512" xmlns="http://www.w3.org/2000/svg" xmlns:xlink="http://www.w3.org/1999/xlink"><linearGradient id="SVGID_1_" gradientUnits="userSpaceOnUse" x1="256" x2="256" y1="451" y2="61"><stop offset="0" stop-color="#00b59c"/><stop offset="1" stop-color="#9cffac"/></linearGradient><linearGradient id="lg1"><stop offset="0" stop-color="#9bff9d"/><stop offset=".9973" stop-color="#e2ffea"/><stop offset="1" stop-color="#e2ffea"/></linearGradient><linearGradient id="SVGID_2_" gradientUnits="userSpaceOnUse" x1="121" x2="121" xlink:href="#lg1" y1="241" y2="121"/><linearGradient id="SVGID_3_" gradientUnits="userSpaceOnUse" x1="256" x2="256" xlink:href="#lg1" y1="451" y2="211"/><g><path d="m497 451-241-30-241 30c-8.284 0-15-6.716-15-15v-360c0-8.284 6.716-15 15-15h482c8.284 0 15 6.716 15 15v360c0 8.285-6.715 15-15 15z" fill="url(#SVGID_1_)"/><path d="m121 241c-33.084 0-60-26.916-60-60s26.916-60 60-60 60 26.916 60 60-26.916 60-60 60z" fill="url(#SVGID_2_)"/><g><path d="m497 451h-482c-6.076 0-11.552-3.665-13.868-9.283s-1.014-12.077 3.296-16.359l151-150c5.863-5.824 15.333-5.809 21.178.035l34.394 34.394 94.394-94.394c2.949-2.95 7.007-4.537 11.161-4.383 4.169.154 8.084 2.037 10.808 5.197l181 210c3.829 4.443 4.718 10.71 2.274 16.042-2.444 5.333-7.771 8.751-13.637 8.751z" fill="url(#SVGID_3_)"/></g></g></svg>