<svg id="Capa_1" enable-background="new 0 0 512 512" height="512" viewBox="0 0 512 512" width="512" xmlns="http://www.w3.org/2000/svg" xmlns:xlink="http://www.w3.org/1999/xlink"><linearGradient id="SVGID_1_" gradientTransform="matrix(.707 .707 -.707 .707 257.557 -107.798)" gradientUnits="userSpaceOnUse" x1="256.143" x2="256.143" y1="348.76" y2="-53.968"><stop offset="0" stop-color="#ffedad"/><stop offset="1" stop-color="#ffffe5"/></linearGradient><linearGradient id="SVGID_2_" gradientTransform="matrix(.707 .707 -.707 .707 257.557 -107.798)" gradientUnits="userSpaceOnUse" x1="256.143" x2="256.143" y1="570.659" y2="168.76"><stop offset="0" stop-color="#fd5900"/><stop offset="1" stop-color="#ffde00"/></linearGradient><g><path d="m476.839 35.161c-46.882-46.882-122.824-46.882-169.706 0l-115.066 115.066c-7.424 7.424-13.577 15.273-18.455 23.971-16.546 28.002-20.789 61.094-12.515 91.852 5.303 19.729 15.485 38.397 30.97 53.882s33.941 25.879 53.882 30.97l68.325-23.131-21.87-34.781c-19.939 5.516-42.214.212-57.912-15.485s-20.789-37.76-15.485-57.912c2.545-9.76 7.849-19.305 15.485-26.941l115.068-115.064c23.335-23.335 61.519-23.334 84.853 0s23.335 61.518 0 84.853l-84.094 84.094-38.581 65.789 26.065 26.065c8.698-4.879 16.547-11.031 23.971-18.455l115.066-115.066c46.88-46.883 46.88-122.825-.001-169.707z" fill="url(#SVGID_1_)"/><path d="m319.346 362.359-114.48 114.48c-46.88 46.88-122.824 46.882-169.706 0s-46.88-122.825 0-169.706l114.48-114.48c7.425-7.425 15.273-13.577 23.971-18.455-16.546 28.002-20.789 61.094-12.515 91.852l-83.51 83.51c-23.334 23.334-23.334 61.519 0 84.853s61.519 23.334 84.853 0l114.48-114.48c7.636-7.636 12.941-17.183 15.485-26.941 5.305-20.153.212-42.214-15.485-57.912-15.698-15.698-37.971-21.002-57.912-15.485 2.545-9.76 7.849-19.305 15.485-26.941l30.972-30.972c19.94 5.092 38.396 15.487 53.881 30.972s25.667 34.153 30.972 53.881c8.272 30.759 4.029 63.852-12.516 91.854-4.878 8.697-11.029 16.545-18.455 23.97z" fill="url(#SVGID_2_)"/></g></svg>