<svg id="Capa_1" enable-background="new 0 0 511.998 511.998" height="512" viewBox="0 0 511.998 511.998" width="512" xmlns="http://www.w3.org/2000/svg" xmlns:xlink="http://www.w3.org/1999/xlink"><linearGradient id="SVGID_1_" gradientUnits="userSpaceOnUse" x1="226" x2="226" y1="439.632" y2="60.999"><stop offset="0" stop-color="#ffedad"/><stop offset="1" stop-color="#ffffe5"/></linearGradient><linearGradient id="SVGID_2_" gradientUnits="userSpaceOnUse" x1="256" x2="256" y1="450.999" y2="180.999"><stop offset="0" stop-color="#fd5900"/><stop offset="1" stop-color="#ffde00"/></linearGradient><g id="Folder_1_"><g><path d="m0 435.999v-360c0-8.291 6.709-15 15-15h90c3.984 0 7.793 1.582 10.605 4.395l25.605 25.605h295.79c8.291 0 15 6.709 15 15v90c0 8.291-6.709 15-15 15h-350.281l-57.173 228.633z" fill="url(#SVGID_1_)"/></g><g><path d="m437 450.999h-422c-4.614 0-8.979-2.124-11.821-5.771-2.842-3.633-3.853-8.379-2.725-12.861l60-240c1.67-6.68 7.661-11.367 14.546-11.367h422c4.614 0 8.979 2.124 11.821 5.771 2.842 3.633 3.853 8.379 2.725 12.861l-60 240c-1.67 6.679-7.661 11.367-14.546 11.367z" fill="url(#SVGID_2_)"/></g></g></svg>