<svg id="Capa_1" enable-background="new 0 0 512 512" height="512" viewBox="0 0 512 512" width="512" xmlns="http://www.w3.org/2000/svg" xmlns:xlink="http://www.w3.org/1999/xlink"><linearGradient id="SVGID_1_" gradientUnits="userSpaceOnUse" x1="256" x2="256" y1="391" y2="121"><stop offset="0" stop-color="#fd5900"/><stop offset="1" stop-color="#ffde00"/></linearGradient><linearGradient id="SVGID_2_" gradientUnits="userSpaceOnUse" x1="256" x2="256" y1="512" y2="0"><stop offset="0" stop-color="#ffedad"/><stop offset="1" stop-color="#ffffe5"/></linearGradient><g id="Sunlight_2_"><g><path d="m256 391c-74.443 0-135-60.557-135-135s60.557-135 135-135 135 60.557 135 135-60.557 135-135 135z" fill="url(#SVGID_1_)"/></g><g><g><g><path d="m256 0c-8.291 0-15 7.709-15 16v60c0 8.291 6.709 15 15 15s15-6.709 15-15v-60c0-8.291-6.709-16-15-16zm0 421c-8.291 0-15 6.709-15 15v61c0 8.291 6.709 15 15 15s15-6.709 15-15v-61c0-8.291-6.709-15-15-15zm-159.111-345.308c-5.859-5.859-15.352-5.859-21.211 0s-5.859 15.366 0 21.211l42.451 42.422c5.86 5.859 15.352 5.859 21.211 0s5.859-15.366 0-21.211zm296.982 296.983c-5.859-5.859-15.352-5.859-21.211 0s-5.859 15.366 0 21.211l42.451 42.422c5.86 5.859 15.352 5.859 21.211 0s5.859-15.366 0-21.211zm-302.871-116.675c0-8.291-6.709-15-15-15h-61c-8.291 0-15 6.709-15 15s6.709 15 15 15h61c8.291 0 15-6.709 15-15zm406-15h-61c-8.291 0-15 6.709-15 15s6.709 15 15 15h61c8.291 0 15-6.709 15-15s-6.709-15-15-15zm-378.871 131.675-42.451 42.422c-5.859 5.845-5.859 15.352 0 21.211 5.86 5.859 15.352 5.859 21.211 0l42.451-42.422c5.859-5.845 5.859-15.352 0-21.211s-15.352-5.86-21.211 0zm275.742-233.35 42.451-42.422c5.859-5.845 5.859-15.352 0-21.211s-15.352-5.859-21.211 0l-42.451 42.422c-5.859 5.845-5.859 15.352 0 21.211 5.86 5.86 15.352 5.859 21.211 0z" fill="url(#SVGID_2_)"/></g></g></g></g></svg>