<svg id="Capa_1" enable-background="new 0 0 512.002 512.002" height="512" viewBox="0 0 512.002 512.002" width="512" xmlns="http://www.w3.org/2000/svg" xmlns:xlink="http://www.w3.org/1999/xlink"><linearGradient id="SVGID_1_" gradientUnits="userSpaceOnUse" x1="256.001" x2="256.001" y1="421.001" y2="106.001"><stop offset="0" stop-color="#c3ffe8"/><stop offset=".9973" stop-color="#f0fff4"/></linearGradient><linearGradient id="SVGID_2_" gradientUnits="userSpaceOnUse" x1="256.001" x2="256.001" y1="301.001" y2="91.001"><stop offset="0" stop-color="#00b59c"/><stop offset="1" stop-color="#9cffac"/></linearGradient><g id="Mail"><g><path d="m512.001 106.001v300c0 8.284-6.716 15-15 15h-482c-8.284 0-15-6.716-15-15v-300z" fill="url(#SVGID_1_)"/></g><g><path d="m256.001 301.001c-23.56 0-46.395-8.444-64.297-23.777l-186.465-159.835c-4.767-4.085-6.484-10.706-4.307-16.593s7.791-9.796 14.068-9.796h482c6.277 0 11.891 3.908 14.068 9.796 2.178 5.887.46 12.508-4.307 16.593l-186.46 159.83c-17.906 15.338-40.741 23.782-64.3 23.782z" fill="url(#SVGID_2_)"/></g></g></svg>