<svg id="Capa_1" enable-background="new 0 0 512 512" height="512" viewBox="0 0 512 512" width="512" xmlns="http://www.w3.org/2000/svg" xmlns:xlink="http://www.w3.org/1999/xlink"><linearGradient id="SVGID_1_" gradientUnits="userSpaceOnUse" x1="256" x2="256" y1="507.83" y2="25.277"><stop offset="0" stop-color="#addcff"/><stop offset=".5028" stop-color="#eaf6ff"/><stop offset="1" stop-color="#eaf6ff"/></linearGradient><linearGradient id="SVGID_2_" gradientUnits="userSpaceOnUse" x1="256" x2="256" y1="331" y2="121"><stop offset="0" stop-color="#5558ff"/><stop offset="1" stop-color="#00c0ff"/></linearGradient><g><path d="m407 0h-302c-8.284 0-15 6.716-15 15v121h332v-121c0-8.284-6.716-15-15-15z" fill="url(#SVGID_1_)"/><path d="m497 121h-482c-8.284 0-15 6.716-15 15v180c0 8.284 6.716 15 15 15h482c8.284 0 15-6.716 15-15v-180c0-8.284-6.716-15-15-15z" fill="url(#SVGID_2_)"/><path d="m407 512h-302c-8.284 0-15-6.716-15-15v-241c0-8.284 6.716-15 15-15h302c8.284 0 15 6.716 15 15v241c0 8.284-6.716 15-15 15z" fill="url(#SVGID_1_)"/><circle cx="437" cy="196" fill="#edf5ff" r="15"/><g fill="#fff"><path d="m317 361h-122c-8.284 0-15-6.716-15-15s6.716-15 15-15h122c8.284 0 15 6.716 15 15s-6.716 15-15 15z"/><path d="m317 421h-122c-8.284 0-15-6.716-15-15s6.716-15 15-15h122c8.284 0 15 6.716 15 15s-6.716 15-15 15z"/></g></g></svg>