<svg id="Capa_1" enable-background="new 0 0 512 512" height="512" viewBox="0 0 512 512" width="512" xmlns="http://www.w3.org/2000/svg" xmlns:xlink="http://www.w3.org/1999/xlink"><linearGradient id="lg1"><stop offset="0" stop-color="#addcff"/><stop offset=".5028" stop-color="#eaf6ff"/><stop offset="1" stop-color="#eaf6ff"/></linearGradient><linearGradient id="SVGID_1_" gradientUnits="userSpaceOnUse" x1="256" x2="256" xlink:href="#lg1" y1="181" y2="61"/><linearGradient id="SVGID_2_" gradientUnits="userSpaceOnUse" x1="256" x2="256" y1="451" y2="91"><stop offset="0" stop-color="#5558ff"/><stop offset="1" stop-color="#00c0ff"/></linearGradient><linearGradient id="SVGID_3_" gradientUnits="userSpaceOnUse" x1="256" x2="256" xlink:href="#lg1" y1="451" y2="241"/><g><path d="m497 61h-482c-8.401 0-15 6.599-15 15v75l30 30h452l30-30v-75c0-8.401-6.599-15-15-15z" fill="url(#SVGID_1_)"/><g><g><g><path d="m76 121c8.284 0 15-6.716 15-15s-6.716-15-15-15-15 6.716-15 15 6.716 15 15 15zm60 0c8.284 0 15-6.716 15-15s-6.716-15-15-15-15 6.716-15 15 6.716 15 15 15zm60 0c8.284 0 15-6.716 15-15s-6.716-15-15-15-15 6.716-15 15 6.716 15 15 15zm-196 30v285c0 8.401 6.599 15 15 15h82.301c-2.814-9.849-4.333-19.883-5.261-30h30.289c1.19 10.21 3.144 20.33 6.771 30h54.6c-1.199-9.6-1.399-19.865-1.8-30h29.568c.419 10.21 1.121 20.33 2.531 30h84.001c1.41-9.67 2.111-19.79 2.531-30h29.568c-.401 10.135-.601 20.4-1.8 30h54.9c3.44-9.514 5.343-19.669 6.508-30h30.264c-.923 10.239-2.445 20.306-5.272 30h82.301c8.401 0 15-6.599 15-15v-285z" fill="url(#SVGID_2_)"/></g></g><g><g><path d="m407.5 340.6c-.3-.3-.3-.601-.3-.901-.298-.599-.899-1.199-1.199-2.1-26.101-56.999-83.402-96.599-150.001-96.599s-123.9 39.6-150 96.599c-.3.901-.901 1.501-1.199 2.1 0 .3 0 .601-.3.901-8.702 19.799-13.501 42.299-13.501 65.4 0 15.3 2.1 30.3 6.301 45h31.8c-5.4-14.399-8.101-29.7-8.101-45 0-15.901 2.701-30.901 7.8-45h54.9c-1.8 14.7-2.701 30-2.701 45 0 15.3.901 30.601 2.701 45h30.299c-2.098-14.399-2.999-29.7-2.999-45 0-16.199.901-31.199 2.999-45h84.001c2.098 13.801 2.999 28.801 2.999 45 0 15.3-.901 30.601-2.999 45h30.299c1.8-14.399 2.701-29.7 2.701-45 0-15-.901-30.3-2.701-45h54.9c5.1 14.099 7.8 29.099 7.8 45 0 15.601-2.701 30.901-7.8 45h31.5c4.201-14.399 6.301-29.399 6.301-45 0-23.101-4.799-45.601-13.5-65.4zm-218.7-9.6h-45c15.3-22.5 36.899-40.201 62.4-50.4-7.499 14.099-13.199 31.5-17.4 50.4zm30.601 0c9.3-38.101 24.598-60 36.599-60s27.299 21.899 36.599 60zm103.799 0c-4.2-18.9-9.9-36.301-17.4-50.4 25.501 10.199 47.1 27.9 62.4 50.4z" fill="url(#SVGID_3_)"/></g></g></g></g></svg>