<svg id="Capa_1" enable-background="new 0 0 512.007 512.007" height="512" viewBox="0 0 512.007 512.007" width="512" xmlns="http://www.w3.org/2000/svg" xmlns:xlink="http://www.w3.org/1999/xlink"><linearGradient id="SVGID_1_" gradientUnits="userSpaceOnUse" x1="256.004" x2="256.004" y1="512.007" y2="0"><stop offset="0" stop-color="#00b59c"/><stop offset="1" stop-color="#9cffac"/></linearGradient><linearGradient id="SVGID_2_" gradientUnits="userSpaceOnUse" x1="256.004" x2="256.004" y1="422.007" y2="92.242"><stop offset="0" stop-color="#c3ffe8"/><stop offset=".9973" stop-color="#f0fff4"/></linearGradient><g id="Shield_1_"><g><path d="m256.004 512.007c-1.611 0-3.193-.264-4.746-.776-113.789-37.925-190.254-144.009-190.254-263.965v-172.259c0-8.291 6.709-15 15-15 87.246 0 143.379-38.232 167.373-54.565l4.307-2.915c5.039-3.369 11.602-3.369 16.641 0l4.277 2.9c21.943 14.927 80.156 54.58 167.402 54.58 8.291 0 15 6.709 15 15v172.259c0 119.956-76.465 226.04-190.254 263.965-1.553.513-3.135.776-4.746.776z" fill="url(#SVGID_1_)"/></g><path d="m361.004 257.007c0-53.892-84.229-149.312-93.838-160.02-5.684-6.328-16.641-6.328-22.324 0-9.609 10.708-93.838 106.128-93.838 160.02 0 52.755 39.25 96.127 90 103.484v46.516c0 8.291 6.709 15 15 15s15-6.709 15-15v-46.516c50.749-7.357 90-50.729 90-103.484z" fill="url(#SVGID_2_)"/></g></svg>