<svg id="Capa_1" enable-background="new 0 0 512 512" height="512" viewBox="0 0 512 512" width="512" xmlns="http://www.w3.org/2000/svg" xmlns:xlink="http://www.w3.org/1999/xlink"><linearGradient id="lg1"><stop offset="0" stop-color="#ffedad"/><stop offset="1" stop-color="#ffffe5"/></linearGradient><linearGradient id="SVGID_1_" gradientUnits="userSpaceOnUse" x1="61" x2="61" xlink:href="#lg1" y1="121" y2="0"/><linearGradient id="SVGID_2_" gradientUnits="userSpaceOnUse" x1="181" x2="181" xlink:href="#lg1" y1="121" y2="0"/><linearGradient id="lg2"><stop offset="0" stop-color="#fd5900"/><stop offset="1" stop-color="#ffde00"/></linearGradient><linearGradient id="SVGID_3_" gradientUnits="userSpaceOnUse" x1="391" x2="391" xlink:href="#lg2" y1="270" y2=".234"/><linearGradient id="SVGID_4_" gradientUnits="userSpaceOnUse" x1="256" x2="256" xlink:href="#lg1" y1="512" y2="150"/><linearGradient id="SVGID_5_" gradientUnits="userSpaceOnUse" x1="121" x2="121" xlink:href="#lg2" y1="271" y2="91"/><g><g id="Plug_1_"><g><path d="m61 121c-8.291 0-15-6.709-15-15v-91c0-8.291 6.709-15 15-15s15 6.709 15 15v91c0 8.291-6.709 15-15 15z" fill="url(#SVGID_1_)"/></g><g><path d="m181 121c-8.291 0-15-6.709-15-15v-91c0-8.291 6.709-15 15-15s15 6.709 15 15v91c0 8.291-6.709 15-15 15z" fill="url(#SVGID_2_)"/></g><g><path d="m391 270c-57.891 0-105-47.109-105-105 0-53.892 84.229-149.312 93.838-160.02 5.684-6.328 16.641-6.328 22.324 0 9.609 10.708 93.838 106.128 93.838 160.02 0 57.891-47.109 105-105 105z" fill="url(#SVGID_3_)"/></g><g><path d="m256 512c-82.705 0-150-67.295-150-150v-106c0-8.291 6.709-15 15-15s15 6.709 15 15v106c0 66.167 53.818 120 120 120s120-53.833 120-120v-197c0-8.291 6.709-15 15-15s15 6.709 15 15v197c0 82.705-67.295 150-150 150z" fill="url(#SVGID_4_)"/></g></g><g><path d="m121 271c-57.891 0-105-47.109-105-105v-60c0-8.291 6.709-15 15-15h180c8.291 0 15 6.709 15 15v60c0 57.891-47.109 105-105 105z" fill="url(#SVGID_5_)"/></g></g></svg>