<svg id="Capa_1" enable-background="new 0 0 512 512" height="512" viewBox="0 0 512 512" width="512" xmlns="http://www.w3.org/2000/svg" xmlns:xlink="http://www.w3.org/1999/xlink"><linearGradient id="SVGID_1_" gradientUnits="userSpaceOnUse" x1="200.684" x2="200.684" y1="151.016" y2="30.984"><stop offset="0" stop-color="#ffedad"/><stop offset="1" stop-color="#ffffe5"/></linearGradient><linearGradient id="lg1"><stop offset="0" stop-color="#fd5900"/><stop offset="1" stop-color="#ffde00"/></linearGradient><linearGradient id="SVGID_2_" gradientUnits="userSpaceOnUse" x1="241" x2="241" xlink:href="#lg1" y1="481.016" y2="121.016"/><linearGradient id="SVGID_3_" gradientUnits="userSpaceOnUse" x1="421" x2="421" y1="361.016" y2="241.016"><stop offset="0" stop-color="#ffe59a"/><stop offset="1" stop-color="#ffffd5"/></linearGradient><linearGradient id="SVGID_4_" gradientUnits="userSpaceOnUse" x1="452" x2="452" xlink:href="#lg1" y1="316.016" y2="286.016"/><g><g><path d="m11.367 121.47 360-90c4.468-1.201 9.199-.132 12.861 2.725 3.647 2.842 5.771 7.207 5.771 11.821v90c0 8.291-6.709 15-15 15h-359.999z" fill="url(#SVGID_1_)"/></g><g><g id="Wallet_1_"><g><g><path d="m467 271.016c8.291 0 15-6.709 15-15v-120c0-8.291-6.709-15-15-15h-452c-8.291 0-15 6.709-15 15v330c0 8.291 6.709 15 15 15h452c8.291 0 15-6.709 15-15v-120c0-8.291-6.709-15-15-15h-107v-60z" fill="url(#SVGID_2_)"/></g></g></g></g><g><g><path d="m497 241.016h-152c-8.291 0-15 6.709-15 15v90c0 8.291 6.709 15 15 15h152c8.291 0 15-6.709 15-15v-90c0-8.291-6.709-15-15-15z" fill="url(#SVGID_3_)"/></g></g><g><circle cx="452" cy="301.016" fill="url(#SVGID_4_)" r="15"/></g></g></svg>