<svg id="Capa_1" enable-background="new 0 0 512 512" height="512" viewBox="0 0 512 512" width="512" xmlns="http://www.w3.org/2000/svg" xmlns:xlink="http://www.w3.org/1999/xlink"><linearGradient id="SVGID_1_" gradientUnits="userSpaceOnUse" x1="256" x2="256" y1="497" y2="0"><stop offset="0" stop-color="#fd5900"/><stop offset="1" stop-color="#ffde00"/></linearGradient><linearGradient id="SVGID_2_" gradientUnits="userSpaceOnUse" x1="256" x2="256" y1="512" y2="75"><stop offset="0" stop-color="#ffe59a"/><stop offset="1" stop-color="#ffffd5"/></linearGradient><g><g><g><path d="m256 0c-57.891 0-105 47.109-105 105v151c0 57.891 47.109 105 105 105s105-47.109 105-105v-151c0-57.891-47.109-105-105-105zm0 406c-22.732 0-36.486-4.107-44.7-6-.467 1.399-.3-4.639-.3 97h90c0-100.564.161-95.621-.3-97-12.599 2.904-24.117 6-44.7 6z" fill="url(#SVGID_1_)"/></g></g><g><g><path d="m226 165c8.284 0 15-6.716 15-15s-6.716-15-15-15-15 6.716-15 15 6.716 15 15 15zm60 0c8.284 0 15-6.716 15-15s-6.716-15-15-15-15 6.716-15 15 6.716 15 15 15zm-60-60c8.284 0 15-6.716 15-15s-6.716-15-15-15-15 6.716-15 15 6.716 15 15 15zm60 0c8.284 0 15-6.716 15-15s-6.716-15-15-15-15 6.716-15 15 6.716 15 15 15zm120 106h-300c-8.291 0-15 6.709-15 15v30c0 89.057 71.904 165 165 165 92.487 0 165-75.433 165-165v-30c0-8.291-6.709-15-15-15zm-15 45c0 64.043-45.41 119.678-108.193 132.334-16.172 3.545-37.207 3.589-53.848-.044-62.549-12.612-107.959-68.247-107.959-132.29v-15h270zm-15 226h-240c-8.291 0-15 6.709-15 15s6.709 15 15 15h240c8.291 0 15-6.709 15-15s-6.709-15-15-15z" fill="url(#SVGID_2_)"/></g></g></g></svg>