<svg id="Capa_1" enable-background="new 0 0 512 512" height="512" viewBox="0 0 512 512" width="512" xmlns="http://www.w3.org/2000/svg" xmlns:xlink="http://www.w3.org/1999/xlink"><linearGradient id="SVGID_1_" gradientUnits="userSpaceOnUse" x1="256.272" x2="256.272" y1="507.607" y2="4.393"><stop offset="0" stop-color="#ffffd5"/><stop offset="1" stop-color="#ffe59a"/></linearGradient><linearGradient id="lg1"><stop offset="0" stop-color="#fd5900"/><stop offset="1" stop-color="#ffde00"/></linearGradient><linearGradient id="SVGID_2_" gradientUnits="userSpaceOnUse" x1="256" x2="256" xlink:href="#lg1" y1="512" y2="391"/><linearGradient id="SVGID_3_" gradientUnits="userSpaceOnUse" x1="256" x2="256" xlink:href="#lg1" y1="186.284" y2="-71.703"/><g><path d="m327.133 315.913c-15.903-12.886-30.925-25.057-41.623-36.266-11.993-12.564-14.51-19.794-14.51-23.647s2.517-11.083 14.51-23.648c10.698-11.208 25.72-23.38 41.623-36.266 42.053-34.073 89.716-72.692 92.227-120.733 1.279-24.472-9.539-48.346-32.153-70.961h-261.813c-22.637 22.638-33.475 46.535-32.213 71.028 2.474 48.017 49.977 86.624 91.888 120.687 15.846 12.878 30.813 25.042 41.471 36.244 11.951 12.56 14.46 19.793 14.46 23.649s-2.509 11.089-14.459 23.649c-10.659 11.202-25.625 23.366-41.471 36.244-41.911 34.063-89.415 72.67-91.888 120.687-1.262 24.494 9.576 48.39 32.212 71.027h261.813c22.615-22.615 33.433-46.489 32.153-70.961-2.511-48.04-50.174-86.66-92.227-120.733z" fill="url(#SVGID_1_)"/><path d="m436 482h-65.835c13.671-14.984 19.991-29.355 19.235-43.79-.912-17.508-12.152-34.047-23.71-47.21h-219.01c-11.513 13.202-22.625 29.651-23.54 47.12-.747 14.474 5.592 28.875 19.292 43.88h-66.432c-8.284 0-15 6.716-15 15s6.716 15 15 15h360c8.284 0 15-6.716 15-15s-6.716-15-15-15z" fill="url(#SVGID_2_)"/><path d="m436 30h-360c-8.284 0-15-6.716-15-15s6.716-15 15-15h360c8.284 0 15 6.716 15 15s-6.716 15-15 15z" fill="url(#SVGID_3_)"/></g></svg>