<svg id="Capa_1" enable-background="new 0 0 512 512" height="512" viewBox="0 0 512 512" width="512" xmlns="http://www.w3.org/2000/svg" xmlns:xlink="http://www.w3.org/1999/xlink"><linearGradient id="SVGID_1_" gradientUnits="userSpaceOnUse" x1="256" x2="256" y1="451" y2="61"><stop offset="0" stop-color="#fd3a84"/><stop offset="1" stop-color="#ffa68d"/></linearGradient><linearGradient id="SVGID_2_" gradientUnits="userSpaceOnUse" x1="256" x2="256" y1="512" y2="0"><stop offset="0" stop-color="#ffc2cc"/><stop offset="1" stop-color="#fff2f4"/></linearGradient><g><g><path d="m256 451c-107.52 0-195-87.48-195-195s87.48-195 195-195 195 87.48 195 195-87.48 195-195 195z" fill="url(#SVGID_1_)"/></g><g><g><path d="m256 241c-8.284 0-15 6.714-15 15 0 8.284 6.716 15 15 15s15-6.716 15-15c0-8.286-6.716-15-15-15zm241 0h-137.516c-6.641-45.807-42.676-81.843-88.484-88.484v-137.516c0-8.291-6.709-15-15-15s-15 6.709-15 15v137.516c-45.807 6.641-81.843 42.676-88.484 88.484h-137.516c-8.291 0-15 6.709-15 15s6.709 15 15 15h137.516c6.641 45.807 42.676 81.843 88.484 88.484v137.516c0 8.291 6.709 15 15 15s15-6.709 15-15v-137.516c45.807-6.641 81.843-42.676 88.484-88.484h137.516c8.291 0 15-6.709 15-15s-6.709-15-15-15zm-181 30h13.482c-5.98 29.343-29.139 52.502-58.482 58.482v-13.482c0-8.291-6.709-15-15-15s-15 6.709-15 15v13.482c-29.343-5.98-52.502-29.139-58.482-58.482h13.482c8.291 0 15-6.709 15-15s-6.709-15-15-15h-13.482c5.98-29.343 29.139-52.502 58.482-58.482v13.482c0 8.291 6.709 15 15 15s15-6.709 15-15v-13.482c29.343 5.98 52.502 29.139 58.482 58.482h-13.482c-8.291 0-15 6.709-15 15s6.709 15 15 15z" fill="url(#SVGID_2_)"/></g></g></g></svg>