<svg id="Capa_1" enable-background="new 0 0 511.766 511.766" height="512" viewBox="0 0 511.766 511.766" width="512" xmlns="http://www.w3.org/2000/svg" xmlns:xlink="http://www.w3.org/1999/xlink"><linearGradient id="SVGID_1_" gradientUnits="userSpaceOnUse" x1="255.883" x2="255.883" y1="511.766" y2="301.766"><stop offset="0" stop-color="#c3ffe8"/><stop offset=".9973" stop-color="#f0fff4"/></linearGradient><linearGradient id="SVGID_2_" gradientUnits="userSpaceOnUse" x1="240.883" x2="240.883" y1="451.766" y2="0"><stop offset="0" stop-color="#00b59c"/><stop offset="1" stop-color="#9cffac"/></linearGradient><g><g id="Battery_3_"><g><path d="m420.883 511.766h-360c-8.291 0-15-6.709-15-15v-180c0-8.291 6.709-15 15-15h360c8.291 0 15 6.709 15 15v45h15c8.291 0 15 6.709 15 15v60c0 8.291-6.709 15-15 15h-15v45c0 8.291-6.709 15-15 15z" fill="url(#SVGID_1_)"/></g><g><g><path d="m255.883 268.25v48.516c0 8.291 6.709 15 15 15s15-6.709 15-15v-48.516c50.75-7.357 90-50.729 90-103.484 0-53.892-84.229-149.312-93.838-160.02-5.684-6.328-16.641-6.328-22.324 0-9.609 10.708-93.838 106.128-93.838 160.02 0 52.754 39.25 96.126 90 103.484zm75 93.516h-210c-8.291 0-15 6.709-15 15v60c0 8.291 6.709 15 15 15h210c8.291 0 15-6.709 15-15v-60c0-8.291-6.709-15-15-15z" fill="url(#SVGID_2_)"/></g></g></g></g></svg>