<svg id="Capa_1" enable-background="new 0 0 512 512" height="512" viewBox="0 0 512 512" width="512" xmlns="http://www.w3.org/2000/svg" xmlns:xlink="http://www.w3.org/1999/xlink"><linearGradient id="SVGID_1_" gradientUnits="userSpaceOnUse" x1="256" x2="256" y1="497" y2="75"><stop offset="0" stop-color="#ffc2cc"/><stop offset="1" stop-color="#fff2f4"/></linearGradient><linearGradient id="SVGID_2_" gradientUnits="userSpaceOnUse" x1="256" x2="256" y1="512" y2="0"><stop offset="0" stop-color="#fd3a84"/><stop offset="1" stop-color="#ffa68d"/></linearGradient><g><g><g><path d="m256 345c74.443 0 135-60.557 135-135s-60.557-135-135-135-135 60.557-135 135 60.557 135 135 135zm63.3 33.3c-40.199 15.3-85.8 15.601-126.299 0-7.5-2.701-15.601.601-18.9 7.8-51.819 113.893-49.501 105.434-49.501 110.9h266.4c0-6.192-.238-2.89-52.8-111.2-3.6-6.9-11.701-10.201-18.9-7.5z" fill="url(#SVGID_1_)"/></g></g><g><g><path d="m256 255c24.902 0 45-20.101 45-45 0-24.901-20.098-45-45-45s-45 20.099-45 45c0 24.899 20.098 45 45 45zm0 165c116.834 0 210-95.932 210-210 0-115.8-94.2-210-210-210s-210 94.2-210 210c0 114.547 93.857 210 210 210zm0-315c57.898 0 105 47.1 105 105s-47.102 105-105 105-105-47.1-105-105 47.102-105 105-105zm153.604 377h-303.604c-8.291 0-15 6.709-15 15s6.709 15 15 15h303.604c8.291 0 15-6.709 15-15s-6.709-15-15-15z" fill="url(#SVGID_2_)"/></g></g></g></svg>