<svg id="Capa_1" enable-background="new 0 0 512 512" height="512" viewBox="0 0 512 512" width="512" xmlns="http://www.w3.org/2000/svg" xmlns:xlink="http://www.w3.org/1999/xlink"><linearGradient id="lg1"><stop offset="0" stop-color="#fd3a84"/><stop offset="1" stop-color="#ffa68d"/></linearGradient><linearGradient id="SVGID_1_" gradientUnits="userSpaceOnUse" x1="398.149" x2="398.149" xlink:href="#lg1" y1="511.999" y2="284.299"/><linearGradient id="lg2"><stop offset="0" stop-color="#ffc2cc"/><stop offset="1" stop-color="#fff2f4"/></linearGradient><linearGradient id="SVGID_2_" gradientUnits="userSpaceOnUse" x1="195" x2="195" xlink:href="#lg2" y1="390.001" y2=".001"/><linearGradient id="SVGID_3_" gradientUnits="userSpaceOnUse" x1="195" x2="195" xlink:href="#lg1" y1="360.001" y2="30.001"/><linearGradient id="SVGID_4_" gradientUnits="userSpaceOnUse" x1="195" x2="195" xlink:href="#lg2" y1="210.001" y2="180.001"/><g><path d="m507.606 443.972-155.279-155.28c-5.857-5.858-15.355-5.858-21.213 0l-42.422 42.422c-5.858 5.858-5.858 15.355 0 21.213l155.279 155.28c5.854 5.854 15.356 5.857 21.213 0l42.422-42.422c5.858-5.857 5.858-15.355 0-21.213z" fill="url(#SVGID_1_)"/><path d="m195 390.001c-107.523 0-195-87.477-195-195s87.477-195 195-195 195 87.477 195 195-87.477 195-195 195z" fill="url(#SVGID_2_)"/><path d="m195 30.001c-90.981 0-165 74.019-165 165s74.019 165 165 165 165-74.019 165-165-74.019-165-165-165z" fill="url(#SVGID_3_)"/><path d="m255 210.001h-120c-8.284 0-15-6.716-15-15s6.716-15 15-15h120c8.284 0 15 6.716 15 15s-6.716 15-15 15z" fill="url(#SVGID_4_)"/></g></svg>