<svg id="Capa_1" enable-background="new 0 0 512 512" height="512" viewBox="0 0 512 512" width="512" xmlns="http://www.w3.org/2000/svg" xmlns:xlink="http://www.w3.org/1999/xlink"><linearGradient id="SVGID_1_" gradientUnits="userSpaceOnUse" x1="256" x2="256" y1="512" y2="0"><stop offset="0" stop-color="#5558ff"/><stop offset="1" stop-color="#00c0ff"/></linearGradient><linearGradient id="SVGID_2_" gradientUnits="userSpaceOnUse" x1="203.562" x2="203.562" y1="512" y2="0"><stop offset="0" stop-color="#addcff"/><stop offset=".5028" stop-color="#eaf6ff"/><stop offset="1" stop-color="#eaf6ff"/></linearGradient><g><g><g><path d="m165.353 181h.709l30-91-30-90h-16.201c-51.599 0-95.098 36.599-103.498 87.299-6.9 41.701-15.301 105.401-15.301 168.701s8.401 127 15.3 168.699c8.401 50.7 51.9 87.301 103.499 87.301h16.201l30-90-30-91h-.021c-6.317 0-11.584-4.839-12.135-11.132-1.958-22.363-2.844-43.779-2.844-63.868 0-20.069.907-41.722 2.914-64.567.52-5.909 5.445-10.433 11.377-10.433zm249.821-99.097c-5.859-5.859-15.352-5.859-21.211 0s-5.859 15.352 0 21.211c75.996 76.025 75.996 199.746 0 275.771-5.859 5.859-5.859 15.352 0 21.211 5.86 5.859 15.352 5.859 21.211 0 87.685-87.729 87.685-230.463 0-318.193zm-42.452 42.422c-5.859-5.859-15.352-5.859-21.211 0s-5.859 15.352 0 21.211c25.459 25.459 39.492 59.355 39.492 95.464s-14.033 70.005-39.492 95.464c-5.859 5.859-5.859 15.352 0 21.211 5.86 5.859 15.352 5.859 21.211 0 31.143-31.113 48.281-72.554 48.281-116.675s-17.138-85.562-48.281-116.675zm-42.421 42.437c-5.859-5.859-15.352-5.859-21.211 0s-5.859 15.352 0 21.211c14.15 14.136 21.914 32.974 21.914 53.027s-7.764 38.892-21.914 53.027c-5.859 5.859-5.859 15.352 0 21.211 5.86 5.859 15.352 5.859 21.211 0 19.805-19.805 30.703-46.157 30.703-74.238s-10.899-54.434-30.703-74.238z" fill="url(#SVGID_1_)"/></g></g><g><g><path d="m226.062 331h-60v181h60c8.401 0 15-6.601 15-15v-151c0-8.401-6.599-15-15-15zm0-331h-60v181h60c8.401 0 15-6.601 15-15v-151c0-8.401-6.599-15-15-15z" fill="url(#SVGID_2_)"/></g></g></g></svg>