<svg id="Capa_1" enable-background="new 0 0 512 512" height="512" viewBox="0 0 512 512" width="512" xmlns="http://www.w3.org/2000/svg" xmlns:xlink="http://www.w3.org/1999/xlink"><linearGradient id="SVGID_1_" gradientUnits="userSpaceOnUse" x1="256" x2="256" y1="512" y2="0"><stop offset="0" stop-color="#fd5900"/><stop offset="1" stop-color="#ffde00"/></linearGradient><linearGradient id="SVGID_2_" gradientUnits="userSpaceOnUse" x1="256.988" x2="256.988" y1="512" y2="180.374"><stop offset="0" stop-color="#ffedad"/><stop offset="1" stop-color="#ffffe5"/></linearGradient><g><path d="m507.499 244.499-241-240c-5.7-5.999-15.298-5.999-20.999 0l-241 240c-6 5.7-6 15.3 0 21 5.4 6 15.599 6 20.999 0l4.501-4.2v235.701c0 8.399 6.599 15 15 15h196l15-31 15 31h196c8.401 0 15-6.601 15-15v-235.701l4.501 4.2c5.4 6 15.599 6 20.999 0 6-5.7 6-15.3-.001-21z" fill="url(#SVGID_1_)"/><path d="m361.988 345c0 52.8-39.3 96-90 103.5v63.5h-30v-63.5c-50.7-7.5-90-50.7-90-103.5 0-54 84.3-149.401 93.9-159.901 5.7-6.301 16.5-6.301 22.2 0 9.6 10.5 93.9 105.901 93.9 159.901z" fill="url(#SVGID_2_)"/></g></svg>