<svg id="Capa_1" enable-background="new 0 0 512 512" height="512" viewBox="0 0 512 512" width="512" xmlns="http://www.w3.org/2000/svg" xmlns:xlink="http://www.w3.org/1999/xlink"><linearGradient id="lg1"><stop offset="0" stop-color="#5558ff"/><stop offset="1" stop-color="#00c0ff"/></linearGradient><linearGradient id="SVGID_1_" gradientUnits="userSpaceOnUse" x1="76" x2="76" xlink:href="#lg1" y1="497" y2="240"/><linearGradient id="SVGID_2_" gradientUnits="userSpaceOnUse" x1="196" x2="196" xlink:href="#lg1" y1="497" y2="330"/><linearGradient id="SVGID_3_" gradientUnits="userSpaceOnUse" x1="316" x2="316" xlink:href="#lg1" y1="497" y2="240"/><linearGradient id="SVGID_4_" gradientUnits="userSpaceOnUse" x1="436" x2="436" xlink:href="#lg1" y1="497" y2="150"/><linearGradient id="SVGID_5_" gradientUnits="userSpaceOnUse" x1="256" x2="256" y1="512" y2="0"><stop offset="0" stop-color="#addcff"/><stop offset=".5028" stop-color="#eaf6ff"/><stop offset="1" stop-color="#eaf6ff"/></linearGradient><g><path d="m121 497v-242c0-8.401-6.599-15-15-15h-60c-8.401 0-15 6.599-15 15v242z" fill="url(#SVGID_1_)"/><path d="m241 497v-152c0-8.401-6.599-15-15-15h-60c-8.401 0-15 6.599-15 15v152z" fill="url(#SVGID_2_)"/><path d="m361 497v-242c0-8.401-6.599-15-15-15h-60c-8.401 0-15 6.599-15 15v242z" fill="url(#SVGID_3_)"/><path d="m481 497v-332c0-8.401-6.599-15-15-15h-60c-8.401 0-15 6.599-15 15v332z" fill="url(#SVGID_4_)"/><g><g><g><path d="m185.395 265.605c2.93 2.93 6.768 4.395 10.605 4.395s7.676-1.465 10.605-4.395l214.395-214.394v23.789c0 8.291 6.709 15 15 15s15-6.709 15-15v-60c0-8.206-6.727-15-15-15h-60c-8.291 0-15 6.709-15 15s6.709 15 15 15h23.789l-203.789 203.789-109.395-109.394c-5.859-5.859-15.352-5.859-21.211 0s-5.859 15.352 0 21.211zm311.605 216.395h-482c-8.401 0-15 6.599-15 15 0 8.399 6.599 15 15 15h482c8.401 0 15-6.601 15-15 0-8.401-6.599-15-15-15z" fill="url(#SVGID_5_)"/></g></g></g></g></svg>