<svg id="Capa_1" enable-background="new 0 0 511.766 511.766" height="512" viewBox="0 0 511.766 511.766" width="512" xmlns="http://www.w3.org/2000/svg" xmlns:xlink="http://www.w3.org/1999/xlink"><linearGradient id="SVGID_1_" gradientUnits="userSpaceOnUse" x1="255.883" x2="255.883" y1="511.766" y2="0"><stop offset="0" stop-color="#fd3a84"/><stop offset="1" stop-color="#ffa68d"/></linearGradient><linearGradient id="SVGID_2_" gradientUnits="userSpaceOnUse" x1="255.883" x2="255.883" y1="451.766" y2="122"><stop offset="0" stop-color="#ffc8d1"/><stop offset="1" stop-color="#fff6f7"/></linearGradient><g><g><path d="m255.883 511.766c-107.52 0-195-87.48-195-195 0-103.945 176.338-303.655 183.838-312.02 5.684-6.328 16.641-6.328 22.324 0 7.5 8.364 183.838 208.074 183.838 312.02 0 107.519-87.481 195-195 195z" fill="url(#SVGID_1_)"/></g><path d="m360.883 286.766c0-53.892-84.229-149.312-93.838-160.02-5.684-6.328-16.641-6.328-22.324 0-9.609 10.708-93.838 106.128-93.838 160.02 0 52.755 39.25 96.127 90 103.484v46.516c0 8.291 6.709 15 15 15s15-6.709 15-15v-46.516c50.749-7.358 90-50.73 90-103.484z" fill="url(#SVGID_2_)"/></g></svg>