<svg id="Capa_1" enable-background="new 0 0 510 510" height="512" viewBox="0 0 510 510" width="512" xmlns="http://www.w3.org/2000/svg" xmlns:xlink="http://www.w3.org/1999/xlink"><linearGradient id="lg1"><stop offset="0" stop-color="#fd3a84"/><stop offset="1" stop-color="#ffa68d"/></linearGradient><linearGradient id="SVGID_1_" gradientUnits="userSpaceOnUse" x1="255" x2="255" xlink:href="#lg1" y1="510" y2="240"/><linearGradient id="SVGID_2_" gradientUnits="userSpaceOnUse" x1="255" x2="255" xlink:href="#lg1" y1="150" y2="0"/><linearGradient id="SVGID_3_" gradientUnits="userSpaceOnUse" x1="255" x2="255" xlink:href="#lg1" y1="270" y2="120"/><linearGradient id="SVGID_4_" gradientUnits="userSpaceOnUse" x1="255" x2="255" y1="510" y2="120"><stop offset="0" stop-color="#ffc8d1"/><stop offset="1" stop-color="#fff6f7"/></linearGradient><g><g id="Gift_box_2_"><g><path d="m435 510h-360c-8.291 0-15-6.709-15-15v-240c0-8.291 6.709-15 15-15h360c8.291 0 15 6.709 15 15v240c0 8.291-6.709 15-15 15z" fill="url(#SVGID_1_)"/></g><g><path d="m255 150c-74.443 0-135-60.557-135-135 0-8.291 6.709-15 15-15 52.178 0 97.529 29.751 120 73.184 22.471-43.433 67.822-73.184 120-73.184 8.291 0 15 6.709 15 15 0 74.443-60.557 135-135 135z" fill="url(#SVGID_2_)"/></g></g><g><path d="m465 270h-420c-8.291 0-15-6.709-15-15v-120c0-8.291 6.709-15 15-15h420c8.291 0 15 6.709 15 15v120c0 8.291-6.709 15-15 15z" fill="url(#SVGID_3_)"/></g><g><path d="m300 510h-90v-390h90z" fill="url(#SVGID_4_)"/></g></g></svg>