<svg id="Capa_1" enable-background="new 0 0 512 512" height="512" viewBox="0 0 512 512" width="512" xmlns="http://www.w3.org/2000/svg" xmlns:xlink="http://www.w3.org/1999/xlink"><linearGradient id="lg1"><stop offset="0" stop-color="#addcff"/><stop offset=".5028" stop-color="#eaf6ff"/><stop offset="1" stop-color="#eaf6ff"/></linearGradient><linearGradient id="SVGID_1_" gradientUnits="userSpaceOnUse" x1="256" x2="256" xlink:href="#lg1" y1="392" y2="301"/><linearGradient id="SVGID_2_" gradientUnits="userSpaceOnUse" x1="256" x2="256" xlink:href="#lg1" y1="211" y2="120"/><linearGradient id="lg2"><stop offset="0" stop-color="#5558ff"/><stop offset="1" stop-color="#00c0ff"/></linearGradient><linearGradient id="SVGID_3_" gradientUnits="userSpaceOnUse" x1="256" x2="256" xlink:href="#lg2" y1="512" y2="362"/><linearGradient id="SVGID_4_" gradientUnits="userSpaceOnUse" x1="256" x2="256" xlink:href="#lg2" y1="331" y2="181"/><linearGradient id="SVGID_5_" gradientUnits="userSpaceOnUse" x1="256" x2="256" xlink:href="#lg2" y1="150" y2="0"/><linearGradient id="SVGID_6_" gradientUnits="userSpaceOnUse" x1="75" x2="75" xlink:href="#lg1" y1="452" y2="422"/><linearGradient id="SVGID_7_" gradientUnits="userSpaceOnUse" x1="135" x2="135" xlink:href="#lg1" y1="452" y2="422"/><linearGradient id="SVGID_8_" gradientUnits="userSpaceOnUse" x1="377" x2="377" xlink:href="#lg1" y1="452" y2="422"/><linearGradient id="SVGID_9_" gradientUnits="userSpaceOnUse" x1="75" x2="75" xlink:href="#lg1" y1="271" y2="241"/><linearGradient id="SVGID_10_" gradientUnits="userSpaceOnUse" x1="135" x2="135" xlink:href="#lg1" y1="271" y2="241"/><linearGradient id="SVGID_11_" gradientUnits="userSpaceOnUse" x1="75" x2="75" xlink:href="#lg1" y1="90" y2="60"/><linearGradient id="SVGID_12_" gradientUnits="userSpaceOnUse" x1="135" x2="135" xlink:href="#lg1" y1="90" y2="60"/><linearGradient id="SVGID_13_" gradientUnits="userSpaceOnUse" x1="377" x2="377" xlink:href="#lg1" y1="90" y2="60"/><linearGradient id="SVGID_14_" gradientUnits="userSpaceOnUse" x1="377" x2="377" xlink:href="#lg1" y1="271" y2="241"/><g><path d="m437 392h-362c-8.291 0-15-6.709-15-15v-61c0-8.291 6.709-15 15-15h362c8.291 0 15 6.709 15 15v61c0 8.291-6.709 15-15 15z" fill="url(#SVGID_1_)"/><path d="m437 211h-362c-8.291 0-15-6.709-15-15v-61c0-8.291 6.709-15 15-15h362c8.291 0 15 6.709 15 15v61c0 8.291-6.709 15-15 15z" fill="url(#SVGID_2_)"/><g><path d="m497 512h-482c-8.291 0-15-6.709-15-15v-120c0-8.291 6.709-15 15-15h482c8.291 0 15 6.709 15 15v120c0 8.291-6.709 15-15 15z" fill="url(#SVGID_3_)"/></g><g><path d="m497 331h-482c-8.291 0-15-6.709-15-15v-120c0-8.291 6.709-15 15-15h482c8.291 0 15 6.709 15 15v120c0 8.291-6.709 15-15 15z" fill="url(#SVGID_4_)"/></g><g><path d="m497 150h-482c-8.291 0-15-6.709-15-15v-120c0-8.291 6.709-15 15-15h482c8.291 0 15 6.709 15 15v120c0 8.291-6.709 15-15 15z" fill="url(#SVGID_5_)"/></g><g><g id="Server_1_"><g><circle cx="75" cy="437" fill="url(#SVGID_6_)" r="15"/></g><g><circle cx="135" cy="437" fill="url(#SVGID_7_)" r="15"/></g><g><path d="m437 452h-120c-8.291 0-15-6.709-15-15s6.709-15 15-15h120c8.291 0 15 6.709 15 15s-6.709 15-15 15z" fill="url(#SVGID_8_)"/></g><g><circle cx="75" cy="256" fill="url(#SVGID_9_)" r="15"/></g><g><circle cx="135" cy="256" fill="url(#SVGID_10_)" r="15"/></g><g><circle cx="75" cy="75" fill="url(#SVGID_11_)" r="15"/></g><g><circle cx="135" cy="75" fill="url(#SVGID_12_)" r="15"/></g><g><path d="m437 90h-120c-8.291 0-15-6.709-15-15s6.709-15 15-15h120c8.291 0 15 6.709 15 15s-6.709 15-15 15z" fill="url(#SVGID_13_)"/></g><g><path d="m437 271h-120c-8.291 0-15-6.709-15-15s6.709-15 15-15h120c8.291 0 15 6.709 15 15s-6.709 15-15 15z" fill="url(#SVGID_14_)"/></g></g></g></g></svg>