<svg id="Capa_1" enable-background="new 0 0 512 512" height="512" viewBox="0 0 512 512" width="512" xmlns="http://www.w3.org/2000/svg" xmlns:xlink="http://www.w3.org/1999/xlink"><linearGradient id="lg1"><stop offset="0" stop-color="#addcff"/><stop offset=".5028" stop-color="#eaf6ff"/><stop offset="1" stop-color="#eaf6ff"/></linearGradient><linearGradient id="SVGID_1_" gradientUnits="userSpaceOnUse" x1="478.744" x2="478.744" xlink:href="#lg1" y1="66.526" y2="0"/><linearGradient id="SVGID_2_" gradientUnits="userSpaceOnUse" x1="237.744" x2="237.744" y1="512" y2="36.526"><stop offset="0" stop-color="#5558ff"/><stop offset="1" stop-color="#00c0ff"/></linearGradient><linearGradient id="SVGID_3_" gradientUnits="userSpaceOnUse" x1="269.557" x2="269.557" xlink:href="#lg1" y1="363.509" y2="121.346"/><g><g><path d="m449.883 62.132c-5.859-5.859-5.859-15.352 0-21.211l36.512-36.526c5.859-5.859 15.352-5.859 21.211 0s5.859 15.352 0 21.211l-36.512 36.526c-5.859 5.859-15.352 5.859-21.211 0z" fill="url(#SVGID_1_)"/></g><g><path d="m227.139 512c-3.838 0-7.676-1.465-10.605-4.395l-212.139-212.138c-2.813-2.813-4.395-6.621-4.395-10.606s1.582-7.793 4.395-10.605l233.35-233.335c2.813-2.813 6.621-4.395 10.605-4.395h212.139c8.291 0 15 6.709 15 15v212.124c0 3.984-1.582 7.793-4.395 10.605l-233.35 233.35c-2.93 2.93-6.767 4.395-10.605 4.395z" fill="url(#SVGID_2_)"/></g><path d="m386.221 125.765c-2.988-3.018-6.768-4.702-11.426-4.38-14.355.791-141.387 8.701-179.473 46.816-19.834 19.834-30.762 46.201-30.762 74.238 0 22.956 7.661 44.566 21.189 62.609l-32.849 32.855c-5.859 5.859-5.859 15.352 0 21.211s15.352 5.859 21.211 0l32.845-32.849c18.027 13.524 39.637 21.174 62.604 21.174 28.037 0 54.404-10.913 74.238-30.747 38.115-38.115 46.025-165.146 46.787-179.517.235-4.247-1.347-8.407-4.364-11.41z" fill="url(#SVGID_3_)"/></g></svg>