<svg id="Capa_1" enable-background="new 0 0 512 512" height="512" viewBox="0 0 512 512" width="512" xmlns="http://www.w3.org/2000/svg" xmlns:xlink="http://www.w3.org/1999/xlink"><linearGradient id="lg1"><stop offset="0" stop-color="#ffe59a"/><stop offset="1" stop-color="#ffffd5"/></linearGradient><linearGradient id="SVGID_1_" gradientUnits="userSpaceOnUse" x1="256" x2="256" xlink:href="#lg1" y1="512" y2="406"/><linearGradient id="SVGID_2_" gradientUnits="userSpaceOnUse" x1="256" x2="256" y1="436" y2="0"><stop offset="0" stop-color="#fd5900"/><stop offset="1" stop-color="#ffde00"/></linearGradient><linearGradient id="SVGID_3_" gradientUnits="userSpaceOnUse" x1="256" x2="256" xlink:href="#lg1" y1="240" y2="120"/><linearGradient id="SVGID_4_" gradientUnits="userSpaceOnUse" x1="256" x2="256" xlink:href="#lg1" y1="300" y2="270"/><g><path d="m316 512h-120c-8.284 0-15-6.716-15-15v-76c0-8.284 6.716-15 15-15h120c8.284 0 15 6.716 15 15v76c0 8.284-6.716 15-15 15z" fill="url(#SVGID_1_)"/><path d="m256 0c-99.252 0-180 80.748-180 180 0 65.601 29.842 99.99 56.171 130.331 25.11 28.937 48.829 56.27 48.829 110.669v15h150v-15c0-54.399 23.719-81.732 48.829-110.669 26.329-30.341 56.171-64.73 56.171-130.331 0-99.252-80.748-180-180-180z" fill="url(#SVGID_2_)"/><path d="m256 240c-8.284 0-15-6.716-15-15v-90c0-8.284 6.716-15 15-15s15 6.716 15 15v90c0 8.284-6.716 15-15 15z" fill="url(#SVGID_3_)"/><circle cx="256" cy="285" fill="url(#SVGID_4_)" r="15"/></g></svg>