<svg id="Capa_1" enable-background="new 0 0 512 512" height="512" viewBox="0 0 512 512" width="512" xmlns="http://www.w3.org/2000/svg" xmlns:xlink="http://www.w3.org/1999/xlink"><linearGradient id="SVGID_1_" gradientUnits="userSpaceOnUse" x1="256" x2="256" y1="151" y2="31"><stop offset="0" stop-color="#ffedad"/><stop offset="1" stop-color="#ffffe5"/></linearGradient><linearGradient id="SVGID_2_" gradientUnits="userSpaceOnUse" x1="256" x2="256" y1="481" y2="121"><stop offset="0" stop-color="#fd5900"/><stop offset="1" stop-color="#ffde00"/></linearGradient><linearGradient id="SVGID_3_" gradientUnits="userSpaceOnUse" x1="256" x2="256" y1="301" y2="181"><stop offset="0" stop-color="#ffe59a"/><stop offset="1" stop-color="#ffffd5"/></linearGradient><g><g><path d="m346 151c-8.291 0-15-6.709-15-15v-75h-150v75c0 8.291-6.709 15-15 15s-15-6.709-15-15v-90c0-8.291 6.709-15 15-15h180c8.291 0 15 6.709 15 15v90c0 8.291-6.709 15-15 15z" fill="url(#SVGID_1_)"/></g><path d="m512 211v-75c0-8.401-6.599-15-15-15h-482c-8.401 0-15 6.599-15 15v75h30v30h-30v225c0 8.399 6.599 15 15 15h482c8.401 0 15-6.601 15-15v-225h-30v-30z" fill="url(#SVGID_2_)"/><g><g><path d="m301 211v-15c0-8.401-6.599-15-15-15h-60c-8.401 0-15 6.599-15 15v15h-211v30h211v45c0 8.399 6.599 15 15 15h60c8.401 0 15-6.601 15-15v-45h211v-30z" fill="url(#SVGID_3_)"/></g></g></g></svg>