<svg id="Capa_1" enable-background="new 0 0 512 512" height="512" viewBox="0 0 512 512" width="512" xmlns="http://www.w3.org/2000/svg" xmlns:xlink="http://www.w3.org/1999/xlink"><linearGradient id="lg1"><stop offset="0" stop-color="#addcff"/><stop offset=".5028" stop-color="#eaf6ff"/><stop offset="1" stop-color="#eaf6ff"/></linearGradient><linearGradient id="SVGID_1_" gradientUnits="userSpaceOnUse" x1="242.002" x2="242.002" xlink:href="#lg1" y1="330" y2="0"/><linearGradient id="SVGID_2_" gradientUnits="userSpaceOnUse" x1="256" x2="256" y1="512" y2="210"><stop offset="0" stop-color="#5558ff"/><stop offset="1" stop-color="#00c0ff"/></linearGradient><linearGradient id="SVGID_3_" gradientUnits="userSpaceOnUse" x1="107" x2="107" xlink:href="#lg1" y1="450" y2="360"/><linearGradient id="SVGID_4_" gradientUnits="userSpaceOnUse" x1="257" x2="257" xlink:href="#lg1" y1="450" y2="360"/><linearGradient id="SVGID_5_" gradientUnits="userSpaceOnUse" x1="407" x2="407" xlink:href="#lg1" y1="450" y2="360"/><g><g id="Factory"><g><g><g><path d="m151.926 13.507c-.767-7.668-7.22-13.507-14.926-13.507h-60c-7.707 0-14.159 5.839-14.926 13.508l-30 300c-.421 4.217.96 8.415 3.804 11.558 2.844 3.141 6.884 4.934 11.122 4.934h90c3.245 0 6.403-1.052 8.999-3l27.91-20.93c4.201-3.15 6.449-8.268 5.927-13.493zm291.782 3.076c-1.354-.677-33.548-16.583-66.708-16.583s-65.354 15.906-66.708 16.583c-7.463 3.732-31.586 13.417-53.292 13.417-25.95 0-53.042-13.292-53.313-13.427-7.407-3.689-16.403-.684-20.104 6.719-3.705 7.41-.701 16.42 6.708 20.125 1.355.677 33.549 16.583 66.709 16.583s65.354-15.906 66.708-16.583c7.463-3.732 31.586-13.417 53.292-13.417 25.95 0 53.042 13.292 53.292 13.417 7.409 3.705 16.42.701 20.125-6.708s.701-16.421-6.709-20.126z" fill="url(#SVGID_1_)"/></g></g></g></g><g><path d="m497 512h-482c-8.284 0-15-6.716-15-15v-182c0-8.284 6.716-15 15-15h117l116-87c4.544-3.41 10.626-3.958 15.708-1.417s8.292 7.735 8.292 13.417v60l96-72c4.545-3.409 10.626-3.958 15.708-1.417 5.082 2.542 8.292 7.735 8.292 13.417v60l96-72c4.544-3.409 10.626-3.958 15.708-1.417s8.292 7.735 8.292 13.417v272c0 8.284-6.716 15-15 15z" fill="url(#SVGID_2_)"/></g><g><path d="m137 450h-60c-8.284 0-15-6.716-15-15v-60c0-8.284 6.716-15 15-15h60c8.284 0 15 6.716 15 15v60c0 8.284-6.716 15-15 15z" fill="url(#SVGID_3_)"/></g><g><path d="m287 450h-60c-8.284 0-15-6.716-15-15v-60c0-8.284 6.716-15 15-15h60c8.284 0 15 6.716 15 15v60c0 8.284-6.716 15-15 15z" fill="url(#SVGID_4_)"/></g><g><path d="m437 450h-60c-8.284 0-15-6.716-15-15v-60c0-8.284 6.716-15 15-15h60c8.284 0 15 6.716 15 15v60c0 8.284-6.716 15-15 15z" fill="url(#SVGID_5_)"/></g></g></svg>