<svg id="Capa_1" enable-background="new 0 0 512 512" height="512" viewBox="0 0 512 512" width="512" xmlns="http://www.w3.org/2000/svg" xmlns:xlink="http://www.w3.org/1999/xlink"><linearGradient id="SVGID_1_" gradientUnits="userSpaceOnUse" x1="256" x2="256" y1="512" y2="0"><stop offset="0" stop-color="#5558ff"/><stop offset="1" stop-color="#00c0ff"/></linearGradient><linearGradient id="SVGID_2_" gradientUnits="userSpaceOnUse" x1="256" x2="256" y1="330" y2="150"><stop offset="0" stop-color="#addcff"/><stop offset=".5028" stop-color="#eaf6ff"/><stop offset="1" stop-color="#eaf6ff"/></linearGradient><g><g><g><path d="m271 150.3v-15.3c0-8.401 6.599-15 15-15h60c24.902 0 45-20.101 45-45 0-24.901-20.098-45-45-45h-180c-8.401 0-15-6.601-15-15 0-8.401-6.599-15-15-15s-15 6.599-15 15c0 24.899 20.098 45 45 45h180c8.401 0 15 6.599 15 15 0 8.399-6.599 15-15 15h-60c-24.902 0-45 20.099-45 45v15.3c-76.501 4.499-120 41.999-120 104.7v122c0 74.399 60.601 135 135 135s135-60.601 135-135v-122c0-62.701-43.499-100.201-120-104.7z" fill="url(#SVGID_1_)"/></g></g><g><g><path d="m271 212.763v-62.463c-4.797-.3-9.902-.3-15-.3s-10.203 0-15 .3v62.463c-17.424 6.213-30 22.707-30 42.237v30c0 24.814 20.186 45 45 45s45-20.186 45-45v-30c0-19.53-12.576-36.024-30-42.237z" fill="url(#SVGID_2_)"/></g></g></g></svg>