<svg id="Capa_1" enable-background="new 0 0 511.966 511.966" height="512" viewBox="0 0 511.966 511.966" width="512" xmlns="http://www.w3.org/2000/svg" xmlns:xlink="http://www.w3.org/1999/xlink"><linearGradient id="lg1"><stop offset="0" stop-color="#ffedad"/><stop offset="1" stop-color="#ffffe5"/></linearGradient><linearGradient id="SVGID_1_" gradientUnits="userSpaceOnUse" x1="256.049" x2="256.049" xlink:href="#lg1" y1="511.966" y2="404.966"/><linearGradient id="SVGID_2_" gradientUnits="userSpaceOnUse" x1="255.983" x2="255.983" y1="434.966" y2="0"><stop offset="0" stop-color="#fd5900"/><stop offset="1" stop-color="#ffde00"/></linearGradient><linearGradient id="SVGID_3_" gradientUnits="userSpaceOnUse" x1="256.049" x2="256.049" xlink:href="#lg1" y1="389.966" y2="60.2"/><g><path d="m331.049 434.966v32c0 24.899-20.099 45-45 45h-60c-24.901 0-45-20.101-45-45v-32l74.933-30z" fill="url(#SVGID_1_)"/><g id="Bulb_1_"><g><path d="m378.75 43.466c-45.901-37.201-105.901-51.601-164.701-39.001-74.099 15.6-134.099 76.201-149.099 150.6-16.8 83.699 19.799 165.3 92.699 208.2 14.702 8.401 23.401 22.5 23.401 37.8v33.9h150v-32.701c0-15.899 9-30.599 24.3-39.6 59.101-35.099 95.7-99.3 95.7-167.699-.001-59.1-26.401-114.299-72.3-151.499z" fill="url(#SVGID_2_)"/></g><path d="m361.049 224.966c0-53.892-84.229-149.312-93.838-160.02-5.684-6.328-16.641-6.328-22.324 0-9.609 10.708-93.838 106.128-93.838 160.02 0 52.755 39.25 96.127 90 103.484v46.516c0 8.291 6.709 15 15 15s15-6.709 15-15v-46.516c50.75-7.358 90-50.73 90-103.484z" fill="url(#SVGID_3_)"/></g></g></svg>