<svg id="Capa_1" enable-background="new 0 0 512 512" height="512" viewBox="0 0 512 512" width="512" xmlns="http://www.w3.org/2000/svg" xmlns:xlink="http://www.w3.org/1999/xlink"><linearGradient id="SVGID_1_" gradientUnits="userSpaceOnUse" x1="256" x2="256" y1="90" y2="0"><stop offset="0" stop-color="#00b59c"/><stop offset="1" stop-color="#9cffac"/></linearGradient><linearGradient id="SVGID_2_" gradientUnits="userSpaceOnUse" x1="256" x2="256" y1="512" y2="120"><stop offset="0" stop-color="#9cffac"/><stop offset="1" stop-color="#00b59c"/></linearGradient><linearGradient id="lg1"><stop offset="0" stop-color="#9bff9d"/><stop offset=".9973" stop-color="#e2ffea"/><stop offset="1" stop-color="#e2ffea"/></linearGradient><linearGradient id="SVGID_3_" gradientUnits="userSpaceOnUse" x1="256" x2="256" xlink:href="#lg1" y1="150" y2="60"/><linearGradient id="SVGID_4_" gradientUnits="userSpaceOnUse" x1="346" x2="346" xlink:href="#lg1" y1="422" y2="210"/><linearGradient id="SVGID_5_" gradientUnits="userSpaceOnUse" x1="166" x2="166" xlink:href="#lg1" y1="422" y2="210"/><linearGradient id="SVGID_6_" gradientUnits="userSpaceOnUse" x1="256" x2="256" xlink:href="#lg1" y1="422" y2="210"/><g><path d="m346 90c-8.284 0-15-6.716-15-15v-30c0-8.271-6.729-15-15-15h-120c-8.271 0-15 6.729-15 15v30c0 8.284-6.716 15-15 15s-15-6.716-15-15v-30c0-24.813 20.187-45 45-45h120c24.813 0 45 20.187 45 45v30c0 8.284-6.716 15-15 15z" fill="url(#SVGID_1_)"/><path d="m436 120h-360c-8.284 0-15 6.716-15 15v362c0 8.284 6.716 15 15 15h360c8.284 0 15-6.716 15-15v-362c0-8.284-6.716-15-15-15z" fill="url(#SVGID_2_)"/><path d="m466 150h-420c-8.284 0-15-6.716-15-15v-60c0-8.284 6.716-15 15-15h420c8.284 0 15 6.716 15 15v60c0 8.284-6.716 15-15 15z" fill="url(#SVGID_3_)"/><path d="m346 422c-8.284 0-15-6.716-15-15v-182c0-8.284 6.716-15 15-15s15 6.716 15 15v182c0 8.284-6.716 15-15 15z" fill="url(#SVGID_4_)"/><path d="m166 422c-8.284 0-15-6.716-15-15v-182c0-8.284 6.716-15 15-15s15 6.716 15 15v182c0 8.284-6.716 15-15 15z" fill="url(#SVGID_5_)"/><path d="m256 422c-8.284 0-15-6.716-15-15v-182c0-8.284 6.716-15 15-15s15 6.716 15 15v182c0 8.284-6.716 15-15 15z" fill="url(#SVGID_6_)"/></g></svg>