<svg id="Capa_1" enable-background="new 0 0 512 512" height="512" viewBox="0 0 512 512" width="512" xmlns="http://www.w3.org/2000/svg" xmlns:xlink="http://www.w3.org/1999/xlink"><linearGradient id="SVGID_1_" gradientUnits="userSpaceOnUse" x1="256" x2="256" y1="512" y2="45"><stop offset="0" stop-color="#5558ff"/><stop offset="1" stop-color="#00c0ff"/></linearGradient><linearGradient id="lg1"><stop offset="0" stop-color="#addcff"/><stop offset=".5028" stop-color="#eaf6ff"/><stop offset="1" stop-color="#eaf6ff"/></linearGradient><linearGradient id="SVGID_2_" gradientUnits="userSpaceOnUse" x1="256" x2="256" xlink:href="#lg1" y1="437" y2="105.234"/><linearGradient id="SVGID_3_" gradientUnits="userSpaceOnUse" x1="256" x2="256" xlink:href="#lg1" y1="60" y2="0"/><g><g id="Can_1_"><path d="m392.772 45h-273.544l-26.646 53.291c-1.025 2.08-1.582 4.38-1.582 6.709v332c0 2.329.557 4.629 1.582 6.709l30 60c2.549 5.083 7.734 8.291 13.418 8.291h240c5.684 0 10.869-3.208 13.418-8.291l30-60c1.025-2.08 1.582-4.38 1.582-6.709v-332c0-2.329-.557-4.629-1.582-6.709z" fill="url(#SVGID_1_)"/><path d="m361 270c0-53.892-84.229-149.312-93.838-160.02-5.684-6.328-16.641-6.328-22.324 0-9.609 10.708-93.838 106.128-93.838 160.02 0 52.755 39.25 96.127 90 103.484v48.516c0 8.291 6.709 15 15 15s15-6.709 15-15v-48.516c50.75-7.357 90-50.729 90-103.484z" fill="url(#SVGID_2_)"/></g><path d="m406 30h-203.789l-25.606-25.605c-5.859-5.859-15.352-5.859-21.211 0s-5.859 15.352 0 21.211l4.395 4.394h-53.789c-8.291 0-15 6.709-15 15s6.709 15 15 15h300c8.291 0 15-6.709 15-15s-6.709-15-15-15z" fill="url(#SVGID_3_)"/></g></svg>