<svg id="Capa_1" enable-background="new 0 0 511.948 511.948" height="512" viewBox="0 0 511.948 511.948" width="512" xmlns="http://www.w3.org/2000/svg" xmlns:xlink="http://www.w3.org/1999/xlink"><linearGradient id="SVGID_1_" gradientUnits="userSpaceOnUse" x1="255.974" x2="255.974" y1="511.948" y2="0"><stop offset="0" stop-color="#5558ff"/><stop offset="1" stop-color="#00c0ff"/></linearGradient><linearGradient id="SVGID_2_" gradientUnits="userSpaceOnUse" x1="233.473" x2="233.473" y1="329.948" y2="59.948"><stop offset="0" stop-color="#addcff"/><stop offset=".5028" stop-color="#eaf6ff"/><stop offset="1" stop-color="#eaf6ff"/></linearGradient><g><path d="m128.473 434.948v62c0 8.284 6.716 15 15 15h180c8.284 0 15-6.716 15-15v-77c0-8.271 6.729-15 15-15h30c24.813 0 45-20.187 45-45v-60h30c5.682 0 10.875-3.21 13.417-8.292s1.992-11.163-1.417-15.708l-42-56v-25c0-52.158-20.42-101.23-57.498-138.177-36.74-36.609-85.069-56.771-136.085-56.771-56.799 0-105.12 16.931-139.737 48.964-37.08 34.311-56.679 84.791-56.679 145.984 0 49.155 23.963 89.094 47.137 127.718 22.043 36.737 42.862 71.436 42.862 112.282z" fill="url(#SVGID_1_)"/><path d="m359.897 215.976-21.823-12.599c.268-2.901.4-5.699.4-8.429s-.132-5.528-.4-8.429l21.823-12.6c3.445-1.989 5.959-5.265 6.989-9.108s.491-7.937-1.499-11.382l-30-51.962c-1.989-3.445-5.265-5.959-9.108-6.989-3.842-1.03-7.937-.491-11.382 1.499l-22.164 12.797c-4.543-3.143-9.306-5.908-14.259-8.28v-25.546c0-8.284-6.716-15-15-15h-60c-8.284 0-15 6.716-15 15v25.546c-4.954 2.372-9.715 5.137-14.259 8.28l-22.164-12.797c-3.445-1.99-7.54-2.529-11.382-1.499-3.843 1.03-7.119 3.544-9.108 6.989l-30 51.962c-1.989 3.445-2.528 7.54-1.499 11.382s3.543 7.119 6.989 9.108l21.823 12.6c-.268 2.901-.4 5.699-.4 8.429s.132 5.528.4 8.429l-21.823 12.599c-3.445 1.989-5.959 5.265-6.989 9.108s-.491 7.937 1.499 11.382l30 51.962c1.989 3.445 5.265 5.959 9.108 6.989 3.841 1.03 7.937.49 11.382-1.499l22.164-12.797c4.544 3.143 9.304 5.906 14.259 8.279v25.548c0 8.284 6.716 15 15 15h60c8.284 0 15-6.716 15-15v-25.546c4.954-2.372 9.715-5.137 14.259-8.28l22.164 12.797c3.446 1.99 7.541 2.528 11.382 1.499 3.843-1.03 7.12-3.544 9.108-6.989l30-51.962c1.989-3.445 2.528-7.54 1.499-11.382s-3.544-7.12-6.989-9.109zm-126.424 23.972c-24.813 0-45-20.187-45-45s20.187-45 45-45 45 20.187 45 45-20.187 45-45 45z" fill="url(#SVGID_2_)"/></g></svg>