<svg id="Capa_1" enable-background="new 0 0 511.927 511.927" height="512" viewBox="0 0 511.927 511.927" width="512" xmlns="http://www.w3.org/2000/svg" xmlns:xlink="http://www.w3.org/1999/xlink"><linearGradient id="SVGID_1_" gradientUnits="userSpaceOnUse" x1="255.964" x2="255.964" y1="496.927" y2="179.927"><stop offset="0" stop-color="#c3ffe8"/><stop offset=".9973" stop-color="#f0fff4"/></linearGradient><linearGradient id="SVGID_2_" gradientUnits="userSpaceOnUse" x1="255.963" x2="255.963" y1="511.927" y2="0"><stop offset="0" stop-color="#00b59c"/><stop offset="1" stop-color="#9cffac"/></linearGradient><g><g><g><path d="m255.963 271.927c8.291 0 15-6.709 15-15v-62c0-8.291-6.709-15-15-15s-15 6.709-15 15v62c0 8.291 6.709 15 15 15zm33.6 98.399c-2.098-6.899-9.298-11.4-16.798-9.898-11.104 2.098-22.5 2.098-33.604 0-7.5-1.501-14.7 2.999-16.798 9.898-43.157 130.411-41.4 122.753-41.4 126.601h150c0-3.855 1.766 3.836-41.4-126.601z" fill="url(#SVGID_1_)"/></g></g><g><g><path d="m255.963 391.927c73.825 0 135-59.468 135-135 0-8.291-6.709-15-15-15h-240c-8.291 0-15 6.709-15 15 0 76.067 61.609 135 135 135zm-95.449-322.464c52.617-52.617 138.281-52.617 190.898 0 5.86 5.859 15.352 5.859 21.211 0s5.859-15.352 0-21.211c-64.336-64.336-168.984-64.336-233.32 0-5.859 5.859-5.859 15.352 0 21.211s15.352 5.859 21.211 0zm169.688 42.436c5.859-5.859 5.859-15.352 0-21.211-40.957-40.928-107.52-40.928-148.477 0-5.859 5.859-5.859 15.352 0 21.211s15.352 5.859 21.211 0c29.238-29.238 76.816-29.238 106.055 0 5.859 5.86 15.351 5.86 21.211 0zm-106.055 21.211c-5.859 5.859-5.859 15.352 0 21.211s15.352 5.859 21.211 0 15.352-5.859 21.211 0c5.86 5.859 15.352 5.859 21.211 0s5.859-15.352 0-21.211c-17.52-17.548-46.113-17.548-63.633 0zm181.816 348.817h-300c-8.291 0-15 6.709-15 15s6.709 15 15 15h300c8.291 0 15-6.709 15-15s-6.709-15-15-15z" fill="url(#SVGID_2_)"/></g></g></g></svg>