<svg id="Capa_1" enable-background="new 0 0 512 512" height="512" viewBox="0 0 512 512" width="512" xmlns="http://www.w3.org/2000/svg" xmlns:xlink="http://www.w3.org/1999/xlink"><linearGradient id="SVGID_1_" gradientUnits="userSpaceOnUse" x1="256" x2="256" y1="512" y2="0"><stop offset="0" stop-color="#fd5900"/><stop offset="1" stop-color="#ffde00"/></linearGradient><linearGradient id="SVGID_2_" gradientUnits="userSpaceOnUse" x1="256" x2="256" y1="421" y2="91"><stop offset="0" stop-color="#ffedad"/><stop offset="1" stop-color="#ffffe5"/></linearGradient><g><circle cx="256" cy="256" fill="url(#SVGID_1_)" r="256"/><path d="m271 248.344v-95.436c17.245 4.235 30 15.335 30 28.092 0 8.291 6.709 15 15 15s15-6.709 15-15c0-28.98-25.809-53.212-60-58.786v-16.214c0-8.291-6.709-15-15-15s-15 6.709-15 15v16.214c-34.191 5.574-60 29.806-60 58.786 0 37.081 30.65 61.469 60 82.656v95.436c-17.245-4.235-30-15.335-30-28.092 0-8.291-6.709-15-15-15s-15 6.709-15 15c0 28.98 25.809 53.212 60 58.786v16.214c0 8.291 6.709 15 15 15s15-6.709 15-15v-16.214c34.191-5.574 60-29.806 60-58.786 0-37.081-30.65-61.469-60-82.656zm-60-67.344c0-12.757 12.755-23.857 30-28.092v73.149c-17.128-13.814-30-28.061-30-45.057zm60 178.092v-73.149c17.128 13.813 30 28.061 30 45.057 0 12.757-12.755 23.857-30 28.092z" fill="url(#SVGID_2_)"/></g></svg>