<svg id="Capa_1" enable-background="new 0 0 512.007 512.007" height="512" viewBox="0 0 512.007 512.007" width="512" xmlns="http://www.w3.org/2000/svg" xmlns:xlink="http://www.w3.org/1999/xlink"><linearGradient id="SVGID_1_" gradientUnits="userSpaceOnUse" x1="256.004" x2="256.004" y1="452.007" y2="210.007"><stop offset="0" stop-color="#ffe59a"/><stop offset="1" stop-color="#ffffd5"/></linearGradient><linearGradient id="SVGID_2_" gradientUnits="userSpaceOnUse" x1="256.004" x2="256.004" y1="512.007" y2="0"><stop offset="0" stop-color="#fd5900"/><stop offset="1" stop-color="#ffde00"/></linearGradient><linearGradient id="SVGID_3_" gradientUnits="userSpaceOnUse" x1="256.004" x2="256.004" y1="180.007" y2="90.007"><stop offset="0" stop-color="#ffedad"/><stop offset="1" stop-color="#ffffe5"/></linearGradient><g><g><g id="Bank_1_"><g><g><path d="m176.609 235.613c4.292-4.292 5.581-10.737 3.252-16.348-2.314-5.61-7.793-9.258-13.857-9.258h-120c-6.064 0-11.543 3.647-13.857 9.258-2.329 5.61-1.04 12.056 3.252 16.348l25.605 25.605v139.578l-25.605 25.605c-4.292 4.292-5.581 10.737-3.252 16.348 2.314 5.61 7.793 9.258 13.857 9.258h120c6.064 0 11.543-3.647 13.857-9.258 2.329-5.61 1.04-12.056-3.252-16.348l-25.605-25.605v-139.578zm274.395 165.183v-139.578l25.605-25.605c4.292-4.292 5.581-10.737 3.252-16.348-2.314-5.61-7.793-9.258-13.857-9.258h-120c-6.064 0-11.543 3.647-13.857 9.258-2.329 5.61-1.04 12.056 3.252 16.348l25.605 25.605v139.578l-25.605 25.605c-4.292 4.292-5.581 10.737-3.252 16.348 2.314 5.61 7.793 9.258 13.857 9.258h120c6.064 0 11.543-3.647 13.857-9.258 2.329-5.61 1.04-12.056-3.252-16.348zm-124.395-165.183c4.292-4.292 5.581-10.737 3.252-16.348-2.314-5.61-7.793-9.258-13.857-9.258h-120c-6.064 0-11.543 3.647-13.857 9.258-2.329 5.61-1.04 12.056 3.252 16.348l25.605 25.605v139.578l-25.605 25.605c-4.292 4.292-5.581 10.737-3.252 16.348 2.314 5.61 7.793 9.258 13.857 9.258h120c6.064 0 11.543-3.647 13.857-9.258 2.329-5.61 1.04-12.056-3.252-16.348l-25.605-25.605v-139.578z" fill="url(#SVGID_1_)"/></g></g></g></g><g><g><path d="m497.004 422.007h-482c-8.291 0-15 6.709-15 15v60c0 8.291 6.709 15 15 15h482c8.291 0 15-6.709 15-15v-60c0-8.291-6.709-15-15-15zm-481-182h480c6.255 0 11.851-3.867 14.048-9.727 2.197-5.845.527-12.451-4.175-16.567l-240-210c-5.654-4.951-14.092-4.951-19.746 0l-240 210c-4.702 4.116-6.372 10.723-4.175 16.567 2.197 5.86 7.793 9.727 14.048 9.727z" fill="url(#SVGID_2_)"/></g></g><g><path d="m256.004 180.007c-24.814 0-45-20.186-45-45s20.186-45 45-45 45 20.186 45 45-20.186 45-45 45z" fill="url(#SVGID_3_)"/></g></g></svg>