<svg id="Capa_1" enable-background="new 0 0 512 512" height="512" viewBox="0 0 512 512" width="512" xmlns="http://www.w3.org/2000/svg" xmlns:xlink="http://www.w3.org/1999/xlink"><linearGradient id="SVGID_1_" gradientUnits="userSpaceOnUse" x1="256" x2="256" y1="512" y2="0"><stop offset="0" stop-color="#a93aff"/><stop offset="1" stop-color="#ff81ff"/></linearGradient><linearGradient id="lg1"><stop offset="0" stop-color="#ffbef9"/><stop offset="1" stop-color="#fff1ff"/></linearGradient><linearGradient id="SVGID_2_" gradientUnits="userSpaceOnUse" x1="256" x2="256" xlink:href="#lg1" y1="452" y2="422"/><linearGradient id="SVGID_3_" gradientUnits="userSpaceOnUse" x1="256" x2="256" xlink:href="#lg1" y1="392" y2="61.234"/><g id="Smartphone_1_"><g><path d="m376 512h-240c-24.814 0-45-20.186-45-45v-422c0-24.814 20.186-45 45-45h240c24.814 0 45 20.186 45 45v422c0 24.814-20.186 45-45 45z" fill="url(#SVGID_1_)"/></g><g><path d="m286 452h-60c-8.291 0-15-6.709-15-15s6.709-15 15-15h60c8.291 0 15 6.709 15 15s-6.709 15-15 15z" fill="url(#SVGID_2_)"/></g><path d="m361 226c0-53.892-84.229-149.312-93.838-160.02-5.684-6.328-16.641-6.328-22.324 0-9.609 10.708-93.838 106.128-93.838 160.02 0 52.755 39.25 96.127 90 103.484v47.516c0 8.291 6.709 15 15 15s15-6.709 15-15v-47.516c50.75-7.357 90-50.729 90-103.484z" fill="url(#SVGID_3_)"/></g></svg>