<svg id="Capa_1" enable-background="new 0 0 512 512" height="512" viewBox="0 0 512 512" width="512" xmlns="http://www.w3.org/2000/svg" xmlns:xlink="http://www.w3.org/1999/xlink"><linearGradient id="SVGID_1_" gradientUnits="userSpaceOnUse" x1="256" x2="256" y1="512" y2="61"><stop offset="0" stop-color="#fd5900"/><stop offset="1" stop-color="#ffde00"/></linearGradient><linearGradient id="SVGID_2_" gradientUnits="userSpaceOnUse" x1="256" x2="256" y1="421" y2="0"><stop offset="0" stop-color="#ffe59a"/><stop offset="1" stop-color="#ffffd5"/></linearGradient><g id="Calendar_2_"><g><g><path d="m497 61h-61c-8.291 0-15 6.709-15 15v15h-30v-15c0-8.291-6.709-15-15-15h-90c-8.291 0-15 6.709-15 15v15h-30v-15c0-8.291-6.709-15-15-15h-90c-8.291 0-15 6.709-15 15v15h-30v-15c0-8.291-6.709-15-15-15h-61c-8.291 0-15 6.709-15 15v421c0 8.291 6.709 15 15 15h482c8.291 0 15-6.709 15-15v-421c0-8.291-6.709-15-15-15z" fill="url(#SVGID_1_)"/></g></g><g><g><path d="m136 0h-60c-8.291 0-15 6.709-15 15v91c0 8.291 6.709 15 15 15h60c8.291 0 15-6.709 15-15v-91c0-8.291-6.709-15-15-15zm90 121h60c8.291 0 15-6.709 15-15v-91c0-8.291-6.709-15-15-15h-60c-8.291 0-15 6.709-15 15v91c0 8.291 6.709 15 15 15zm210-121h-60c-8.291 0-15 6.709-15 15v91c0 8.291 6.709 15 15 15h60c8.291 0 15-6.709 15-15v-91c0-8.291-6.709-15-15-15zm-255 421h60v-60h-60zm0-90h60v-60h-60zm-90 75c0 8.399 6.599 15 15 15h45v-60h-60zm0-75h60v-60h-60zm0-135v45h60v-60h-45c-8.401 0-15 6.599-15 15zm270 225h45c8.401 0 15-6.601 15-15v-45h-60zm0-90h60v-60h-60zm45-150h-45v60h60v-45c0-8.401-6.599-15-15-15zm-135 150h60v-60h-60zm0 90h60v-60h-60zm-90-180h60v-60h-60zm90 0h60v-60h-60z" fill="url(#SVGID_2_)"/></g></g></g></svg>