<svg id="Capa_1" enable-background="new 0 0 512 512" height="512" viewBox="0 0 512 512" width="512" xmlns="http://www.w3.org/2000/svg" xmlns:xlink="http://www.w3.org/1999/xlink"><linearGradient id="lg1"><stop offset="0" stop-color="#ffc8d1"/><stop offset="1" stop-color="#fff6f7"/></linearGradient><linearGradient id="SVGID_1_" gradientUnits="userSpaceOnUse" x1="106" x2="106" xlink:href="#lg1" y1="121" y2="31"/><linearGradient id="SVGID_2_" gradientUnits="userSpaceOnUse" x1="406" x2="406" xlink:href="#lg1" y1="121" y2="31"/><linearGradient id="SVGID_3_" gradientUnits="userSpaceOnUse" x1="256" x2="256" y1="481" y2="91"><stop offset="0" stop-color="#fd3a84"/><stop offset="1" stop-color="#ffa68d"/></linearGradient><linearGradient id="SVGID_4_" gradientUnits="userSpaceOnUse" x1="256" x2="256" xlink:href="#lg1" y1="481" y2="151.374"/><g><g><g><path d="m136 121h-60c-8.291 0-15-6.709-15-15v-60c0-8.291 6.709-15 15-15h60c8.291 0 15 6.709 15 15v60c0 8.291-6.709 15-15 15z" fill="url(#SVGID_1_)"/></g></g><g><g><path d="m436 121h-60c-8.291 0-15-6.709-15-15v-60c0-8.291 6.709-15 15-15h60c8.291 0 15 6.709 15 15v60c0 8.291-6.709 15-15 15z" fill="url(#SVGID_2_)"/></g></g><path d="m497 451h-15v-330h15c8.401 0 15-6.601 15-15 0-8.401-6.599-15-15-15h-482c-8.401 0-15 6.599-15 15 0 8.399 6.599 15 15 15h15v330h-15c-8.401 0-15 6.599-15 15 0 8.399 6.599 15 15 15h226l15-30 15 30h226c8.401 0 15-6.601 15-15 0-8.401-6.599-15-15-15z" fill="url(#SVGID_3_)"/><g id="Battery_2_"><path d="m361 316c0 52.8-39.3 96-90 103.5v61.5h-30v-61.5c-50.7-7.5-90-50.7-90-103.5 0-54 84.3-149.401 93.9-159.901 5.7-6.301 16.5-6.301 22.2 0 9.6 10.5 93.9 105.901 93.9 159.901z" fill="url(#SVGID_4_)"/></g></g></svg>