<svg id="Capa_1" enable-background="new 0 0 512 512" height="512" viewBox="0 0 512 512" width="512" xmlns="http://www.w3.org/2000/svg" xmlns:xlink="http://www.w3.org/1999/xlink"><linearGradient id="SVGID_1_" gradientUnits="userSpaceOnUse" x1="57.501" x2="417.651" y1="454.499" y2="94.35"><stop offset="0" stop-color="#fd3a84"/><stop offset="1" stop-color="#ffa68d"/></linearGradient><linearGradient id="SVGID_2_" gradientUnits="userSpaceOnUse" x1="4.488" x2="472.4" y1="507.511" y2="39.6"><stop offset="0" stop-color="#ffc2cc"/><stop offset="1" stop-color="#fff2f4"/></linearGradient><g><g><g><path d="m245.3 163.2-179.7 198.299c-3.3 3.6-4.501 8.399-3.6 13.2.601 2.699 4.501 21.301 16.201 38.101l-20.701 41.699 41.7-20.7c16.802 11.7 35.698 15.601 38.101 16.201 2.686.895 8.344.282 13.198-3.6l198.303-179.7-26.102-86.102zm248.401 67.2-11.1-11.1-66.546-126.546-123.356-63.355-11.096-11.1c-6.002-5.7-15.3-5.7-21.302 0-5.702 6-5.702 15.3 0 21.301l11.4 11.4 57.598 117.597 131.703 71.703 11.396 11.4c5.732 5.725 15.054 6.248 21.302 0 5.703-6 5.703-15.3.001-21.3z" fill="url(#SVGID_1_)"/></g></g><g><g><path d="m239.115 251.672c-5.858 5.858-5.858 15.355 0 21.213s15.355 5.858 21.213 0 5.858-15.355 0-21.213-15.355-5.858-21.213 0zm-160.913 161.128-73.7 73.699c-6.002 5.7-6.002 15.3 0 21 5.398 6.002 15.603 6 20.999 0l73.7-73.7c-4.2-2.399-8.101-5.7-11.7-9.3-3.601-3.6-6.9-7.5-9.299-11.699zm167.098-249.6 103.502 103.5c9.298 2.098 18.896 3.3 28.198 3.3 30.3 0 60-10.201 84.001-29.7l-189.3-189.3c-25.199 31.199-34.798 72.599-26.401 112.2zm227.099-123.6c-48.896-49.2-126.899-52.5-179.7-10.201l189.902 189.9c42.298-52.8 39.002-130.799-10.202-179.699z" fill="url(#SVGID_2_)"/></g></g></g></svg>