<svg id="Capa_1" enable-background="new 0 0 512 512" height="512" viewBox="0 0 512 512" width="512" xmlns="http://www.w3.org/2000/svg" xmlns:xlink="http://www.w3.org/1999/xlink"><linearGradient id="lg1"><stop offset="0" stop-color="#5558ff"/><stop offset="1" stop-color="#00c0ff"/></linearGradient><linearGradient id="SVGID_1_" gradientUnits="userSpaceOnUse" x1="256" x2="256" xlink:href="#lg1" y1="512" y2="0"/><linearGradient id="SVGID_2_" gradientUnits="userSpaceOnUse" x1="256" x2="256" y1="482" y2="30"><stop offset="0" stop-color="#addcff"/><stop offset=".5028" stop-color="#eaf6ff"/><stop offset="1" stop-color="#eaf6ff"/></linearGradient><linearGradient id="SVGID_3_" gradientUnits="userSpaceOnUse" x1="221.987" x2="221.987" xlink:href="#lg1" y1="377.064" y2="202.94"/><linearGradient id="SVGID_4_" gradientUnits="userSpaceOnUse" x1="290.018" x2="290.018" xlink:href="#lg1" y1="309.04" y2="134.934"/><g><path d="m256 512c-140.959 0-256-115.049-256-256 0-140.96 115.049-256 256-256 140.96 0 256 115.049 256 256 0 140.959-115.049 256-256 256z" fill="url(#SVGID_1_)"/><path d="m256 30c-124.617 0-226 101.383-226 226s101.383 226 226 226 226-101.383 226-226-101.383-226-226-226z" fill="url(#SVGID_2_)"/><path d="m309.03 309.03-106.06-106.06.01-.03c-1.34 1.34-2.43 2.94-3.19 4.72l-63.64 148.5c-2.42 5.63-1.16 12.18 3.18 16.51 4.34 4.35 10.89 5.59 16.51 3.18l148.5-63.64c1.77-.75 3.36-1.84 4.7-3.17z" fill="url(#SVGID_3_)"/><path d="m375.85 155.84-63.64 148.5c-.75 1.77-1.84 3.36-3.17 4.7l-.01-.01-106.06-106.06.01-.03c1.34-1.32 2.92-2.4 4.68-3.15l148.5-63.64c5.64-2.42 12.18-1.16 16.51 3.18 4.34 4.33 5.6 10.88 3.18 16.51z" fill="url(#SVGID_4_)"/></g></svg>