<svg id="Capa_1" enable-background="new 0 0 512 512" height="512" viewBox="0 0 512 512" width="512" xmlns="http://www.w3.org/2000/svg" xmlns:xlink="http://www.w3.org/1999/xlink"><linearGradient id="SVGID_1_" gradientUnits="userSpaceOnUse" x1="256" x2="256" y1="482" y2="0"><stop offset="0" stop-color="#fd5900"/><stop offset="1" stop-color="#ffde00"/></linearGradient><linearGradient id="lg1"><stop offset="0" stop-color="#ffedad"/><stop offset="1" stop-color="#ffffe5"/></linearGradient><linearGradient id="SVGID_2_" gradientUnits="userSpaceOnUse" x1="256" x2="256" xlink:href="#lg1" y1="392" y2="60.234"/><linearGradient id="SVGID_3_" gradientUnits="userSpaceOnUse" x1="256" x2="256" xlink:href="#lg1" y1="512" y2="422"/><g id="Book_2_"><g><path d="m76 482c-8.291 0-15-6.709-15-15v-422c0-24.853 20.147-45 45-45h330c8.284 0 15 6.716 15 15v407c0 16.569-13.431 30-30 30h-315c-8.024 0-15.38 6.285-15.016 14.301.39 8.609-6.461 15.699-14.984 15.699z" fill="url(#SVGID_1_)"/></g><path d="m361 225c0-53.892-84.229-149.312-93.838-160.02-5.684-6.328-16.641-6.328-22.324 0-9.609 10.708-93.838 106.128-93.838 160.02 0 52.755 39.25 96.127 90 103.484v48.516c0 8.291 6.709 15 15 15s15-6.709 15-15v-48.516c50.75-7.357 90-50.729 90-103.484z" fill="url(#SVGID_2_)"/><g><path d="m436 512h-330c-24.814 0-45-20.186-45-45s20.186-45 45-45h345v75c0 8.284-6.716 15-15 15z" fill="url(#SVGID_3_)"/></g></g></svg>