<svg id="Capa_1" enable-background="new 0 0 512 512" height="512" viewBox="0 0 512 512" width="512" xmlns="http://www.w3.org/2000/svg" xmlns:xlink="http://www.w3.org/1999/xlink"><linearGradient id="lg1"><stop offset="0" stop-color="#5558ff"/><stop offset="1" stop-color="#00c0ff"/></linearGradient><linearGradient id="SVGID_1_" gradientUnits="userSpaceOnUse" x1="256" x2="256" xlink:href="#lg1" y1="512" y2="0"/><linearGradient id="SVGID_2_" gradientUnits="userSpaceOnUse" x1="256" x2="256" y1="420.099" y2="91"><stop offset="0" stop-color="#addcff"/><stop offset=".5028" stop-color="#eaf6ff"/><stop offset="1" stop-color="#eaf6ff"/></linearGradient><linearGradient id="SVGID_3_" gradientUnits="userSpaceOnUse" x1="256" x2="256" xlink:href="#lg1" y1="421" y2="152.425"/><g><g><path d="m286 512h-60c-8.291 0-15-6.709-15-15v-20.79c-28.037-5.742-54.902-16.89-78.838-32.725l-14.062 14.034c-5.859 5.859-15.352 5.859-21.211 0l-42.422-42.422c-5.859-5.859-5.859-15.352 0-21.211l14.033-14.048c-15.82-23.936-26.982-50.801-32.695-78.838h-20.805c-8.291 0-15-6.709-15-15v-60c0-8.291 6.709-15 15-15h20.805c5.713-28.037 16.875-54.902 32.695-78.838l-14.033-14.048c-5.859-5.859-5.859-15.352 0-21.211l42.422-42.422c5.859-5.859 15.352-5.859 21.211 0l14.063 14.033c23.935-15.834 50.8-26.982 78.837-32.724v-20.79c0-8.291 6.709-15 15-15h60c8.291 0 15 6.709 15 15v20.79c28.037 5.742 54.902 16.89 78.838 32.725l14.062-14.034c5.859-5.859 15.352-5.859 21.211 0l42.422 42.422c5.859 5.859 5.859 15.352 0 21.211l-14.033 14.048c15.82 23.936 26.982 50.801 32.695 78.838h20.805c8.291 0 15 6.709 15 15v60c0 8.291-6.709 15-15 15h-20.805c-5.713 28.037-16.875 54.902-32.695 78.838l14.033 14.048c5.859 5.859 5.859 15.352 0 21.211l-42.422 42.422c-5.859 5.859-15.352 5.859-21.211 0l-14.063-14.033c-23.935 15.834-50.8 26.982-78.837 32.724v20.79c0 8.291-6.709 15-15 15z" fill="url(#SVGID_1_)"/></g><path d="m256 91c-90.901 0-165 74.099-165 165 0 85.8 66 156.599 150 164.099l15-29.099 15 29.099c84-7.5 150-78.3 150-164.099 0-90.901-74.099-165-165-165z" fill="url(#SVGID_2_)"/><path d="m331 271c0 36.299-25.8 66.599-60 73.5v75.599c-4.799.601-9.901.901-15 .901s-10.201-.3-15-.901v-75.599c-34.2-6.901-60-37.202-60-73.5 0-49.801 57.9-107.701 64.501-114.3 5.999-5.7 15-5.7 20.999 0 6.6 6.599 64.5 64.499 64.5 114.3z" fill="url(#SVGID_3_)"/></g></svg>