<svg id="Capa_1" enable-background="new 0 0 512 512" height="512" viewBox="0 0 512 512" width="512" xmlns="http://www.w3.org/2000/svg" xmlns:xlink="http://www.w3.org/1999/xlink"><linearGradient id="SVGID_1_" gradientUnits="userSpaceOnUse" x1="256" x2="256" y1="421" y2="95.2"><stop offset="0" stop-color="#ffedad"/><stop offset="1" stop-color="#ffffe5"/></linearGradient><linearGradient id="SVGID_2_" gradientUnits="userSpaceOnUse" x1="256" x2="256" y1="346" y2="91"><stop offset="0" stop-color="#fd5900"/><stop offset="1" stop-color="#ffde00"/></linearGradient><g id="Mail_5_"><g><path d="m507.8 95.2-251.8 190.8-251.8-190.8c-2.4 3-4.2 6.6-4.2 10.8v300c0 8.399 6.599 15 15 15h482c8.401 0 15-6.601 15-15v-300c0-4.2-1.8-7.8-4.2-10.8z" fill="url(#SVGID_1_)"/></g><path d="m507.8 95.2-251.8 250.8-251.8-250.8c3-2.4 6.6-4.2 10.8-4.2h482c4.2 0 7.8 1.8 10.8 4.2z" fill="url(#SVGID_2_)"/></g></svg>