<svg id="Capa_1" enable-background="new 0 0 512 512" height="512" viewBox="0 0 512 512" width="512" xmlns="http://www.w3.org/2000/svg" xmlns:xlink="http://www.w3.org/1999/xlink"><linearGradient id="SVGID_1_" gradientUnits="userSpaceOnUse" x1="256" x2="256" y1="512" y2="0"><stop offset="0" stop-color="#a93aff"/><stop offset="1" stop-color="#ff81ff"/></linearGradient><linearGradient id="SVGID_2_" gradientUnits="userSpaceOnUse" x1="256" x2="256" y1="451" y2="121"><stop offset="0" stop-color="#ffbef9"/><stop offset="1" stop-color="#fff1ff"/></linearGradient><g id="Smartphone_1_"><g><g><path d="m391 0h-270c-8.291 0-15 6.709-15 15v482c0 8.291 6.709 15 15 15h270c8.291 0 15-6.709 15-15v-482c0-8.291-6.709-15-15-15z" fill="url(#SVGID_1_)"/></g></g><g><g><path d="m256 121c-57.891 0-105 47.109-105 105s47.109 105 105 105c12.012 0 23.789-2.007 35.039-5.991 7.793-2.754 11.895-11.323 9.141-19.131-2.813-7.837-11.367-11.938-19.16-9.141-7.999 2.827-16.436 4.263-25.02 4.263-41.367 0-75-33.647-75-75s33.633-75 75-75 75 33.647 75 75c0 8.276-6.738 15-15 15s-15-6.724-15-15c0-24.814-20.186-45-45-45s-45 20.186-45 45 20.186 45 45 45c11.565 0 22.02-4.508 30-11.704 7.98 7.196 18.435 11.704 30 11.704 24.815 0 45-20.186 45-45 0-57.891-47.109-105-105-105zm0 120c-8.262 0-15-6.724-15-15s6.738-15 15-15 15 6.724 15 15-6.738 15-15 15zm15 180h-30c-8.291 0-15 6.709-15 15s6.709 15 15 15h30c8.291 0 15-6.709 15-15s-6.709-15-15-15z" fill="url(#SVGID_2_)"/></g></g></g></svg>