<svg id="Capa_1" enable-background="new 0 0 512.014 512.014" height="512" viewBox="0 0 512.014 512.014" width="512" xmlns="http://www.w3.org/2000/svg" xmlns:xlink="http://www.w3.org/1999/xlink"><linearGradient id="lg1"><stop offset="0" stop-color="#fd5900"/><stop offset="1" stop-color="#ffde00"/></linearGradient><linearGradient id="SVGID_1_" gradientTransform="matrix(1 0 0 -1 0 514)" gradientUnits="userSpaceOnUse" x1="256.007" x2="256.007" xlink:href="#lg1" y1="61.993" y2="453.993"/><linearGradient id="SVGID_2_" gradientTransform="matrix(1 0 0 -1 0 514)" gradientUnits="userSpaceOnUse" x1="256.007" x2="256.007" y1="213.993" y2="513.993"><stop offset="0" stop-color="#ffedad"/><stop offset="1" stop-color="#ffffe5"/></linearGradient><linearGradient id="SVGID_3_" gradientTransform="matrix(1 0 0 -1 0 514)" gradientUnits="userSpaceOnUse" x1="256.007" x2="256.007" xlink:href="#lg1" y1="1.993" y2="243.993"/><g><g><path d="m286.007 452.007h-60c-8.291 0-15-6.709-15-15v-362c0-8.291 6.709-15 15-15h60c8.291 0 15 6.709 15 15v362c0 8.291-6.709 15-15 15z" fill="url(#SVGID_1_)"/></g><path d="m437.008 60.007h-107.519c-6.969-34.191-37.266-60-73.482-60s-66.513 25.809-73.482 60h-107.518c-6.125 0-12.478 4.758-14.428 10.883l-60 210c-2.271 7.954 2.344 16.26 10.313 18.545 1.377.381 2.754.571 4.131.571 6.519 0 12.524-4.292 14.414-10.884l45.568-159.514 45.575 159.514c1.89 6.592 7.896 10.884 14.414 10.884 1.377 0 2.754-.19 4.131-.571 7.969-2.285 12.583-10.591 10.313-18.545l-54.54-190.883h322.217l-54.536 190.884c-2.271 7.954 2.344 16.26 10.313 18.545 1.377.381 2.754.571 4.131.571 6.519 0 12.524-4.292 14.414-10.884l45.571-159.5 45.571 159.5c1.89 6.592 7.896 10.884 14.414 10.884 1.377 0 2.754-.19 4.131-.571 7.968-2.285 12.582-10.591 10.312-18.545l-60-210c-1.877-6.567-7.445-10.919-14.428-10.884z" fill="url(#SVGID_2_)"/><g><g><path d="m346.007 422.007h-180c-41.353 0-75 33.647-75 75 0 8.291 6.709 15 15 15h300c8.291 0 15-6.709 15-15 0-41.352-33.647-75-75-75zm-196-137c0-8.291-6.709-15-15-15h-120c-8.291 0-15 6.709-15 15 0 41.353 33.647 75 75 75s75-33.647 75-75zm347-15h-120c-8.291 0-15 6.709-15 15 0 41.353 33.647 75 75 75s75-33.647 75-75c0-8.291-6.709-15-15-15z" fill="url(#SVGID_3_)"/></g></g></g></svg>