<svg id="Capa_1" enable-background="new 0 0 512 512" height="512" viewBox="0 0 512 512" width="512" xmlns="http://www.w3.org/2000/svg" xmlns:xlink="http://www.w3.org/1999/xlink"><linearGradient id="SVGID_1_" gradientUnits="userSpaceOnUse" x1="256" x2="256" y1="512" y2="15"><stop offset="0" stop-color="#00b59c"/><stop offset="1" stop-color="#9cffac"/></linearGradient><linearGradient id="lg1"><stop offset="0" stop-color="#c3ffe8"/><stop offset=".9973" stop-color="#f0fff4"/></linearGradient><linearGradient id="SVGID_2_" gradientUnits="userSpaceOnUse" x1="256.096" x2="256.096" xlink:href="#lg1" y1="30" y2="0"/><linearGradient id="SVGID_3_" gradientUnits="userSpaceOnUse" x1="256.096" x2="256.096" xlink:href="#lg1" y1="512" y2="243.425"/><g><path d="m458.295 397.7-127.199-204.9v-177.8h-150v177.8l-126.9 204.9c-14.7 23.099-15.3 52.2-1.8 75.599 13.2 24.001 38.099 38.701 65.4 38.701h123.3l15-30 15 30h123.3c27.301 0 52.2-14.7 65.4-38.701 13.199-23.399 12.6-52.5-1.501-75.599z" fill="url(#SVGID_1_)"/><g><path d="m346.096 30h-180c-8.291 0-15-6.709-15-15s6.709-15 15-15h180c8.291 0 15 6.709 15 15s-6.709 15-15 15z" fill="url(#SVGID_2_)"/></g><path d="m331.096 362c0 36.299-25.8 66.599-60 73.5v76.5h-30v-76.5c-34.2-6.901-60-37.202-60-73.5 0-49.801 57.9-107.701 64.501-114.3 5.999-5.7 15-5.7 20.999 0 6.6 6.599 64.5 64.499 64.5 114.3z" fill="url(#SVGID_3_)"/></g></svg>