<svg id="Capa_1" enable-background="new 0 0 512 512" height="512" viewBox="0 0 512 512" width="512" xmlns="http://www.w3.org/2000/svg" xmlns:xlink="http://www.w3.org/1999/xlink"><linearGradient id="SVGID_1_" gradientUnits="userSpaceOnUse" x1="256" x2="256" y1="512" y2="120"><stop offset="0" stop-color="#fd5900"/><stop offset="1" stop-color="#ffde00"/></linearGradient><linearGradient id="lg1"><stop offset="0" stop-color="#ffedad"/><stop offset="1" stop-color="#ffffe5"/></linearGradient><linearGradient id="SVGID_2_" gradientUnits="userSpaceOnUse" x1="256" x2="256" xlink:href="#lg1" y1="181" y2="0"/><linearGradient id="SVGID_3_" gradientUnits="userSpaceOnUse" x1="256" x2="256" xlink:href="#lg1" y1="512" y2="181.374"/><g><g id="Eco_Bag_2_"><g><path d="m451 133.799c-.601-7.799-7.2-13.799-15-13.799h-360c-7.8 0-14.399 6-15 13.799l-30 362c-.3 4.2 1.199 8.401 3.9 11.4 2.999 3.001 6.9 4.801 11.1 4.801h195l15-30 15 30h195c4.2 0 8.101-1.8 11.1-4.801 2.701-2.999 4.2-7.2 3.9-11.4z" fill="url(#SVGID_1_)"/></g><g><path d="m376 181c-8.291 0-15-6.709-15-15v-31c0-57.891-47.109-105-105-105s-105 47.109-105 105v31c0 8.291-6.709 15-15 15s-15-6.709-15-15v-31c0-74.443 60.557-135 135-135s135 60.557 135 135v31c0 8.291-6.709 15-15 15z" fill="url(#SVGID_2_)"/></g></g><path d="m361 346c0 52.8-39.3 96-90 103.5v62.5h-30v-62.5c-50.7-7.5-90-50.7-90-103.5 0-54 84.3-149.401 93.9-159.901 5.7-6.301 16.5-6.301 22.2 0 9.6 10.5 93.9 105.901 93.9 159.901z" fill="url(#SVGID_3_)"/></g></svg>