<svg id="Capa_1" enable-background="new 0 0 512 512" height="512" viewBox="0 0 512 512" width="512" xmlns="http://www.w3.org/2000/svg" xmlns:xlink="http://www.w3.org/1999/xlink"><linearGradient id="lg1"><stop offset="0" stop-color="#addcff"/><stop offset=".5028" stop-color="#eaf6ff"/><stop offset="1" stop-color="#eaf6ff"/></linearGradient><linearGradient id="SVGID_1_" gradientUnits="userSpaceOnUse" x1="256.5" x2="256.5" xlink:href="#lg1" y1="511" y2="301"/><linearGradient id="SVGID_2_" gradientUnits="userSpaceOnUse" x1="256" x2="256" y1="331" y2="1"><stop offset="0" stop-color="#5558ff"/><stop offset="1" stop-color="#00c0ff"/></linearGradient><linearGradient id="SVGID_3_" gradientUnits="userSpaceOnUse" x1="106" x2="106" xlink:href="#lg1" y1="91" y2="1"/><linearGradient id="SVGID_4_" gradientUnits="userSpaceOnUse" x1="256" x2="256" xlink:href="#lg1" y1="91" y2="1"/><linearGradient id="SVGID_5_" gradientUnits="userSpaceOnUse" x1="406" x2="406" xlink:href="#lg1" y1="91" y2="1"/><g id="Billboard_2_"><g><g><path d="m466 361h-165v-45c0-8.291-6.709-15-15-15h-60c-8.291 0-15 6.709-15 15v45h-165c-8.291 0-15 6.709-15 15s6.709 15 15 15h165v90h-15c-8.291 0-15 6.709-15 15s6.709 15 15 15h120c8.291 0 15-6.709 15-15s-6.709-15-15-15h-15v-90h165c8.291 0 16-6.709 16-15s-7.709-15-16-15z" fill="url(#SVGID_1_)"/></g></g><path d="m497 1h-76v30h-30v-30h-120v30h-30v-30h-120v30h-30v-30h-76c-8.401 0-15 6.599-15 15v300c0 8.399 6.599 15 15 15h482c8.401 0 15-6.601 15-15v-300c0-8.401-6.599-15-15-15z" fill="url(#SVGID_2_)"/><g><path d="m151 76c0 8.399-6.599 15-15 15h-60c-8.401 0-15-6.601-15-15 0-8.401 6.599-15 15-15h15v-60h30v60h15c8.401 0 15 6.599 15 15z" fill="url(#SVGID_3_)"/><path d="m301 76c0 8.399-6.599 15-15 15h-60c-8.401 0-15-6.601-15-15 0-8.401 6.599-15 15-15h15v-60h30v60h15c8.401 0 15 6.599 15 15z" fill="url(#SVGID_4_)"/><path d="m451 76c0 8.399-6.599 15-15 15h-60c-8.401 0-15-6.601-15-15 0-8.401 6.599-15 15-15h15v-60h30v60h15c8.401 0 15 6.599 15 15z" fill="url(#SVGID_5_)"/></g></g></svg>