<svg id="Capa_1" enable-background="new 0 0 512 512" height="512" viewBox="0 0 512 512" width="512" xmlns="http://www.w3.org/2000/svg" xmlns:xlink="http://www.w3.org/1999/xlink"><linearGradient id="SVGID_1_" gradientUnits="userSpaceOnUse" x1="256" x2="256" y1="270" y2="0"><stop offset="0" stop-color="#00b59c"/><stop offset="1" stop-color="#9cffac"/></linearGradient><linearGradient id="SVGID_2_" gradientUnits="userSpaceOnUse" x1="256" x2="256" y1="512" y2="150.667"><stop offset="0" stop-color="#c3ffe8"/><stop offset=".9973" stop-color="#f0fff4"/></linearGradient><g><g><path d="m377 270h-76c-5.684 0-10.869-3.208-13.418-8.291l-31.582-63.164-31.582 63.164c-2.549 5.083-7.734 8.291-13.418 8.291h-76c-74.443 0-135-60.557-135-135 0-35.757 14.004-69.653 39.419-95.435 25.928-25.561 59.824-39.565 95.581-39.565h242c74.443 0 135 60.557 135 135 0 35.757-14.004 69.653-39.419 95.435-25.928 25.561-59.824 39.565-95.581 39.565z" fill="url(#SVGID_1_)"/></g><g><path d="m286 512h-60c-8.291 0-15-6.709-15-15v-137h-45c-5.2 0-10.02-2.695-12.759-7.119s-2.988-9.946-.659-14.59l90-180c5.098-10.166 21.738-10.166 26.836 0l90 180c2.329 4.644 2.08 10.166-.659 14.59s-7.559 7.119-12.759 7.119h-45v137c0 8.291-6.709 15-15 15z" fill="url(#SVGID_2_)"/></g></g></svg>