<svg id="Capa_1" enable-background="new 0 0 512 512" height="512" viewBox="0 0 512 512" width="512" xmlns="http://www.w3.org/2000/svg" xmlns:xlink="http://www.w3.org/1999/xlink"><linearGradient id="lg1"><stop offset="0" stop-color="#addcff"/><stop offset=".5028" stop-color="#eaf6ff"/><stop offset="1" stop-color="#eaf6ff"/></linearGradient><linearGradient id="SVGID_1_" gradientUnits="userSpaceOnUse" x1="421" x2="421" xlink:href="#lg1" y1="451" y2="91"/><linearGradient id="SVGID_2_" gradientUnits="userSpaceOnUse" x1="211" x2="211" y1="497" y2="0"><stop offset="0" stop-color="#5558ff"/><stop offset="1" stop-color="#00c0ff"/></linearGradient><linearGradient id="SVGID_3_" gradientUnits="userSpaceOnUse" x1="211" x2="211" xlink:href="#lg1" y1="512" y2="61"/><g><g><path d="m451 451c-24.814 0-45-20.186-45-45v-120c0-8.276-6.738-15-15-15h-30c-8.291 0-15-6.709-15-15s6.709-15 15-15h30c24.814 0 45 20.186 45 45v120c0 8.276 6.738 15 15 15s15-6.724 15-15v-233.789l-55.605-55.605c-5.859-5.859-5.859-15.352 0-21.211s15.352-5.859 21.211 0l60 60c2.812 2.812 4.394 6.621 4.394 10.605v240c0 24.814-20.186 45-45 45z" fill="url(#SVGID_1_)"/></g><path d="m376 15c0-8.401-6.599-15-15-15h-300c-8.401 0-15 6.599-15 15v482h330z" fill="url(#SVGID_2_)"/><g><g><g><path d="m121 211h180c8.291 0 15-6.709 15-15v-120c0-8.291-6.709-15-15-15h-180c-8.291 0-15 6.709-15 15v120c0 8.291 6.709 15 15 15zm270 271h-165v-47.518c34.199-6.969 60-37.266 60-73.482 0-49.878-57.92-107.842-64.512-114.287-5.859-5.684-15.117-5.684-20.977 0-6.591 6.445-64.511 64.409-64.511 114.287 0 36.216 25.801 66.513 60 73.482v47.518h-165c-8.291 0-15 6.709-15 15s6.709 15 15 15h360c8.291 0 15-6.709 15-15s-6.709-15-15-15z" fill="url(#SVGID_3_)"/></g></g></g></g></svg>