<svg id="Capa_1" enable-background="new 0 0 512 512" height="512" viewBox="0 0 512 512" width="512" xmlns="http://www.w3.org/2000/svg" xmlns:xlink="http://www.w3.org/1999/xlink"><linearGradient id="lg1"><stop offset="0" stop-color="#ffedad"/><stop offset="1" stop-color="#ffffe5"/></linearGradient><linearGradient id="SVGID_1_" gradientUnits="userSpaceOnUse" x1="256" x2="256" xlink:href="#lg1" y1="228.802" y2="0"/><linearGradient id="SVGID_2_" gradientUnits="userSpaceOnUse" x1="256" x2="256" y1="512" y2="182.136"><stop offset="0" stop-color="#fd5900"/><stop offset="1" stop-color="#ffde00"/></linearGradient><linearGradient id="SVGID_3_" gradientUnits="userSpaceOnUse" x1="256.294" x2="256.294" xlink:href="#lg1" y1="434.861" y2="242.645"/><g><g><g id="Medal_1_"><g><g><path d="m479.345 8.145c-2.578-5.01-7.721-8.145-13.345-8.145h-120c-4.849 0-9.39 2.344-12.202 6.284l-77.78 110.896-77.816-110.896c-2.812-3.94-7.353-6.284-12.202-6.284h-120c-5.625 0-10.767 3.135-13.345 8.145-2.563 4.995-2.124 11.001 1.143 15.586l140.698 198.802c2.9 4.058 7.5 6.27 12.217 6.27 2.344 0 4.717-.557 6.929-1.699 30.214-15.774 67.636-19.072 100.241-9.842.308.112.529.361.848.452 7.778 2.241 15.586 5.361 23.848 9.507 2.153 1.069 4.453 1.582 6.709 1.582 4.717 0 9.316-2.227 12.217-6.27l140.697-198.803c3.267-4.584 3.706-10.59 1.143-15.585z" fill="url(#SVGID_1_)"/></g></g></g></g><g><path d="m256 512c-90.981 0-165-74.019-165-165 0-61.626 33.999-117.759 88.726-146.484 37.266-19.453 83.174-23.525 123.354-11.924 3.03.891 17.042 5.85 28.945 11.792 54.976 28.857 88.975 84.99 88.975 146.616 0 90.981-74.019 165-165 165z" fill="url(#SVGID_2_)"/></g><g><path d="m300.634 433.06-45.293-24.434-45.806 23.452c-5.039 2.651-11.206 2.124-15.791-1.304-4.585-3.413-6.826-9.126-5.801-14.736l9.243-50.625-36.46-36.299c-4.058-4.028-5.464-10.005-3.633-15.425 1.816-5.405 6.548-9.316 12.217-10.078l51.006-6.855 23.262-45.894c2.578-5.098 7.646-8.013 13.535-8.218 5.713.059 10.884 3.354 13.359 8.511l22.28 46.377 50.845 7.939c5.64.879 10.298 4.893 11.997 10.342 1.714 5.449.176 11.396-3.955 15.337l-37.236 35.522 8.159 50.815c.908 5.64-1.465 11.294-6.123 14.604-4.69 3.314-10.785 3.677-15.805.969z" fill="url(#SVGID_3_)"/></g></g></svg>