<svg id="Capa_1" enable-background="new 0 0 512 512" height="512" viewBox="0 0 512 512" width="512" xmlns="http://www.w3.org/2000/svg" xmlns:xlink="http://www.w3.org/1999/xlink"><linearGradient id="lg1"><stop offset="0" stop-color="#ffc8d1"/><stop offset="1" stop-color="#fff6f7"/></linearGradient><linearGradient id="SVGID_1_" gradientUnits="userSpaceOnUse" x1="86.649" x2="86.649" xlink:href="#lg1" y1="201.299" y2="60"/><linearGradient id="SVGID_2_" gradientUnits="userSpaceOnUse" x1="271" x2="271" y1="512" y2="0"><stop offset="0" stop-color="#fd3a84"/><stop offset="1" stop-color="#ffa68d"/></linearGradient><linearGradient id="SVGID_3_" gradientUnits="userSpaceOnUse" x1="271" x2="271" xlink:href="#lg1" y1="512" y2="180.374"/><g><path d="m152.875 133.066-37.027-36.801 10.66-10.66c5.859-5.859 5.859-15.352 0-21.211s-15.352-5.859-21.211 0c-30.423 30.423-88.309 88.309-84.902 84.902-5.859 5.859-5.859 15.352 0 21.211s15.351 5.86 21.211 0l10.66-10.66 36.801 37.028c2.813 2.827 6.621 4.424 10.605 4.424h.029c3.984 0 7.793-1.582 10.605-4.395l42.598-42.598c2.813-2.813 4.395-6.636 4.395-10.635 0-3.983-1.611-7.792-4.424-10.605z" fill="url(#SVGID_1_)"/><g id="Gasoline_2_"><path d="m451 0h-240c-24.901 0-45 20.099-45 45v53.699l-115.499 115.8c-3.001 2.701-4.501 6.601-4.501 10.501v241c0 24.899 20.099 46 45 46h165l15-30 15 30h165c24.901 0 45-21.101 45-46v-421c0-24.901-20.099-45-45-45zm-15 135c0 8.399-6.599 15-15 15h-180c-8.401 0-15-6.601-15-15v-60c0-8.401 6.599-15 15-15h180c8.401 0 15 6.599 15 15z" fill="url(#SVGID_2_)"/><path d="m376 345c0 52.8-39.3 97-90 104.5v62.5h-30v-62.5c-50.7-7.5-90-51.7-90-104.5 0-54 84.3-149.401 93.9-159.901 5.7-6.301 16.5-6.301 22.2 0 9.6 10.5 93.9 105.901 93.9 159.901z" fill="url(#SVGID_3_)"/></g></g></svg>