<svg id="Capa_1" enable-background="new 0 0 512 512" height="512" viewBox="0 0 512 512" width="512" xmlns="http://www.w3.org/2000/svg" xmlns:xlink="http://www.w3.org/1999/xlink"><linearGradient id="SVGID_1_" gradientUnits="userSpaceOnUse" x1="256" x2="256" y1="421" y2="91"><stop offset="0" stop-color="#fd5900"/><stop offset="1" stop-color="#ffde00"/></linearGradient><linearGradient id="SVGID_2_" gradientUnits="userSpaceOnUse" x1="256" x2="256" y1="421" y2="151"><stop offset="0" stop-color="#ffe59a"/><stop offset="1" stop-color="#ffffd5"/></linearGradient><g><g><g><path d="m497 91h-482c-8.401 0-15 6.599-15 15v300c0 8.399 6.599 15 15 15h112.5l67.5-45h122l67.5 45h112.5c8.401 0 15-6.601 15-15v-300c0-8.401-6.599-15-15-15z" fill="url(#SVGID_1_)"/></g></g><g><g><path d="m377 151h-242c-41.4 0-75 33.6-75 75s33.6 75 75 75h242c41.4 0 75-33.6 75-75s-33.6-75-75-75zm-242 90c-8.401 0-15-6.601-15-15 0-8.401 6.599-15 15-15s15 6.599 15 15c0 8.399-6.599 15-15 15zm182.352 30h-122.704c9.504-12.568 15.352-28.041 15.352-45s-5.848-32.432-15.352-45h122.703c-9.503 12.568-15.351 28.041-15.351 45s5.848 32.432 15.352 45zm59.648-30c-8.401 0-15-6.601-15-15 0-8.401 6.599-15 15-15s15 6.599 15 15c0 8.399-6.599 15-15 15zm-39.271 105h-163.458c-5.682 0-10.875 3.21-13.417 8.292l-33.354 66.708h257l-33.354-66.708c-2.541-5.082-7.735-8.292-13.417-8.292z" fill="url(#SVGID_2_)"/></g></g></g></svg>