<svg id="Capa_1" enable-background="new 0 0 512 512" height="512" viewBox="0 0 512 512" width="512" xmlns="http://www.w3.org/2000/svg" xmlns:xlink="http://www.w3.org/1999/xlink"><linearGradient id="SVGID_1_" gradientUnits="userSpaceOnUse" x1="256" x2="256" y1="450.691" y2="61"><stop offset="0" stop-color="#ffffd5"/><stop offset="1" stop-color="#ffe59a"/></linearGradient><linearGradient id="SVGID_2_" gradientUnits="userSpaceOnUse" x1="256" x2="256" y1="451" y2="361"><stop offset="0" stop-color="#fd5900"/><stop offset="1" stop-color="#ffde00"/></linearGradient><g><path d="m510.326 129.115c-1.437-2.782-36.319-68.115-134.326-68.115-65.406 0-102.271 29.094-120 49.328-17.729-20.234-54.594-49.328-120-49.328-98.007 0-132.889 65.333-134.326 68.115-1.1 2.128-1.674 4.489-1.674 6.885v300c0 6.958 4.738 13.094 11.51 14.691l246.49-30.691 242.49 30.691c6.772-1.597 11.51-7.733 11.51-14.691v-300c0-2.396-.574-4.757-1.674-6.885z" fill="url(#SVGID_1_)"/><g><g><path d="m510.326 429.115c-1.437-2.782-36.319-68.115-134.326-68.115-65.416 0-102.275 29.099-120 49.333-17.725-20.234-54.584-49.333-120-49.333-98.007 0-132.889 65.333-134.326 68.115-2.403 4.65-2.208 10.216.515 14.687 2.722 4.47 7.577 7.198 12.811 7.198h241 241c5.234 0 10.089-2.728 12.812-7.199 2.722-4.47 2.917-10.036.514-14.686z" fill="url(#SVGID_2_)"/></g></g></g></svg>