<svg id="Capa_1" enable-background="new 0 0 512 512" height="512" viewBox="0 0 512 512" width="512" xmlns="http://www.w3.org/2000/svg" xmlns:xlink="http://www.w3.org/1999/xlink"><linearGradient id="lg1"><stop offset="0" stop-color="#addcff"/><stop offset=".5028" stop-color="#eaf6ff"/><stop offset="1" stop-color="#eaf6ff"/></linearGradient><linearGradient id="SVGID_1_" gradientUnits="userSpaceOnUse" x1="256" x2="256" xlink:href="#lg1" y1="331" y2="241"/><linearGradient id="SVGID_2_" gradientUnits="userSpaceOnUse" x1="256" x2="256" y1="512" y2="60"><stop offset="0" stop-color="#5558ff"/><stop offset="1" stop-color="#00c0ff"/></linearGradient><linearGradient id="SVGID_3_" gradientUnits="userSpaceOnUse" x1="256" x2="256" xlink:href="#lg1" y1="421" y2="0"/><g><g><path d="m482 271v30l-241 30-211-30v-30l211-30z" fill="url(#SVGID_1_)"/></g><g id="Drawer_1_"><g><path d="m30 497c0 8.399 6.599 15 15 15h422c8.401 0 15-6.601 15-15v-196h-452zm437-437h-422c-8.401 0-15 6.599-15 15v196h452v-196c0-8.401-6.599-15-15-15z" fill="url(#SVGID_2_)"/></g></g><g><g><path d="m316 151c-8.291 0-15 6.709-15 15v15h-90v-15c0-8.291-6.709-15-15-15s-15 6.709-15 15v30c0 8.291 6.709 15 15 15h120c8.291 0 15-6.709 15-15v-30c0-8.291-6.709-15-15-15zm0 210c-8.291 0-15 6.709-15 15v15h-90v-15c0-8.291-6.709-15-15-15s-15 6.709-15 15v30c0 8.291 6.709 15 15 15h120c8.291 0 15-6.709 15-15v-30c0-8.291-6.709-15-15-15zm181-361h-482c-8.291 0-15 6.709-15 15v60c0 8.291 6.709 15 15 15h482c8.291 0 15-6.709 15-15v-60c0-8.291-6.709-15-15-15z" fill="url(#SVGID_3_)"/></g></g></g></svg>