<svg id="Capa_1" enable-background="new 0 0 512 512" height="512" viewBox="0 0 512 512" width="512" xmlns="http://www.w3.org/2000/svg" xmlns:xlink="http://www.w3.org/1999/xlink"><linearGradient id="SVGID_1_" gradientUnits="userSpaceOnUse" x1="256" x2="256" y1="480.998" y2="33.38"><stop offset="0" stop-color="#fd3a84"/><stop offset="1" stop-color="#ffa68d"/></linearGradient><linearGradient id="lg1"><stop offset="0" stop-color="#ffc8d1"/><stop offset="1" stop-color="#fff6f7"/></linearGradient><linearGradient id="SVGID_2_" gradientUnits="userSpaceOnUse" x1="256" x2="256" xlink:href="#lg1" y1="270.998" y2="31.002"/><linearGradient id="SVGID_3_" gradientUnits="userSpaceOnUse" x1="105" x2="105" xlink:href="#lg1" y1="240.998" y2="150.998"/><linearGradient id="SVGID_4_" gradientUnits="userSpaceOnUse" x1="407" x2="407" xlink:href="#lg1" y1="240.998" y2="150.998"/><linearGradient id="SVGID_5_" gradientUnits="userSpaceOnUse" x1="347" x2="347" xlink:href="#lg1" y1="420.998" y2="330.998"/><linearGradient id="SVGID_6_" gradientUnits="userSpaceOnUse" x1="165" x2="165" xlink:href="#lg1" y1="420.998" y2="330.998"/><g><path d="m495.945 43.932c-9.902-8.423-22.793-12.041-35.42-9.99-85.889 14.008-171.271 92.842-204.525 178.601-33.252-85.759-118.629-164.593-204.496-178.601-12.744-2.036-25.547 1.582-35.449 9.99-10.196 8.672-16.055 21.314-16.055 34.673v117.393c0 53.848 40.913 97.852 93.195 103.806-20.323 19.162-33.195 46.13-33.195 76.194 0 57.891 47.109 105 105 105 38.39 0 72.686-20.94 91-51.78 18.314 30.84 52.61 51.78 91 51.78 57.891 0 105-47.109 105-105 0-30.064-12.872-57.032-33.195-76.194 52.282-5.955 93.195-49.959 93.195-103.806v-117.393c0-13.359-5.859-26.001-16.055-34.673z" fill="url(#SVGID_1_)"/><g id="Butterfly_1_"><path d="m329.418 39.289c-3.721-7.427-12.715-10.386-20.127-6.709-23.267 11.635-41.417 29.894-53.227 51.722-11.807-21.855-30.073-40.082-53.355-51.722-7.412-3.647-16.406-.718-20.127 6.709-3.691 7.412-.703 16.421 6.709 20.127 31.904 15.952 51.709 48.003 51.709 83.657v112.925c0 8.291 6.709 15 15 15s15-6.709 15-15v-112.925c0-35.654 19.805-67.705 51.709-83.657 7.412-3.706 10.4-12.715 6.709-20.127z" fill="url(#SVGID_2_)"/><g><path d="m105 240.998c-24.814 0-45-20.186-45-45s20.186-45 45-45 45 20.186 45 45-20.186 45-45 45z" fill="url(#SVGID_3_)"/></g><g><path d="m407 240.998c-24.814 0-45-20.186-45-45s20.186-45 45-45 45 20.186 45 45-20.186 45-45 45z" fill="url(#SVGID_4_)"/></g><g><path d="m347 420.998c-24.814 0-45-20.186-45-45s20.186-45 45-45 45 20.186 45 45-20.186 45-45 45z" fill="url(#SVGID_5_)"/></g><g><path d="m165 420.998c-24.814 0-45-20.186-45-45s20.186-45 45-45 45 20.186 45 45-20.186 45-45 45z" fill="url(#SVGID_6_)"/></g></g></g></svg>