<svg id="Capa_1" enable-background="new 0 0 512 512" height="512" viewBox="0 0 512 512" width="512" xmlns="http://www.w3.org/2000/svg" xmlns:xlink="http://www.w3.org/1999/xlink"><linearGradient id="SVGID_1_" gradientUnits="userSpaceOnUse" x1="256" x2="256" y1="512" y2="60.003"><stop offset="0" stop-color="#5558ff"/><stop offset="1" stop-color="#00c0ff"/></linearGradient><linearGradient id="SVGID_2_" gradientUnits="userSpaceOnUse" x1="256" x2="256" y1="180" y2="0"><stop offset="0" stop-color="#addcff"/><stop offset=".5028" stop-color="#eaf6ff"/><stop offset="1" stop-color="#eaf6ff"/></linearGradient><g><g><path d="m330.91 435.36-29.64-268.74 13.96-41.88c1.8-5.39.39-11.33-3.62-15.35l-45-45c-5.86-5.85-15.36-5.85-21.22 0l-45 45c-4.01 4.02-5.42 9.96-3.62 15.35l13.96 41.88-29.64 268.74c-.5 4.52 1.08 9.03 4.3 12.25l60 60c2.93 2.93 6.77 4.39 10.61 4.39s7.68-1.46 10.61-4.39l60-60c3.22-3.22 4.8-7.73 4.3-12.25z" fill="url(#SVGID_1_)"/></g><g id="tie"><path d="m444.771 2.832c-3.911-2.819-8.939-3.585-13.514-2.062l-175.257 58.418-175.256-58.418c-4.574-1.524-9.604-.758-13.515 2.062-3.911 2.819-6.229 7.346-6.229 12.168v60c0 3.978 1.581 7.793 4.394 10.606l90 90c2.928 2.93 6.767 4.394 10.606 4.394s7.678-1.464 10.606-4.394l79.394-79.393 79.394 79.394c2.928 2.929 6.767 4.393 10.606 4.393s7.678-1.464 10.606-4.394l90-90c2.813-2.813 4.394-6.628 4.394-10.606v-60c0-4.822-2.318-9.349-6.229-12.168z" fill="url(#SVGID_2_)"/></g></g></svg>