<svg id="Capa_1" enable-background="new 0 0 512 512" height="512" viewBox="0 0 512 512" width="512" xmlns="http://www.w3.org/2000/svg" xmlns:xlink="http://www.w3.org/1999/xlink"><linearGradient id="lg1"><stop offset="0" stop-color="#5558ff"/><stop offset="1" stop-color="#00c0ff"/></linearGradient><linearGradient id="SVGID_1_" gradientUnits="userSpaceOnUse" x1="256" x2="256" xlink:href="#lg1" y1="421" y2="0"/><linearGradient id="lg2"><stop offset="0" stop-color="#addcff"/><stop offset=".5028" stop-color="#eaf6ff"/><stop offset="1" stop-color="#eaf6ff"/></linearGradient><linearGradient id="SVGID_2_" gradientUnits="userSpaceOnUse" x1="383.5" x2="383.5" xlink:href="#lg2" y1="301" y2="181"/><linearGradient id="SVGID_3_" gradientUnits="userSpaceOnUse" x1="263.5" x2="263.5" xlink:href="#lg2" y1="271" y2="121"/><linearGradient id="SVGID_4_" gradientUnits="userSpaceOnUse" x1="136.906" x2="136.906" xlink:href="#lg2" y1="271" y2="121"/><linearGradient id="SVGID_5_" gradientUnits="userSpaceOnUse" x1="286" x2="286" xlink:href="#lg1" y1="512" y2="422"/><g><g><path d="m196 421c-36.211 0-66.533-25.811-73.506-60h-1.494c-66.182 0-121-53.833-121-120 0-29.004 11.723-56.792 31.293-78.911 2.9-90.22 75.674-162.089 164.707-162.089 50.303 0 97.764 24.145 129.023 63.417 7.266-1.626 14.209-2.417 20.977-2.417 46.465 0 86.514 29.897 100.078 73.682 39.61 20.551 65.922 61.714 65.922 106.318 0 66.167-54.818 120-121 120h-121.494c-6.973 34.189-37.295 60-73.506 60z" fill="url(#SVGID_1_)"/></g><g id="Carbon_dioxide_3_"><g><path d="m413.5 301h-60c-6.943 0-12.979-4.775-14.59-11.543s1.67-13.755 7.881-16.875c21.68-10.869 51.709-33.12 51.709-46.582 0-8.276-6.738-15-15-15s-15 6.724-15 15c0 8.291-6.709 15-15 15s-15-6.709-15-15c0-24.814 20.186-45 45-45s45 20.186 45 45c0 17.007-11.777 32.563-25.693 45h10.693c8.291 0 15 6.709 15 15s-6.709 15-15 15z" fill="url(#SVGID_2_)"/></g><g><path d="m263.5 271c-33.076 0-60-33.647-60-75s26.924-75 60-75 60 33.647 60 75-26.924 75-60 75zm0-120c-16.26 0-30 20.61-30 45s13.74 45 30 45 30-20.61 30-45-13.74-45-30-45z" fill="url(#SVGID_3_)"/></g><g><path d="m143.5 271c-37.559 0-60-38.13-60-75s22.441-75 60-75c16.611 0 32.578 8.599 43.828 23.584 4.951 6.636 3.604 16.025-3.018 20.991-6.621 4.951-15.996 3.662-21.006-3.003-3.222-4.321-10.107-11.572-19.804-11.572-17.959 0-30 23.262-30 45s12.041 45 30 45c9.697 0 16.582-7.251 19.805-11.572 5.01-6.606 14.414-7.954 21.006-3.003 6.621 4.966 7.969 14.355 3.018 20.991-11.251 14.985-27.218 23.584-43.829 23.584z" fill="url(#SVGID_4_)"/></g><g><path d="m286 512c-24.814 0-45-20.186-45-45s20.186-45 45-45 45 20.186 45 45-20.186 45-45 45z" fill="url(#SVGID_5_)"/></g></g></g></svg>