<svg id="Capa_1" enable-background="new 0 0 512 512" height="512" viewBox="0 0 512 512" width="512" xmlns="http://www.w3.org/2000/svg" xmlns:xlink="http://www.w3.org/1999/xlink"><linearGradient id="SVGID_1_" gradientUnits="userSpaceOnUse" x1="226" x2="226" y1="512" y2="0"><stop offset="0" stop-color="#addcff"/><stop offset=".5028" stop-color="#eaf6ff"/><stop offset="1" stop-color="#eaf6ff"/></linearGradient><linearGradient id="SVGID_2_" gradientUnits="userSpaceOnUse" x1="256" x2="256" y1="271" y2="31"><stop offset="0" stop-color="#5558ff"/><stop offset="1" stop-color="#00c0ff"/></linearGradient><g><g><path d="m226 512c-24.814 0-45-20.186-45-45v-30c0-8.291 6.709-15 15-15s15 6.709 15 15v30c0 8.276 6.724 15 15 15s15-6.724 15-15v-452c0-8.291 6.709-15 15-15s15 6.709 15 15v452c0 24.814-20.186 45-45 45z" fill="url(#SVGID_1_)"/></g><g><path d="m376 271c-8.291 0-15-6.709-15-15 0-24.814-20.186-45-45-45s-45 20.186-45 45c0 8.291-6.709 15-15 15s-15-6.709-15-15c0-24.814-20.186-45-45-45s-45 20.186-45 45c0 8.291-6.709 15-15 15s-15-6.709-15-15c0-24.814-20.186-45-45-45-22.866 0-42.524 17.783-44.78 40.474-.806 8.042-8.013 13.74-15.864 13.491-8.057-.498-14.268-7.28-14.063-15.352 3.647-142.002 133.96-218.613 254.707-218.613s251.06 76.611 254.707 218.613c.205 8.071-6.006 14.854-14.063 15.352-8.364.381-15.059-5.449-15.864-13.491-2.256-22.691-21.914-40.474-44.78-40.474-24.814 0-45 20.186-45 45 0 8.291-6.709 15-15 15z" fill="url(#SVGID_2_)"/></g></g></svg>