<svg id="Capa_1" enable-background="new 0 0 512 512" height="512" viewBox="0 0 512 512" width="512" xmlns="http://www.w3.org/2000/svg" xmlns:xlink="http://www.w3.org/1999/xlink"><linearGradient id="SVGID_1_" gradientUnits="userSpaceOnUse" x1="241" x2="241" y1="512" y2="0"><stop offset="0" stop-color="#fd3a84"/><stop offset="1" stop-color="#ffa68d"/></linearGradient><linearGradient id="SVGID_2_" gradientUnits="userSpaceOnUse" x1="286" x2="286" y1="451" y2="61"><stop offset="0" stop-color="#ffc2cc"/><stop offset="1" stop-color="#fff2f4"/></linearGradient><g><g><g><path d="m391 211 30-60-30-60v-76c0-8.401-6.599-15-15-15h-300c-8.401 0-15 6.599-15 15v482c0 8.399 6.599 15 15 15h300c8.401 0 15-6.601 15-15v-136l30-60-30-60z" fill="url(#SVGID_1_)"/></g></g><g><g><path d="m436 91h-45v120h45c8.401 0 15-6.601 15-15v-90c0-8.401-6.599-15-15-15zm0 150h-45v120h45c8.401 0 15-6.601 15-15v-90c0-8.401-6.599-15-15-15zm-225-32.701v35.4c4.797-1.5 9.602-2.699 15-2.699s10.203 1.199 15 2.699v-35.4c-4.797 1.5-9.602 2.701-15 2.701s-10.203-1.201-15-2.701zm105-147.299h-180c-8.401 0-15 6.599-15 15v300c0 8.399 6.599 15 15 15h180c8.401 0 15-6.601 15-15v-300c0-8.401-6.599-15-15-15zm-45 225c0 24.899-20.098 45-45 45s-45-20.101-45-45v-120c0-24.901 20.098-45 45-45s45 20.099 45 45zm-105 135c-8.284 0-15 6.716-15 15s6.716 15 15 15 15-6.716 15-15-6.716-15-15-15zm60 0c-8.284 0-15 6.716-15 15s6.716 15 15 15 15-6.716 15-15-6.716-15-15-15zm60 0c-8.284 0-15 6.716-15 15s6.716 15 15 15 15-6.716 15-15-6.716-15-15-15z" fill="url(#SVGID_2_)"/></g></g></g></svg>