<svg id="Capa_1" enable-background="new 0 0 512 512" height="512" viewBox="0 0 512 512" width="512" xmlns="http://www.w3.org/2000/svg" xmlns:xlink="http://www.w3.org/1999/xlink"><linearGradient id="SVGID_1_" gradientUnits="userSpaceOnUse" x1="256" x2="256" y1="331" y2="0"><stop offset="0" stop-color="#addcff"/><stop offset=".5028" stop-color="#eaf6ff"/><stop offset="1" stop-color="#eaf6ff"/></linearGradient><linearGradient id="SVGID_2_" gradientUnits="userSpaceOnUse" x1="256" x2="256" y1="512" y2="211"><stop offset="0" stop-color="#5558ff"/><stop offset="1" stop-color="#00c0ff"/></linearGradient><g><path d="m489.614 181.813c-10.64-12.041-24.259-20.958-39.355-25.942 1.177-6.903 1.741-13.415 1.741-19.871 0-36.008-14.234-70.073-40.081-95.919-25.847-25.847-59.911-40.081-95.919-40.081-47.536 0-91.507 25.503-115.712 66.05-11.195-4.02-22.677-6.05-34.288-6.05-28.046 0-54.592 11.1-74.746 31.254-17.738 17.738-28.462 40.426-30.779 64.731-35.664 12.389-60.475 46.41-60.475 85.015 0 49.626 40.374 90 90 90h332c49.626 0 90-40.374 90-90 0-21.831-7.95-42.851-22.386-59.187z" fill="url(#SVGID_1_)"/><path d="m286 512h-60c-8.284 0-15-6.716-15-15v-136h-45c-5.682 0-10.875-3.21-13.417-8.292-2.541-5.082-1.992-11.163 1.417-15.708l90-120c2.833-3.777 7.279-6 12-6s9.167 2.223 12 6l90 120c3.409 4.545 3.957 10.626 1.416 15.708-2.54 5.082-7.734 8.292-13.416 8.292h-45v136c0 8.284-6.716 15-15 15z" fill="url(#SVGID_2_)"/></g></svg>