<svg id="Capa_1" enable-background="new 0 0 512 512" height="512" viewBox="0 0 512 512" width="512" xmlns="http://www.w3.org/2000/svg" xmlns:xlink="http://www.w3.org/1999/xlink"><linearGradient id="lg1"><stop offset="0" stop-color="#ffbef9"/><stop offset="1" stop-color="#fff1ff"/></linearGradient><linearGradient id="SVGID_1_" gradientUnits="userSpaceOnUse" x1="119.999" x2="119.999" xlink:href="#lg1" y1="481.004" y2="301.004"/><linearGradient id="lg2"><stop offset="0" stop-color="#a93aff"/><stop offset="1" stop-color="#ff81ff"/></linearGradient><linearGradient id="SVGID_2_" gradientUnits="userSpaceOnUse" x1="117.228" x2="117.228" xlink:href="#lg2" y1="331.004" y2="151.004"/><linearGradient id="SVGID_3_" gradientUnits="userSpaceOnUse" x1="467" x2="467" xlink:href="#lg2" y1="301.004" y2="181.004"/><linearGradient id="SVGID_4_" gradientUnits="userSpaceOnUse" x1="321.7" x2="321.7" xlink:href="#lg1" y1="451.004" y2="30.996"/><g><g id="Megaphone_2_"><g><path d="m135 481.004h-60c-8.291 0-15-6.709-15-15v-150c0-8.291 6.709-15 15-15h90c4.497 0 8.745 2.021 11.602 5.493 2.842 3.472 3.984 8.042 3.105 12.451l-30 150c-1.406 7.002-7.559 12.056-14.707 12.056z" fill="url(#SVGID_1_)"/></g><g><path d="m191.4 151.004 43.056 91.875-43.056 88.125h-146.4c-24.901 0-45-20.101-45-45v-90c0-24.901 20.099-45 45-45z" fill="url(#SVGID_2_)"/></g><g><g><path d="m497 301.004h-60c-8.291 0-15-6.709-15-15v-90c0-8.291 6.709-15 15-15h60c8.291 0 15 6.709 15 15v90c0 8.291-6.709 15-15 15z" fill="url(#SVGID_3_)"/></g></g></g><path d="m452 46.004v390c0 5.099-2.701 9.899-7.2 12.9-2.401 1.5-5.099 2.1-7.8 2.1-2.401 0-4.501-.601-6.599-1.5l-239.001-118.5v-180l239.001-118.5c4.499-2.1 9.899-2.1 14.399.601 4.499 2.998 7.2 7.797 7.2 12.899z" fill="url(#SVGID_4_)"/></g></svg>