<svg id="Capa_1" enable-background="new 0 0 512 512" height="512" viewBox="0 0 512 512" width="512" xmlns="http://www.w3.org/2000/svg" xmlns:xlink="http://www.w3.org/1999/xlink"><linearGradient id="SVGID_1_" gradientUnits="userSpaceOnUse" x1="256" x2="256" y1="512" y2="0"><stop offset="0" stop-color="#fd3a84"/><stop offset="1" stop-color="#ffa68d"/></linearGradient><path d="m497 241h-46.76c-7.328-95.548-83.692-171.912-179.24-179.24v-46.76c0-8.291-6.709-15-15-15s-15 6.709-15 15v46.76c-95.548 7.328-171.912 83.692-179.24 179.24h-46.76c-8.291 0-15 6.709-15 15s6.709 15 15 15h46.76c7.328 95.548 83.692 171.912 179.24 179.24v46.76c0 8.291 6.709 15 15 15s15-6.709 15-15v-46.76c95.548-7.328 171.912-83.692 179.24-179.24h46.76c8.291 0 15-6.709 15-15s-6.709-15-15-15zm-76.76 0h-30.756c-7.011-62.325-56.159-111.473-118.484-118.484v-30.756c79.021 7.165 142.075 70.219 149.24 149.24zm-74.24 30h13.484c-6.641 45.807-42.676 81.843-88.484 88.484v-13.484c0-8.291-6.709-15-15-15s-15 6.709-15 15v13.484c-45.807-6.641-81.843-42.676-88.484-88.484h13.484c8.291 0 15-6.709 15-15s-6.709-15-15-15h-13.484c6.641-45.807 42.676-81.843 88.484-88.484v13.484c0 8.291 6.709 15 15 15s15-6.709 15-15v-13.484c45.807 6.641 81.843 42.676 88.484 88.484h-13.484c-8.291 0-15 6.709-15 15s6.709 15 15 15zm-105-179.24v30.756c-62.325 7.011-111.473 56.159-118.484 118.484h-30.756c7.165-79.021 70.219-142.075 149.24-149.24zm-149.24 179.24h30.756c7.011 62.325 56.158 111.473 118.484 118.484v30.756c-79.021-7.165-142.075-70.219-149.24-149.24zm179.24 149.24v-30.756c62.325-7.011 111.473-56.158 118.484-118.484h30.756c-7.165 79.021-70.219 142.075-149.24 149.24z" fill="url(#SVGID_1_)"/></svg>