<svg id="Capa_1" enable-background="new 0 0 512.066 512.066" height="512" viewBox="0 0 512.066 512.066" width="512" xmlns="http://www.w3.org/2000/svg" xmlns:xlink="http://www.w3.org/1999/xlink"><linearGradient id="lg1"><stop offset="0" stop-color="#fd5900"/><stop offset="1" stop-color="#ffde00"/></linearGradient><linearGradient id="SVGID_1_" gradientUnits="userSpaceOnUse" x1="256.033" x2="256.033" xlink:href="#lg1" y1="272.033" y2="92.033"/><linearGradient id="SVGID_2_" gradientUnits="userSpaceOnUse" x1="256.033" x2="256.033" xlink:href="#lg1" y1="61.033" y2=".033"/><linearGradient id="SVGID_3_" gradientUnits="userSpaceOnUse" x1="139.373" x2="139.373" xlink:href="#lg1" y1="105.964" y2="54.753"/><linearGradient id="SVGID_4_" gradientUnits="userSpaceOnUse" x1="372.693" x2="372.693" xlink:href="#lg1" y1="105.964" y2="54.753"/><linearGradient id="SVGID_5_" gradientUnits="userSpaceOnUse" x1="421.033" x2="421.033" xlink:href="#lg1" y1="212.033" y2="182.033"/><linearGradient id="SVGID_6_" gradientUnits="userSpaceOnUse" x1="91.033" x2="91.033" xlink:href="#lg1" y1="212.033" y2="182.033"/><linearGradient id="SVGID_7_" gradientUnits="userSpaceOnUse" x1="256.033" x2="256.033" xlink:href="#lg1" y1="512.033" y2="242.033"/><linearGradient id="SVGID_8_" gradientUnits="userSpaceOnUse" x1="256.183" x2="256.183" y1="512.033" y2="242.033"><stop offset="0" stop-color="#ffedad"/><stop offset="1" stop-color="#ffffe5"/></linearGradient><g><g><path d="m323.24 272.033h-134.414c-4.307 0-8.379-1.846-11.221-5.054-17.139-19.336-26.572-44.18-26.572-69.946 0-57.891 47.109-105 105-105s105 47.109 105 105c0 25.767-9.434 50.61-26.572 69.946-2.842 3.208-6.914 5.054-11.221 5.054z" fill="url(#SVGID_1_)"/></g><g id="Solar_Panel_2_"><g><path d="m256.033 61.033c-8.291 0-15-6.709-15-15v-31c0-8.291 6.709-15 15-15s15 6.709 15 15v31c0 8.291-6.709 15-15 15z" fill="url(#SVGID_2_)"/></g><g><path d="m139.373 101.569-21.211-21.211c-5.859-5.859-5.859-15.352 0-21.211s15.352-5.859 21.211 0l21.211 21.211c5.859 5.859 5.859 15.352 0 21.211s-15.352 5.86-21.211 0z" fill="url(#SVGID_3_)"/></g><g><path d="m351.482 101.569c-5.859-5.859-5.859-15.352 0-21.211l21.211-21.211c5.859-5.859 15.352-5.859 21.211 0s5.859 15.352 0 21.211l-21.211 21.211c-5.859 5.859-15.351 5.86-21.211 0z" fill="url(#SVGID_4_)"/></g><g><path d="m436.033 212.033h-30c-8.291 0-15-6.709-15-15s6.709-15 15-15h30c8.291 0 15 6.709 15 15s-6.709 15-15 15z" fill="url(#SVGID_5_)"/></g><g><path d="m106.033 212.033h-30c-8.291 0-15-6.709-15-15s6.709-15 15-15h30c8.291 0 15 6.709 15 15s-6.709 15-15 15z" fill="url(#SVGID_6_)"/></g></g><g><path d="m486.534 392.033-64.501-15 57.001-15-27.301-108.6c-1.8-6.601-7.8-11.4-14.7-11.4h-92.8l-11.25 30-19.05-30h-115.8l-18.75 30-11.55-30h-92.8c-6.899 0-12.9 4.799-14.7 11.4l-27.001 108.6 56.7 15-64.2 15-25.499 101.4c-.901 4.499 0 9.3 2.999 12.9 2.701 3.6 7.2 5.7 11.7 5.7h118.9l18.75-30 11.55 30h183.6l11.25-30 19.05 30h118.9c4.501 0 9-2.1 11.7-5.7 2.999-3.6 3.9-8.401 2.999-12.9z" fill="url(#SVGID_7_)"/><path d="m363.133 392.033 15 120h-30.3l-15-120h-153.6l-15 120h-30.3l15-120h-123.1l7.5-30h119.5l15-120h30.3l-15 120h145.8l-15-120h30.3l15 120h119.801l7.5 30z" fill="url(#SVGID_8_)"/></g></g></svg>