<svg id="Capa_1" enable-background="new 0 0 512 512" height="512" viewBox="0 0 512 512" width="512" xmlns="http://www.w3.org/2000/svg" xmlns:xlink="http://www.w3.org/1999/xlink"><linearGradient id="lg1"><stop offset="0" stop-color="#fd5900"/><stop offset="1" stop-color="#ffde00"/></linearGradient><linearGradient id="SVGID_1_" gradientUnits="userSpaceOnUse" x1="256" x2="256" xlink:href="#lg1" y1="406" y2="90.988"/><linearGradient id="SVGID_2_" gradientUnits="userSpaceOnUse" x1="256" x2="256" y1="421" y2="0"><stop offset="0" stop-color="#ffedad"/><stop offset="1" stop-color="#ffffe5"/></linearGradient><linearGradient id="SVGID_3_" gradientUnits="userSpaceOnUse" x1="256" x2="256" xlink:href="#lg1" y1="512" y2="91"/><g><g><path d="m508.1 186.4-83.573 170.932-168.527 48.668-173.908-62.609-78.192-156.991c0-.3.3-.601.601-.901l90-90c4.199-4.499 10.499-5.7 16.199-3.3s9.3 7.801 9.3 13.801v161.999l136 118.2 136-118.2v-161.999c0-6 3.6-11.4 9.3-13.801s12.001-1.199 16.199 3.3l90 90c.301.3.601.6.601.901z" fill="url(#SVGID_1_)"/></g><g id="email_1_"><g><path d="m256 421c-3.516 0-7.046-1.23-9.873-3.706l-151-131.104c-3.253-2.841-5.127-6.972-5.127-11.294v-259.896c0-8.291 6.709-15 15-15h302c8.291 0 15 6.709 15 15v259.896c0 4.321-1.876 8.452-5.127 11.294l-151 131.104c-2.827 2.476-6.357 3.706-9.873 3.706z" fill="url(#SVGID_2_)"/></g></g><g><g><path d="m256 301c12.026 0 23.818-2.021 35.039-5.991 7.808-2.769 11.895-11.338 9.126-19.146-2.754-7.793-11.309-11.865-19.146-9.126-7.998 2.827-16.406 4.263-25.019 4.263-41.353 0-75-33.647-75-75s33.647-75 75-75 75 33.647 75 75c0 8.276-6.724 15-15 15s-15-6.724-15-15c0-24.814-20.186-45-45-45s-45 20.186-45 45 20.186 45 45 45c11.567 0 22.02-4.508 30-11.704 7.98 7.196 18.433 11.704 30 11.704 24.814 0 45-20.186 45-45 0-57.891-47.109-105-105-105s-105 47.109-105 105 47.109 105 105 105zm0-90c-8.276 0-15-6.724-15-15s6.724-15 15-15 15 6.724 15 15-6.724 15-15 15zm252.1-24.6-252.1 219.6-252.1-219.6c-2.701 2.4-3.9 6-3.9 9.6v301c0 8.399 6.599 15 15 15h482c8.401 0 15-6.601 15-15v-301c0-3.6-1.199-7.2-3.9-9.6z" fill="url(#SVGID_3_)"/></g></g></g></svg>