<svg id="Capa_1" enable-background="new 0 0 512 512" height="512" viewBox="0 0 512 512" width="512" xmlns="http://www.w3.org/2000/svg" xmlns:xlink="http://www.w3.org/1999/xlink"><linearGradient id="SVGID_1_" gradientUnits="userSpaceOnUse" x1="256" x2="256" y1="436.489" y2="46.489"><stop offset="0" stop-color="#5558ff"/><stop offset="1" stop-color="#00c0ff"/></linearGradient><linearGradient id="SVGID_2_" gradientUnits="userSpaceOnUse" x1="256" x2="256" y1="465.511" y2="105.511"><stop offset="0" stop-color="#addcff"/><stop offset=".5028" stop-color="#eaf6ff"/><stop offset="1" stop-color="#eaf6ff"/></linearGradient><g><path d="m497 436.489h-331c-8.291 0-15-6.709-15-15v-270c0-8.276-6.738-15-15-15h-30c-8.262 0-15 6.724-15 15v270c0 8.291-6.709 15-15 15h-61c-8.291 0-15-6.709-15-15v-360c0-8.291 6.709-15 15-15h482c8.291 0 15 6.709 15 15v360c0 8.291-6.709 15-15 15z" fill="url(#SVGID_1_)"/><g><g><path d="m256 345.511h-30c-8.291 0-15 6.709-15 15s6.709 15 15 15h30c8.291 0 15-6.709 15-15s-6.709-15-15-15zm90 0h-30c-8.291 0-15 6.709-15 15s6.709 15 15 15h30c8.291 0 15-6.709 15-15s-6.709-15-15-15zm90 0h-30c-8.291 0-15 6.709-15 15s6.709 15 15 15h30c8.291 0 15-6.709 15-15s-6.709-15-15-15zm0-60h-30c-8.291 0-15 6.709-15 15s6.709 15 15 15h30c8.291 0 15-6.709 15-15s-6.709-15-15-15zm-90 0h-30c-8.291 0-15 6.709-15 15s6.709 15 15 15h30c8.291 0 15-6.709 15-15s-6.709-15-15-15zm-90 .978h-30c-8.291 0-15 6.709-15 15s6.709 15 15 15h30c8.291 0 15-6.709 15-15s-6.709-15-15-15zm0-60h-30c-8.291 0-15 6.709-15 15s6.709 15 15 15h30c8.291 0 15-6.709 15-15s-6.709-15-15-15zm90-.978h-30c-8.291 0-15 6.709-15 15s6.709 15 15 15h30c8.291 0 15-6.709 15-15s-6.709-15-15-15zm90 0h-30c-8.291 0-15 6.709-15 15s6.709 15 15 15h30c8.291 0 15-6.709 15-15s-6.709-15-15-15zm0-120h-210c-8.291 0-15 6.709-15 15v60c0 8.291 6.709 15 15 15h210c8.291 0 15-6.709 15-15v-60c0-8.291-6.709-15-15-15zm-300 0h-30c-24.814 0-45 20.186-45 45v270c0 24.814 20.186 45 45 45h30c24.814 0 45-20.186 45-45v-270c0-24.815-20.185-45-45-45z" fill="url(#SVGID_2_)"/></g></g></g></svg>