<svg id="Capa_1" enable-background="new 0 0 512 512" height="512" viewBox="0 0 512 512" width="512" xmlns="http://www.w3.org/2000/svg" xmlns:xlink="http://www.w3.org/1999/xlink"><linearGradient id="lg1"><stop offset="0" stop-color="#fd3a84"/><stop offset="1" stop-color="#ffa68d"/></linearGradient><linearGradient id="SVGID_1_" gradientUnits="userSpaceOnUse" x1="210" x2="210" xlink:href="#lg1" y1="512" y2="92"/><linearGradient id="lg2"><stop offset="0" stop-color="#ffc2cc"/><stop offset="1" stop-color="#fff2f4"/></linearGradient><linearGradient id="SVGID_2_" gradientUnits="userSpaceOnUse" x1="210" x2="210" xlink:href="#lg2" y1="452" y2="152"/><linearGradient id="SVGID_3_" gradientUnits="userSpaceOnUse" x1="210" x2="210" xlink:href="#lg1" y1="392" y2="212"/><linearGradient id="SVGID_4_" gradientUnits="userSpaceOnUse" x1="353.5" x2="353.5" xlink:href="#lg2" y1="317" y2="0"/><g><path d="m210 512c-115.794 0-210-94.205-210-210s94.206-210 210-210 210 94.206 210 210-94.206 210-210 210z" fill="url(#SVGID_1_)"/><path d="m210 452c-82.71 0-150-67.29-150-150s67.29-150 150-150 150 67.29 150 150-67.29 150-150 150z" fill="url(#SVGID_2_)"/><path d="m210 392c-49.626 0-90-40.374-90-90s40.374-90 90-90 90 40.374 90 90-40.374 90-90 90z" fill="url(#SVGID_3_)"/><path d="m510.858 69.26c-2.322-5.605-7.791-9.26-13.858-9.26h-45v-45c0-6.067-3.654-11.537-9.26-13.858-5.603-2.32-12.057-1.038-16.347 3.252l-60 60c-2.813 2.813-4.393 6.628-4.393 10.606v53.787l-162.606 162.607c-5.858 5.858-5.858 15.355 0 21.213s15.356 5.857 21.213 0l162.606-162.607h53.787c3.979 0 7.794-1.581 10.606-4.394l60-60c4.29-4.289 5.574-10.741 3.252-16.346z" fill="url(#SVGID_4_)"/></g></svg>