<svg id="Capa_1" enable-background="new 0 0 512 512" height="512" viewBox="0 0 512 512" width="512" xmlns="http://www.w3.org/2000/svg" xmlns:xlink="http://www.w3.org/1999/xlink"><linearGradient id="SVGID_1_" gradientUnits="userSpaceOnUse" x1="252.942" x2="252.942" y1="422" y2="0"><stop offset="0" stop-color="#5558ff"/><stop offset="1" stop-color="#00c0ff"/></linearGradient><linearGradient id="SVGID_2_" gradientUnits="userSpaceOnUse" x1="256" x2="256" y1="512" y2="150"><stop offset="0" stop-color="#addcff"/><stop offset=".5028" stop-color="#eaf6ff"/><stop offset="1" stop-color="#eaf6ff"/></linearGradient><g><g><g><path d="m256 150c41.353 0 75-33.647 75-75s-33.647-75-75-75-75 33.647-75 75 33.647 75 75 75zm98.174 247.01c-.439-.513-43.883-54.357-54.747-232.01h-92.875c-10.876 177.652-54.322 231.497-54.63 231.863-4.014 4.38-5.068 10.723-2.666 16.172 2.388 5.449 7.778 8.965 13.726 8.965h180c5.874 0 11.147-3.501 13.594-8.862 2.432-5.347 1.45-11.704-2.402-16.128z" fill="url(#SVGID_1_)"/></g></g><g><g><path d="m346 392h-180c-41.353 0-75 33.647-75 75v30c0 8.291 6.709 15 15 15h300c8.291 0 15-6.709 15-15v-30c0-41.353-33.647-75-75-75zm-180-30h180c8.291 0 15-6.709 15-15s-6.709-15-15-15h-180c-8.291 0-15 6.709-15 15s6.709 15 15 15zm30-182h120c8.291 0 15-6.709 15-15s-6.709-15-15-15h-120c-8.291 0-15 6.709-15 15s6.709 15 15 15z" fill="url(#SVGID_2_)"/></g></g></g></svg>