<svg id="Capa_1" enable-background="new 0 0 512 512" height="512" viewBox="0 0 512 512" width="512" xmlns="http://www.w3.org/2000/svg" xmlns:xlink="http://www.w3.org/1999/xlink"><linearGradient id="SVGID_1_" gradientUnits="userSpaceOnUse" x1="256" x2="256" y1="451" y2="61"><stop offset="0" stop-color="#fd5900"/><stop offset="1" stop-color="#ffde00"/></linearGradient><linearGradient id="SVGID_2_" gradientUnits="userSpaceOnUse" x1="256" x2="256" y1="391" y2="121.015"><stop offset="0" stop-color="#ffe59a"/><stop offset="1" stop-color="#ffffd5"/></linearGradient><g><path d="m497 451h-482c-8.291 0-15-6.709-15-15v-360c0-8.291 6.709-15 15-15h482c8.291 0 15 6.709 15 15v360c0 8.291-6.709 15-15 15z" fill="url(#SVGID_1_)"/><g><g><path d="m203.734 299.125c4.867 2.687 10.73 2.427 15.205-.41l120-75c4.395-2.739 7.061-7.544 7.061-12.715s-2.666-9.976-7.061-12.715l-120-75c-4.541-2.886-10.43-3.018-15.205-.41-4.775 2.651-7.734 7.676-7.734 13.125v150c0 5.449 2.959 10.474 7.734 13.125zm232.266 31.875h-285v-15c0-8.291-6.709-15-15-15s-15 6.709-15 15v15h-45c-8.291 0-15 6.709-15 15s6.709 15 15 15h45v15c0 8.291 6.709 15 15 15s15-6.709 15-15v-15h285c8.291 0 15-6.709 15-15s-6.709-15-15-15z" fill="url(#SVGID_2_)"/></g></g></g></svg>