<svg id="Capa_1" enable-background="new 0 0 512.002 512.002" height="512" viewBox="0 0 512.002 512.002" width="512" xmlns="http://www.w3.org/2000/svg" xmlns:xlink="http://www.w3.org/1999/xlink"><linearGradient id="lg1"><stop offset="0" stop-color="#fd3a84"/><stop offset="1" stop-color="#ffa68d"/></linearGradient><linearGradient id="SVGID_1_" gradientUnits="userSpaceOnUse" x1="82.501" x2="82.501" xlink:href="#lg1" y1="361.002" y2="151.002"/><linearGradient id="SVGID_2_" gradientUnits="userSpaceOnUse" x1="437.001" x2="437.001" xlink:href="#lg1" y1="331.002" y2="181.002"/><linearGradient id="SVGID_3_" gradientUnits="userSpaceOnUse" x1="233.501" x2="233.501" y1="512.002" y2="0"><stop offset="0" stop-color="#ffc2cc"/><stop offset="1" stop-color="#fff2f4"/></linearGradient><g><path d="m135.001 361.002h-120c-8.284 0-15-6.716-15-15v-180c0-8.284 6.716-15 15-15h120l30 105z" fill="url(#SVGID_1_)"/><path d="m458.214 256.002 49.394-49.394c5.858-5.858 5.858-15.355 0-21.213-5.857-5.858-15.355-5.858-21.213 0l-49.394 49.394-49.394-49.394c-5.857-5.858-15.355-5.858-21.213 0s-5.858 15.355 0 21.213l49.394 49.394-49.394 49.394c-5.858 5.858-5.858 15.355 0 21.213 5.857 5.858 15.355 5.859 21.213 0l49.394-49.394 49.394 49.394c5.857 5.858 15.355 5.859 21.213 0 5.858-5.858 5.858-15.355 0-21.213z" fill="url(#SVGID_2_)"/><path d="m323.381 1.422c-5.27-2.47-11.48-1.68-15.96 2.04l-172.42 147.54v210l172.42 147.54c4.409 3.656 10.58 4.546 15.96 2.04 5.26-2.48 8.62-7.77 8.62-13.58v-482c0-5.81-3.36-11.1-8.62-13.58z" fill="url(#SVGID_3_)"/></g></svg>