<svg id="Capa_1" enable-background="new 0 0 511.936 511.936" height="512" viewBox="0 0 511.936 511.936" width="512" xmlns="http://www.w3.org/2000/svg" xmlns:xlink="http://www.w3.org/1999/xlink"><linearGradient id="SVGID_1_" gradientUnits="userSpaceOnUse" x1="255.968" x2="255.968" y1="511.936" y2="0"><stop offset="0" stop-color="#5558ff"/><stop offset="1" stop-color="#00c0ff"/></linearGradient><linearGradient id="SVGID_2_" gradientUnits="userSpaceOnUse" x1="225.965" x2="225.965" y1="389.936" y2="60.17"><stop offset="0" stop-color="#addcff"/><stop offset=".5028" stop-color="#eaf6ff"/><stop offset="1" stop-color="#eaf6ff"/></linearGradient><g id="Mind_1_"><g><path d="m285.965 511.936h-180c-8.291 0-15-6.709-15-15v-17.402c0-64.585-15.059-135.301-45.996-212.088-9.287-23.101-14.004-47.49-14.004-72.51 0-62.183 30.059-121.187 80.42-157.808 51.27-37.251 116.514-47.036 179.121-26.792 76.611 24.829 128.555 96.797 130.4 179.985l57.539 86.294c2.373 3.574 3.135 8.013 2.021 12.173s-3.955 7.646-7.793 9.565l-51.709 25.854v110.728c0 8.291-6.709 15-15 15h-105v47c.001 8.292-6.708 15.001-14.999 15.001zm135-317h.293z" fill="url(#SVGID_1_)"/></g><path d="m330.965 224.936c0-53.892-84.229-149.312-93.838-160.02-5.684-6.328-16.641-6.328-22.324 0-9.609 10.708-93.838 106.128-93.838 160.02 0 52.755 39.25 96.127 90 103.484v46.516c0 8.291 6.709 15 15 15s15-6.709 15-15v-46.516c50.75-7.358 90-50.73 90-103.484z" fill="url(#SVGID_2_)"/></g></svg>