<svg id="Capa_1" enable-background="new 0 0 512 512" height="512" viewBox="0 0 512 512" width="512" xmlns="http://www.w3.org/2000/svg" xmlns:xlink="http://www.w3.org/1999/xlink"><linearGradient id="lg1"><stop offset="0" stop-color="#5558ff"/><stop offset="1" stop-color="#00c0ff"/></linearGradient><linearGradient id="SVGID_1_" gradientUnits="userSpaceOnUse" x1="256" x2="256" xlink:href="#lg1" y1="512" y2="0"/><linearGradient id="SVGID_2_" gradientUnits="userSpaceOnUse" x1="256" x2="256" y1="391" y2="121"><stop offset="0" stop-color="#addcff"/><stop offset=".5028" stop-color="#eaf6ff"/><stop offset="1" stop-color="#eaf6ff"/></linearGradient><linearGradient id="SVGID_3_" gradientUnits="userSpaceOnUse" x1="286" x2="286" xlink:href="#lg1" y1="271" y2="181"/><g><g><path d="m286 512h-60c-7.339 0-13.594-5.303-14.795-12.539l-9.214-56.254c-13.945-4.028-27.378-9.609-40.122-16.685l-45.645 32.593c-5.962 4.233-14.15 3.574-19.321-1.597l-42.422-42.422c-5.186-5.186-5.859-13.359-1.597-19.321l32.593-45.645c-7.075-12.744-12.656-26.177-16.685-40.122l-56.254-9.214c-7.235-1.2-12.538-7.455-12.538-14.794v-60c0-7.339 5.303-13.594 12.539-14.795l56.254-9.214c4.028-13.945 9.609-27.378 16.685-40.122l-32.593-45.645c-4.263-5.962-3.589-14.136 1.597-19.321l42.422-42.422c5.171-5.2 13.359-5.889 19.321-1.597l45.645 32.593c12.744-7.075 26.177-12.656 40.122-16.685l9.214-56.254c1.2-7.235 7.455-12.538 14.794-12.538h60c7.339 0 13.594 5.303 14.795 12.539l9.214 56.254c13.945 4.028 27.378 9.609 40.122 16.685l45.645-32.593c5.933-4.292 14.106-3.604 19.321 1.597l42.422 42.422c5.186 5.186 5.859 13.359 1.597 19.321l-32.593 45.645c7.075 12.744 12.656 26.177 16.685 40.122l56.254 9.214c7.235 1.2 12.538 7.455 12.538 14.794v60c0 7.339-5.303 13.594-12.539 14.795l-56.254 9.214c-4.028 13.945-9.609 27.378-16.685 40.122l32.593 45.645c4.263 5.962 3.589 14.136-1.597 19.321l-42.422 42.422c-5.215 5.171-13.389 5.83-19.321 1.597l-45.645-32.593c-12.744 7.075-26.177 12.656-40.122 16.685l-9.214 56.254c-1.2 7.235-7.455 12.538-14.794 12.538zm211-226h.293z" fill="url(#SVGID_1_)"/></g><g><g><path d="m256 391c-74.443 0-135-60.557-135-135s60.557-135 135-135 135 60.557 135 135-60.557 135-135 135z" fill="url(#SVGID_2_)"/></g><g><g><path d="m316 241h-45v-45c0-8.291-6.709-15-15-15s-15 6.709-15 15v60c0 8.291 6.709 15 15 15h60c8.291 0 15-6.709 15-15s-6.709-15-15-15z" fill="url(#SVGID_3_)"/></g></g></g></g></svg>