<svg id="Capa_1" enable-background="new 0 0 512 512" height="512" viewBox="0 0 512 512" width="512" xmlns="http://www.w3.org/2000/svg" xmlns:xlink="http://www.w3.org/1999/xlink"><linearGradient id="SVGID_1_" gradientUnits="userSpaceOnUse" x1="256" x2="256" y1="508.362" y2="3.638"><stop offset="0" stop-color="#fd3a84"/><stop offset="1" stop-color="#ffa68d"/></linearGradient><linearGradient id="lg1"><stop offset="0" stop-color="#ffc2cc"/><stop offset="1" stop-color="#fff2f4"/></linearGradient><linearGradient id="SVGID_2_" gradientUnits="userSpaceOnUse" x1="431.425" x2="431.425" xlink:href="#lg1" y1="516" y2="6"/><linearGradient id="SVGID_3_" gradientUnits="userSpaceOnUse" x1="256" x2="256" xlink:href="#lg1" y1="516" y2="6"/><linearGradient id="SVGID_4_" gradientUnits="userSpaceOnUse" x1="80.575" x2="80.575" xlink:href="#lg1" y1="516" y2="6"/><g><path d="m508.03 211c-18.77-105.03-102.01-188.26-207.03-207.03-14.62-2.61-29.66 11.03-45 11.03s-30.38-13.64-45-11.03c-105.03 18.77-188.26 102.01-207.03 207.03-2.61 14.62 11.03 29.66 11.03 45s-13.64 30.38-11.03 45c18.77 105.03 102.01 188.26 207.03 207.03 14.62 2.61 29.66-11.03 45-11.03s30.38 13.64 45 11.03c105.03-18.77 188.26-102.01 207.03-207.03 2.61-14.62-11.03-29.66-11.03-45s13.64-30.38 11.03-45zm-207.09 139.88c-13.63 6.49-28.87 25.12-44.94 25.12s-31.31-18.63-44.94-25.12c-21.83-10.37-39.53-28.06-49.91-49.88-6.51-13.64-25.15-28.9-25.15-45s18.64-31.36 25.15-45c10.37-21.8 28.05-39.48 49.85-49.85 13.64-6.51 28.9-25.15 45-25.15s31.36 18.64 45 25.15c21.8 10.37 39.48 28.05 49.85 49.85 6.51 13.64 25.15 28.9 25.15 45s-18.64 31.36-25.15 45c-10.38 21.82-28.08 39.51-49.91 49.88z" fill="url(#SVGID_1_)"/><g><path d="m512 256c0 15.34-1.36 30.38-3.97 45h-157.18c6.51-13.64 10.15-28.9 10.15-45s-3.64-31.36-10.15-45h157.18c2.61 14.62 3.97 29.66 3.97 45z" fill="url(#SVGID_2_)"/><path d="m301 352.22v155.81c-14.62 2.61-29.66 3.97-45 3.97s-30.38-1.36-45-3.97v-155.81c0-.45.02-.9.06-1.34 13.63 6.49 28.87 10.12 44.94 10.12s31.31-3.63 44.94-10.12c.04.44.06.89.06 1.34z" fill="url(#SVGID_3_)"/><path d="m151 256c0 16.1 3.64 31.36 10.15 45h-157.18c-2.61-14.62-3.97-29.66-3.97-45s1.36-30.38 3.97-45h157.18c-6.51 13.64-10.15 28.9-10.15 45z" fill="url(#SVGID_4_)"/><path d="m301 3.97v157.18c-13.64-6.51-28.9-10.15-45-10.15s-31.36 3.64-45 10.15v-157.18c14.62-2.61 29.66-3.97 45-3.97s30.38 1.36 45 3.97z" fill="url(#SVGID_3_)"/></g></g></svg>