<svg id="Capa_1" enable-background="new 0 0 511.986 511.986" height="512" viewBox="0 0 511.986 511.986" width="512" xmlns="http://www.w3.org/2000/svg" xmlns:xlink="http://www.w3.org/1999/xlink"><linearGradient id="lg1"><stop offset="0" stop-color="#ffedad"/><stop offset="1" stop-color="#ffffe5"/></linearGradient><linearGradient id="SVGID_1_" gradientUnits="userSpaceOnUse" x1="255.993" x2="255.993" xlink:href="#lg1" y1="511.986" y2="91.986"/><linearGradient id="lg2"><stop offset="0" stop-color="#fd5900"/><stop offset="1" stop-color="#ffde00"/></linearGradient><linearGradient id="SVGID_2_" gradientUnits="userSpaceOnUse" x1="189.947" x2="189.947" xlink:href="#lg2" y1="78.243" y2=".013"/><linearGradient id="SVGID_3_" gradientUnits="userSpaceOnUse" x1="322.039" x2="322.039" xlink:href="#lg2" y1="78.243" y2="0"/><linearGradient id="SVGID_4_" gradientUnits="userSpaceOnUse" x1="255.993" x2="255.993" xlink:href="#lg2" y1="132.787" y2="30.986"/><linearGradient id="SVGID_5_" gradientUnits="userSpaceOnUse" x1="165.993" x2="165.993" xlink:href="#lg2" y1="502.09" y2="91.986"/><linearGradient id="SVGID_6_" gradientUnits="userSpaceOnUse" x1="345.993" x2="345.993" xlink:href="#lg2" y1="502.09" y2="91.986"/><linearGradient id="SVGID_7_" gradientUnits="userSpaceOnUse" x1="353.493" x2="353.493" xlink:href="#lg1" y1="331.986" y2="241.986"/><linearGradient id="SVGID_8_" gradientUnits="userSpaceOnUse" x1="158.493" x2="158.493" xlink:href="#lg1" y1="331.986" y2="241.986"/><linearGradient id="SVGID_9_" gradientUnits="userSpaceOnUse" x1="315.993" x2="315.993" xlink:href="#lg1" y1="211.986" y2="181.986"/><linearGradient id="SVGID_10_" gradientUnits="userSpaceOnUse" x1="345.993" x2="345.993" xlink:href="#lg1" y1="391.986" y2="361.986"/><linearGradient id="SVGID_11_" gradientUnits="userSpaceOnUse" x1="165.993" x2="165.993" xlink:href="#lg1" y1="391.986" y2="361.986"/><linearGradient id="SVGID_12_" gradientUnits="userSpaceOnUse" x1="195.993" x2="195.993" xlink:href="#lg1" y1="211.986" y2="181.986"/><g><g><path d="m255.993 511.986c-20.713 0-41.572-3.618-61.963-10.737-7.5-2.622-11.66-10.62-9.492-18.267 13.242-46.626 56.455-211.553 56.455-375.996 0-8.291 6.709-15 15-15s15 6.709 15 15c0 164.443 43.213 329.37 56.455 375.996 2.168 7.646-1.992 15.645-9.492 18.267-20.391 7.119-41.25 10.737-61.963 10.737z" fill="url(#SVGID_1_)"/></g><g id="Ladybug_2_"><g><path d="m200.564 70.127c-9.17-17.725-23.438-32.802-41.279-41.723-7.412-3.706-10.4-12.715-6.709-20.127 3.75-7.412 12.715-10.342 20.127-6.709 23.555 11.777 42.422 31.381 54.521 54.789 3.809 7.354.908 16.406-6.445 20.215-7.423 3.811-16.432.872-20.215-6.445z" fill="url(#SVGID_2_)"/></g><g><path d="m291.208 76.572c-7.354-3.809-10.254-12.861-6.445-20.215 12.1-23.408 30.967-43.012 54.521-54.789 7.441-3.662 16.406-.703 20.127 6.709 3.691 7.412.703 16.421-6.709 20.127-17.842 8.921-32.109 23.998-41.279 41.723-3.787 7.324-12.8 10.252-20.215 6.445z" fill="url(#SVGID_3_)"/></g><g><path d="m309.87 131.845c-35.273-13.096-72.48-13.096-107.754 0-4.219 1.567-8.818 1.157-12.715-1.069-3.867-2.227-6.534-6.064-7.295-10.459-.762-4.438-1.113-8.877-1.113-13.33 0-41.353 33.633-76 75-76s75 34.647 75 76c0 4.453-.352 8.892-1.113 13.33-.762 4.395-3.428 8.232-7.295 10.459-3.913 2.253-8.564 2.607-12.715 1.069z" fill="url(#SVGID_4_)"/></g><g><path d="m193.884 501.19c-79.483-28.71-132.891-108.779-132.891-199.204 0-89.18 52.5-168.853 130.635-198.237 21.035-7.822 42.686-11.763 64.365-11.763 8.291 0 15 6.709 15 15 0 168.311-44.063 336.621-57.568 384.199-2.436 8.525-11.574 12.922-19.541 10.005z" fill="url(#SVGID_5_)"/></g><g><path d="m298.562 491.186c-13.506-47.578-57.568-215.889-57.568-384.199 0-8.291 6.709-15 15-15 21.68 0 43.33 3.94 64.307 11.733 78.193 29.414 130.693 109.087 130.693 198.267 0 90.425-53.408 170.493-132.891 199.204-7.969 2.916-17.107-1.484-19.541-10.005z" fill="url(#SVGID_6_)"/></g><g><path d="m353.493 331.986c-24.814 0-45-20.186-45-45s20.186-45 45-45 45 20.186 45 45-20.185 45-45 45z" fill="url(#SVGID_7_)"/></g><g><path d="m158.493 331.986c-24.814 0-45-20.186-45-45s20.186-45 45-45 45 20.186 45 45-20.185 45-45 45z" fill="url(#SVGID_8_)"/></g><g><circle cx="315.993" cy="196.986" fill="url(#SVGID_9_)" r="15"/></g><g><circle cx="345.993" cy="376.986" fill="url(#SVGID_10_)" r="15"/></g><g><circle cx="165.993" cy="376.986" fill="url(#SVGID_11_)" r="15"/></g><g><circle cx="195.993" cy="196.986" fill="url(#SVGID_12_)" r="15"/></g></g></g></svg>