<svg id="Capa_1" enable-background="new 0 0 511.999 511.999" height="512" viewBox="0 0 511.999 511.999" width="512" xmlns="http://www.w3.org/2000/svg" xmlns:xlink="http://www.w3.org/1999/xlink"><linearGradient id="SVGID_1_" gradientUnits="userSpaceOnUse" x1="256" x2="256" y1="478.999" y2="0"><stop offset="0" stop-color="#ffedad"/><stop offset="1" stop-color="#ffffe5"/></linearGradient><linearGradient id="SVGID_2_" gradientUnits="userSpaceOnUse" x1="255.923" x2="255.923" y1="511.999" y2="209.999"><stop offset="0" stop-color="#fd5900"/><stop offset="1" stop-color="#ffde00"/></linearGradient><g><g id="Idea_3_"><g><path d="m225.622 2.698c-85.199 15.3-140.099 96.901-134.099 183.301 4.199 58.499 26.1 90.899 46.8 122.399 22.2 32.701 42.599 65.6 42.599 128.601v.599c0 5.101.601 9.901 1.5 14.401l71.5 27 75.5-27c.899-4.501 1.5-9.3 1.5-14.401 0-.298 0-.298 0-.599 0-63.001 20.4-95.9 42.599-128.601 23.101-35.099 47.401-71.4 47.401-143.399.001-100.8-90.9-180.901-195.3-162.301z" fill="url(#SVGID_1_)"/></g><g><g><path d="m240.923 344.999c0 8.291 6.709 15 15 15s15-6.709 15-15c0-81.006 25.532-109.307 25.605-109.395 5.859-5.859 5.859-15.352 0-21.211s-15.352-5.859-21.211 0c-1.824 1.824-10.977 12.004-19.395 34.158-8.417-22.154-17.571-32.334-19.395-34.158-5.815-5.801-15.088-5.771-20.933-.088-5.889 5.684-6.035 15.132-.454 21.123.251.264 25.783 28.565 25.783 109.571zm-58.501 107c6.901 34.2 37.2 60 73.5 60s66.599-25.8 73.5-60z" fill="url(#SVGID_2_)"/></g></g></g></g></svg>