<svg id="Capa_1" enable-background="new 0 0 512 512" height="512" viewBox="0 0 512 512" width="512" xmlns="http://www.w3.org/2000/svg" xmlns:xlink="http://www.w3.org/1999/xlink"><linearGradient id="SVGID_1_" gradientUnits="userSpaceOnUse" x1="256" x2="256" y1="451" y2="241"><stop offset="0" stop-color="#ffedad"/><stop offset="1" stop-color="#ffffe5"/></linearGradient><linearGradient id="SVGID_2_" gradientUnits="userSpaceOnUse" x1="256" x2="256" y1="512" y2="0"><stop offset="0" stop-color="#fd5900"/><stop offset="1" stop-color="#ffde00"/></linearGradient><g><g id="Sea_2_"><g><path d="m271 451 241-61.201v-103.799c0-8.401-6.599-15-15-15-30.601 0-46-12.001-46-15 0-8.401-6.599-15-15-15s-15 6.599-15 15c0 4.2-9.901 10.499-26.4 13.2-30.601 5.4-60.601-3.6-63.6-13.2 0-8.401-6.599-15-15-15-6.899 0-12.9 4.799-14.7 11.4-.601 1.8-.901 3.3-.901 5.099-2.399 5.099-16.8 12.299-41.1 13.2-23.699.899-43.799-6-48.3-14.7 0 0 0 0 0-.3 0-8.101-6.899-14.7-15-14.7-8.401 0-15 6.599-15 15v1.199c-3.3 8.699-33.6 17.401-64.501 11.7-15.898-2.699-25.498-8.698-25.498-12.898 0-8.401-6.599-15-15-15s-15 6.599-15 15c0 2.999-15.399 15-46 15-8.401 0-15 6.599-15 15v104.099z" fill="url(#SVGID_1_)"/></g></g><g><g><path d="m186.713 274.75c23.355 35.604 117.745 33.854 138.838-.498 16.531-11.183 35.449-43.878 35.449-78.252 0-57.891-47.109-105-105-105s-105 47.109-105 105c0 35.38 19.995 68.271 35.713 78.75zm69.287-214.75c8.291 0 15-6.709 15-15v-30c0-8.291-6.709-15-15-15s-15 6.709-15 15v30c0 8.291 6.709 15 15 15zm-116.66 40.536c5.86 5.859 15.352 5.859 21.211 0s5.859-15.352 0-21.211l-21.211-21.211c-5.859-5.859-15.352-5.859-21.211 0s-5.859 15.352 0 21.211zm233.32 0 21.211-21.211c5.859-5.859 5.859-15.352 0-21.211s-15.352-5.859-21.211 0l-21.211 21.211c-5.859 5.859-5.859 15.352 0 21.211 5.86 5.86 15.352 5.859 21.211 0zm18.34 95.464c0 8.291 6.709 15 15 15h30c8.291 0 15-6.709 15-15s-6.709-15-15-15h-30c-8.291 0-15 6.709-15 15zm-315 15h30c8.291 0 15-6.709 15-15s-6.709-15-15-15h-30c-8.291 0-15 6.709-15 15s6.709 15 15 15zm379.799 170.1c-3.898-2.702-4.799-4.8-4.799-5.1 0-8.401-6.599-15-15-15s-15 6.599-15 15c0 6-17.999 14.7-45 14.7s-45-8.7-45-14.7c0-8.401-6.599-15-15-15s-15 6.599-15 15c0 6-17.999 14.7-45 14.7s-45-8.7-45-14.7c0-8.401-6.599-15-15-15s-15 6.599-15 15c0 6-17.999 14.7-45 14.7s-45-8.7-45-14.7c0-8.401-6.599-15-15-15s-15 6.599-15 15c0 .599-1.5 3.6-8.401 7.2-11.1 6-31.599 9.9-52.599 6.899v106.901c0 8.399 6.599 15 15 15h482c8.401 0 15-6.601 15-15v-107.201c-22.5 3.301-45.099-.899-56.201-8.699z" fill="url(#SVGID_2_)"/></g></g></g></svg>