<svg id="Capa_1" enable-background="new 0 0 512 512" height="512" viewBox="0 0 512 512" width="512" xmlns="http://www.w3.org/2000/svg" xmlns:xlink="http://www.w3.org/1999/xlink"><linearGradient id="SVGID_1_" gradientUnits="userSpaceOnUse" x1="256" x2="256" y1="512" y2="0"><stop offset="0" stop-color="#fd3a84"/><stop offset="1" stop-color="#ffa68d"/></linearGradient><linearGradient id="SVGID_2_" gradientUnits="userSpaceOnUse" x1="324.028" x2="324.028" y1="362.075" y2="13.869"><stop offset="0" stop-color="#ffc2cc"/><stop offset="1" stop-color="#fff2f4"/></linearGradient><g><g><g><path d="m472.521 39.48c-52.639-52.639-138.28-52.639-190.919 0s-52.639 138.28 0 190.919 138.28 52.639 190.919 0c52.639-52.64 52.639-138.28 0-190.919zm-268.77 197.92c-2.962-2.962-7.043-4.558-11.238-4.381-4.195.176-8.11 2.103-10.814 5.303l-178.147 206.57c-5.044 5.956-4.671 14.781.839 20.292l42.426 42.426c5.51 5.511 14.335 5.883 20.291.839l206.569-178.147c3.201-2.704 5.127-6.619 5.303-10.813.176-4.195-1.419-8.276-4.381-11.239z" fill="url(#SVGID_1_)"/></g></g><g><g><path d="m493.734 230.398-212.132-212.132c-5.863-5.863-15.351-5.863-21.213 0-5.863 5.863-5.863 15.351 0 21.213l212.132 212.132c5.863 5.863 15.351 5.863 21.213 0 5.862-5.862 5.862-15.35 0-21.213zm-254.559-84.853c-5.863-5.863-15.351-5.863-21.213 0l-63.64 63.64c-5.863 5.863-5.863 15.351 0 21.213l127.279 127.279c5.863 5.862 15.351 5.862 21.213 0l63.64-63.64c5.863-5.863 5.863-15.351 0-21.213z" fill="url(#SVGID_2_)"/></g></g></g></svg>