<svg id="Capa_1" enable-background="new 0 0 512 512" height="512" viewBox="0 0 512 512" width="512" xmlns="http://www.w3.org/2000/svg" xmlns:xlink="http://www.w3.org/1999/xlink"><linearGradient id="SVGID_1_" gradientUnits="userSpaceOnUse" x1="241" x2="241" y1="512" y2="0"><stop offset="0" stop-color="#ffbef9"/><stop offset="1" stop-color="#fff1ff"/></linearGradient><linearGradient id="SVGID_2_" gradientUnits="userSpaceOnUse" x1="271" x2="271" y1="422" y2="60"><stop offset="0" stop-color="#a93aff"/><stop offset="1" stop-color="#ff81ff"/></linearGradient><g><g><g><path d="m211 378.596h119.362v-182.915h-119.362zm60 13.404c-8.291 0-15 6.709-15 15v30c0 24.814-20.186 45-45 45h-60c-8.291 0-15 6.709-15 15s6.709 15 15 15h60c41.367 0 75-33.647 75-75v-30c0-8.291-6.709-15-15-15zm75-377c0-8.401-6.599-15-15-15h-120c-8.401 0-15 6.599-15 15v45l15 15-15 15v45c0 8.399 6.599 15 15 15h120c8.401 0 15-6.601 15-15v-45l-15-15 15-15z" fill="url(#SVGID_1_)"/></g></g><g><g><path d="m361 120h-180c-8.401 0-15 6.599-15 15v182c0 57.9 47.102 105 105 105s105-47.1 105-105v-182c0-8.401-6.599-15-15-15zm-90 242c-24.902 0-45-20.102-45-45 0-24.9 20.098-45 45-45s45 20.1 45 45c0 24.898-20.098 45-45 45zm-15-287c0-8.401-6.599-15-15-15h-45v30h45c8.401 0 15-6.601 15-15zm45 15h45v-30h-45c-8.401 0-15 6.599-15 15 0 8.399 6.599 15 15 15z" fill="url(#SVGID_2_)"/></g></g></g></svg>