<svg id="Capa_1" enable-background="new 0 0 512 512" height="512" viewBox="0 0 512 512" width="512" xmlns="http://www.w3.org/2000/svg" xmlns:xlink="http://www.w3.org/1999/xlink"><linearGradient id="lg1"><stop offset="0" stop-color="#a93aff"/><stop offset="1" stop-color="#ff81ff"/></linearGradient><linearGradient id="SVGID_1_" gradientUnits="userSpaceOnUse" x1="150.5" x2="150.5" xlink:href="#lg1" y1="512" y2="331"/><linearGradient id="SVGID_2_" gradientUnits="userSpaceOnUse" x1="301" x2="301" xlink:href="#lg1" y1="512" y2="91"/><linearGradient id="SVGID_3_" gradientUnits="userSpaceOnUse" x1="451.5" x2="451.5" xlink:href="#lg1" y1="512" y2="211"/><linearGradient id="SVGID_4_" gradientUnits="userSpaceOnUse" x1="256" x2="256" y1="512" y2="0"><stop offset="0" stop-color="#ffbef9"/><stop offset="1" stop-color="#fff1ff"/></linearGradient><g><path d="m196 331h-91c-8.284 0-15 6.716-15 15v151c0 8.284 6.716 15 15 15h91c8.284 0 15-6.716 15-15v-151c0-8.284-6.716-15-15-15z" fill="url(#SVGID_1_)"/><path d="m346 91h-90c-8.284 0-15 6.716-15 15v391c0 8.284 6.716 15 15 15h90c8.284 0 15-6.716 15-15v-391c0-8.284-6.716-15-15-15z" fill="url(#SVGID_2_)"/><path d="m497 211h-91c-8.284 0-15 6.716-15 15v271c0 8.284 6.716 15 15 15h91c8.284 0 15-6.716 15-15v-271c0-8.284-6.716-15-15-15z" fill="url(#SVGID_3_)"/><path d="m497 512h-482c-8.284 0-15-6.716-15-15v-482c0-8.284 6.716-15 15-15s15 6.716 15 15v467h467c8.284 0 15 6.716 15 15s-6.716 15-15 15z" fill="url(#SVGID_4_)"/></g></svg>