<svg id="Capa_1" enable-background="new 0 0 512 512" height="512" viewBox="0 0 512 512" width="512" xmlns="http://www.w3.org/2000/svg" xmlns:xlink="http://www.w3.org/1999/xlink"><linearGradient id="lg1"><stop offset="0" stop-color="#00b59c"/><stop offset="1" stop-color="#9cffac"/></linearGradient><linearGradient id="SVGID_1_" gradientUnits="userSpaceOnUse" x1="141.706" x2="141.706" xlink:href="#lg1" y1="194.972" y2=".048"/><linearGradient id="SVGID_2_" gradientUnits="userSpaceOnUse" x1="370.281" x2="370.281" xlink:href="#lg1" y1="194.986" y2="0"/><linearGradient id="SVGID_3_" gradientUnits="userSpaceOnUse" x1="256" x2="256" xlink:href="#lg1" y1="511.7" y2="242"/><linearGradient id="SVGID_4_" gradientUnits="userSpaceOnUse" x1="256" x2="256" y1="512" y2="90.001"><stop offset="0" stop-color="#c3ffe8"/><stop offset=".9973" stop-color="#f0fff4"/></linearGradient><g><g><path d="m149.213 194.972c-23.027 0-46.084-8.76-63.633-26.309-14.297-14.297-29.18-42.598-41.25-151.992-.498-4.526 1.084-9.023 4.307-12.246 3.252-3.223 7.705-4.731 12.246-4.307 109.307 12.085 137.637 26.968 151.963 41.25 35.098 35.112 35.098 92.197.029 127.295-17.549 17.534-40.605 26.309-63.662 26.309z" fill="url(#SVGID_1_)"/></g><g><path d="m362.787 194.986c-24.053 0-46.67-9.36-63.663-26.353-35.097-35.083-35.097-92.183 0-127.266 14.327-14.297 42.657-29.194 151.993-41.265 4.512-.542 8.994 1.069 12.246 4.307 3.223 3.223 4.805 7.72 4.307 12.246-12.07 109.395-26.953 137.695-41.25 151.978-16.992 16.993-39.58 26.353-63.633 26.353z" fill="url(#SVGID_2_)"/></g><path d="m271 510.2v1.5c84.901-5.099 159.699-51.601 202.301-119.7 0 0-24.073-3.452-24.073-13.288 0-.579-.15-1.137-.17-1.712l40.142-15c14.7-32.1 22.8-67.5 22.8-105 0-8.401-6.599-15-15-15h-105.3c.2 7.028-15.417 13.781-15.553 20.706 0 0-14.249-13.722-14.447-20.706h-90.7l-15 20.706-15-20.706h-90.7c-.198 7.006-14.833 13.817-14.683 20.706 0 0-15.516-13.682-15.317-20.706h-105.3c-8.401 0-15 6.599-15 15 0 37.5 8.101 72.9 22.8 105l35.74 15c-.02.575-.17 1.133-.17 1.712 0 9.836-19.671 13.288-19.671 13.288 42.602 68.099 117.4 114.6 202.301 119.7v-1.5l14.511-19.559z" fill="url(#SVGID_3_)"/><g id="Global_1_"><g><g><path d="m380.3 362c8.401-36.601 12.601-77.701 11.4-120h-30c1.201 42.299-3.3 83.699-12.599 120h-78.101v-105.044c0-50.835 50.451-89.321 102.393-141.35 5.859-5.859 5.859-15.352 0-21.211s-15.352-5.859-21.211 0c-38.511 38.445-76.212 69.993-96.27 106.641-19.839-35.839-55.823-66.41-96.094-106.611-5.859-5.859-15.352-5.859-21.211 0s-5.859 15.352 0 21.211c54.994 54.9 102.393 91.338 102.393 141.32v105.044h-78.1c-9.3-36.301-13.801-77.4-12.599-120h-30c-1.201 42.299 2.699 83.399 11.4 120h-108.901c4.499 10.499 9.901 20.4 15.899 30h101.4c11.1 34.499 26.7 64.2 46.201 85.499 16.2 18.001 35.5 28.801 54.7 32.701v1.5c5.099.3 9.901.3 15 .3s9.901 0 15-.3v-1.5c18.9-3.9 38.2-14.7 54.401-32.4 19.499-21.301 35.099-51 46.5-85.8h101.4c5.999-9.6 11.4-19.501 15.899-30zm-139.3 116.999c-10.8-3.3-21.301-10.5-31.5-21.599-15-16.2-28.001-39-37.601-65.4h69.101zm61.199-21.299c-9.899 11.1-20.4 17.999-31.199 21.299v-86.999h69.101c-9.601 26.7-22.902 49.499-37.902 65.7z" fill="url(#SVGID_4_)"/></g></g></g></g></svg>