<svg id="Capa_1" enable-background="new 0 0 512 512" height="512" viewBox="0 0 512 512" width="512" xmlns="http://www.w3.org/2000/svg" xmlns:xlink="http://www.w3.org/1999/xlink"><linearGradient id="SVGID_1_" gradientUnits="userSpaceOnUse" x1="271" x2="271" y1="504.035" y2="144.035"><stop offset="0" stop-color="#ffe59a"/><stop offset="1" stop-color="#ffffd5"/></linearGradient><linearGradient id="SVGID_2_" gradientUnits="userSpaceOnUse" x1="256" x2="256" y1="474.035" y2="7.965"><stop offset="0" stop-color="#fd5900"/><stop offset="1" stop-color="#ffde00"/></linearGradient><g><g><g><path d="m481 354.034h-225-45v90h225 45zm-210-15v-180c0-8.291-6.709-15-15-15s-15 6.709-15 15v180c0 8.291 6.709 15 15 15s15-6.709 15-15zm-195 105c-8.291 0-15 6.709-15 15v30c0 8.291 6.709 15 15 15s15-6.709 15-15v-30c0-8.291-6.709-15-15-15zm345 15v30c0 8.291 6.709 15 15 15s15-6.709 15-15v-30c0-8.291-6.709-15-15-15s-15 6.709-15 15z" fill="url(#SVGID_1_)"/></g></g><g><g><path d="m497 324.035h-482c-8.401 0-15 6.599-15 15v120c0 8.399 6.599 15 15 15h482c8.401 0 15-6.601 15-15v-120c0-8.401-6.599-15-15-15zm-241 90c-8.401 0-15-6.601-15-15 0-8.401 6.599-15 15-15s15 6.599 15 15c0 8.399-6.599 15-15 15zm60 0c-8.401 0-15-6.601-15-15 0-8.401 6.599-15 15-15s15 6.599 15 15c0 8.399-6.599 15-15 15zm60 0c-8.401 0-15-6.601-15-15 0-8.401 6.599-15 15-15s15 6.599 15 15c0 8.399-6.599 15-15 15zm60 0c-8.401 0-15-6.601-15-15 0-8.401 6.599-15 15-15s15 6.599 15 15c0 8.399-6.599 15-15 15zm-45.059-285c0 36.108-14.033 70.005-39.492 95.464-5.859 5.859-5.859 15.352 0 21.211 5.86 5.859 15.352 5.859 21.211 0 31.143-31.113 48.281-72.554 48.281-116.675s-17.138-85.562-48.281-116.675c-5.859-5.859-15.352-5.859-21.211 0s-5.859 15.352 0 21.211c25.459 25.459 39.492 59.355 39.492 95.464zm-81.914 74.238c5.86 5.859 15.352 5.859 21.211 0 19.805-19.805 30.703-46.157 30.703-74.238s-10.898-54.434-30.703-74.238c-5.859-5.859-15.352-5.859-21.211 0s-5.859 15.352 0 21.211c14.15 14.136 21.914 32.974 21.914 53.027s-7.764 38.892-21.914 53.027c-5.859 5.859-5.859 15.352 0 21.211zm-148.476 42.436c5.859-5.859 5.859-15.352 0-21.211-25.459-25.459-39.492-59.355-39.492-95.464s14.033-70.005 39.492-95.464c5.859-5.859 5.859-15.352 0-21.211s-15.352-5.859-21.211 0c-31.143 31.113-48.281 72.554-48.281 116.675s17.139 85.562 48.281 116.675c5.859 5.86 15.352 5.86 21.211 0zm21.211-42.436c5.86 5.859 15.352 5.859 21.211 0s5.859-15.352 0-21.211c-14.15-14.136-21.914-32.974-21.914-53.027s7.764-38.892 21.914-53.027c5.859-5.859 5.859-15.352 0-21.211s-15.352-5.859-21.211 0c-19.805 19.805-30.703 46.157-30.703 74.238s10.898 54.433 30.703 74.238zm74.238-29.238c24.814 0 45-20.186 45-45s-20.186-45-45-45-45 20.186-45 45 20.186 45 45 45z" fill="url(#SVGID_2_)"/></g></g></g></svg>