<svg id="Capa_1" enable-background="new 0 0 512 512" height="512" viewBox="0 0 512 512" width="512" xmlns="http://www.w3.org/2000/svg" xmlns:xlink="http://www.w3.org/1999/xlink"><linearGradient id="SVGID_1_" gradientUnits="userSpaceOnUse" x1="302" x2="302" y1="481" y2="60.993"><stop offset="0" stop-color="#ffbef9"/><stop offset="1" stop-color="#fff1ff"/></linearGradient><linearGradient id="SVGID_2_" gradientUnits="userSpaceOnUse" x1="226" x2="226" y1="481" y2="31"><stop offset="0" stop-color="#a93aff"/><stop offset="1" stop-color="#ff81ff"/></linearGradient><g><g><g><path d="m452 182.5v-106.5c0-5.101-2.701-9.9-7.2-12.9-4.2-2.701-9.901-2.701-14.399-.601l-237.001 118.501-49.4 75 31.284 47.496c-2.373-1.575-5.219-2.496-8.284-2.496h-60c-8.291 0-15 6.709-15 15v150c0 8.291 6.709 15 15 15h60c8.291 0 15-6.709 15-15v-150c0-.921-.095-1.818-.254-2.693l11.654 17.693 237.001 118.5c2.098.899 4.199 1.5 6.599 1.5 2.701 0 5.4-.601 7.8-2.1 4.499-3.001 7.2-7.8 7.2-12.9v-106.5c34.2-6.901 60-37.202 60-73.5 0-36.301-25.8-66.601-60-73.5z" fill="url(#SVGID_1_)"/></g></g><g><g><path d="m0 256c0 41.4 33.6 75 75 75h118.4v-150h-118.4c-41.4 0-75 33.6-75 75zm437-225c-8.291 0-15 6.709-15 15v420c0 8.291 6.709 15 15 15s15-6.709 15-15v-420c0-8.291-6.709-15-15-15z" fill="url(#SVGID_2_)"/></g></g></g></svg>