<svg id="Capa_1" enable-background="new 0 0 512 512" height="512" viewBox="0 0 512 512" width="512" xmlns="http://www.w3.org/2000/svg" xmlns:xlink="http://www.w3.org/1999/xlink"><linearGradient id="lg1"><stop offset="0" stop-color="#addcff"/><stop offset=".5028" stop-color="#eaf6ff"/><stop offset="1" stop-color="#eaf6ff"/></linearGradient><linearGradient id="SVGID_1_" gradientUnits="userSpaceOnUse" x1="301" x2="301" xlink:href="#lg1" y1="120" y2="0"/><linearGradient id="SVGID_2_" gradientUnits="userSpaceOnUse" x1="256" x2="256" y1="512" y2="90"><stop offset="0" stop-color="#5558ff"/><stop offset="1" stop-color="#00c0ff"/></linearGradient><linearGradient id="SVGID_3_" gradientUnits="userSpaceOnUse" x1="256" x2="256" xlink:href="#lg1" y1="300" y2="150"/><g><g><path d="m256 120c-8.291 0-15-6.709-15-15v-30c0-41.353 33.647-75 75-75h30c8.291 0 15 6.709 15 15s-6.709 15-15 15h-30c-24.814 0-45 20.186-45 45v30c0 8.291-6.709 15-15 15z" fill="url(#SVGID_1_)"/></g><g id="offline_integration_2_"><g><path d="m256 512c-74.443 0-135-60.557-135-135v-212c0-41.353 33.647-75 75-75h120c41.353 0 75 33.647 75 75v212c0 74.443-60.557 135-135 135z" fill="url(#SVGID_2_)"/></g><g><path d="m256 300c-24.814 0-45-20.186-45-45v-60c0-24.814 20.186-45 45-45s45 20.186 45 45v60c0 24.814-20.186 45-45 45z" fill="url(#SVGID_3_)"/></g></g></g></svg>