<svg id="Capa_1" enable-background="new 0 0 512 512" height="512" viewBox="0 0 512 512" width="512" xmlns="http://www.w3.org/2000/svg" xmlns:xlink="http://www.w3.org/1999/xlink"><linearGradient id="lg1"><stop offset="0" stop-color="#00b59c"/><stop offset="1" stop-color="#9cffac"/></linearGradient><linearGradient id="SVGID_1_" gradientUnits="userSpaceOnUse" x1="141.706" x2="141.706" xlink:href="#lg1" y1="194.972" y2=".048"/><linearGradient id="SVGID_2_" gradientUnits="userSpaceOnUse" x1="370.281" x2="370.281" xlink:href="#lg1" y1="194.986" y2="0"/><linearGradient id="SVGID_3_" gradientUnits="userSpaceOnUse" x1="256" x2="256" y1="392" y2="90.001"><stop offset="0" stop-color="#c3ffe8"/><stop offset=".9973" stop-color="#f0fff4"/></linearGradient><linearGradient id="SVGID_4_" gradientUnits="userSpaceOnUse" x1="256" x2="256" xlink:href="#lg1" y1="512" y2="277.089"/><g><g><path d="m149.213 194.972c-23.027 0-46.084-8.76-63.633-26.309-14.297-14.297-29.18-42.598-41.25-151.992-.498-4.526 1.084-9.023 4.307-12.246 3.252-3.223 7.705-4.731 12.246-4.307 109.307 12.085 137.637 26.968 151.963 41.25 35.098 35.112 35.098 92.197.029 127.295-17.549 17.534-40.605 26.309-63.662 26.309z" fill="url(#SVGID_1_)"/></g><g><path d="m362.787 194.986c-24.053 0-46.67-9.36-63.663-26.353-35.097-35.083-35.097-92.183 0-127.266 14.327-14.297 42.657-29.194 151.993-41.265 4.482-.542 8.994 1.069 12.246 4.307 3.223 3.223 4.805 7.72 4.307 12.246-12.07 109.395-26.953 137.695-41.25 151.978-16.992 16.993-39.58 26.353-63.633 26.353z" fill="url(#SVGID_2_)"/></g><g><g><path d="m373.393 94.396c-5.859-5.859-15.352-5.859-21.211 0-38.511 38.445-76.212 69.993-96.27 106.641-19.839-35.839-55.823-66.41-96.094-106.611-5.859-5.859-15.352-5.859-21.211 0s-5.859 15.352 0 21.211c50.476 50.39 94.548 85.229 101.449 129.261-23.136 8.542-42.439 35.567-52.289 74.74-1.318 5.112.205 10.532 3.926 14.268l53.701 53.701c2.93 2.93 6.768 4.395 10.605 4.395s7.676-1.465 10.605-4.395l53.701-53.701c3.721-3.735 5.244-9.155 3.926-14.268-9.848-39.163-29.143-66.185-52.272-74.734 7.179-45.067 53.673-81.457 101.432-129.296 5.861-5.861 5.861-15.353.002-21.212z" fill="url(#SVGID_3_)"/></g></g><g><path d="m256 512c-74.443 0-135-60.557-135-135 0-35.757 14.004-69.653 39.404-95.435 2.842-2.856 7.764-3.765 10.693-4.468 3.984 0 7.793 1.582 10.605 4.395l74.298 74.297 74.297-74.297c2.842-2.842 7.412-4.541 10.664-4.395 3.984.015 7.822 1.626 10.635 4.468 25.4 25.782 39.404 59.678 39.404 95.435 0 74.443-60.557 135-135 135z" fill="url(#SVGID_4_)"/></g></g></svg>