<svg id="Capa_1" enable-background="new 0 0 512 512" height="512" viewBox="0 0 512 512" width="512" xmlns="http://www.w3.org/2000/svg" xmlns:xlink="http://www.w3.org/1999/xlink"><linearGradient id="SVGID_1_" gradientUnits="userSpaceOnUse" x1="135" x2="135" y1="452" y2="0"><stop offset="0" stop-color="#fd3a84"/><stop offset="1" stop-color="#ffa68d"/></linearGradient><linearGradient id="SVGID_2_" gradientUnits="userSpaceOnUse" x1="286" x2="286" y1="512" y2="31"><stop offset="0" stop-color="#ffc2cc"/><stop offset="1" stop-color="#fff2f4"/></linearGradient><g><path d="m255 0h-240c-8.401 0-15 6.599-15 15v392c0 8.399 6.599 15 15 15h165l15.649 30 14.351-30h45c8.401 0 15-6.601 15-15v-392c0-8.401-6.599-15-15-15z" fill="url(#SVGID_1_)"/><g><g><path d="m467 31h-30c-8.401 0-15 6.599-15 15v60c0 8.399 6.599 15 15 15 24.902 0 45 20.1 45 45v90c0 24.898-20.098 45-45 45h-107v-135c0-24.9 20.098-45 45-45 8.401 0 15-6.601 15-15v-60c0-8.401-6.599-15-15-15h-30c-24.902 0-45 20.1-45 45v361c0 24.898-20.098 45-45 45s-45-20.102-45-45v-15h-30v15c0 41.4 33.6 75 75 75s75-33.6 75-75v-106h107c41.4 0 75-33.6 75-75v-180c0-24.9-20.098-45-45-45zm-392 150h120c8.291 0 15-6.709 15-15v-90c0-8.291-6.709-15-15-15h-120c-8.291 0-15 6.709-15 15v90c0 8.291 6.709 15 15 15zm135 105c0-41.4-33.6-75-75-75s-75 33.6-75 75 33.6 75 75 75 75-33.6 75-75zm-75 15c-8.401 0-15-6.601-15-15 0-8.401 6.599-15 15-15s15 6.599 15 15c0 8.399-6.599 15-15 15z" fill="url(#SVGID_2_)"/></g></g></g></svg>