<svg id="Capa_1" enable-background="new 0 0 512 512" height="512" viewBox="0 0 512 512" width="512" xmlns="http://www.w3.org/2000/svg" xmlns:xlink="http://www.w3.org/1999/xlink"><linearGradient id="SVGID_1_" gradientUnits="userSpaceOnUse" x1="256" x2="256" y1="481.5" y2="30.5"><stop offset="0" stop-color="#c3ffe8"/><stop offset=".9973" stop-color="#f0fff4"/></linearGradient><linearGradient id="SVGID_2_" gradientUnits="userSpaceOnUse" x1="256" x2="256" y1="511.5" y2=".5"><stop offset="0" stop-color="#00b59c"/><stop offset="1" stop-color="#9cffac"/></linearGradient><g><g><g><path d="m331 30.5h-150v330h75 75zm-60 345c0-8.291-6.709-15-15-15s-15 6.709-15 15v61c0 8.291 6.709 15 15 15s15-6.709 15-15zm-45 76h-211c-8.291 0-15 6.709-15 15s6.709 15 15 15h211c8.291 0 15-6.709 15-15s-6.709-15-15-15zm271 0h-211c-8.291 0-15 6.709-15 15s6.709 15 15 15h211c8.291 0 15-6.709 15-15s-6.709-15-15-15z" fill="url(#SVGID_1_)"/></g></g><g><g><path d="m256 421.5c-24.814 0-45 20.186-45 45s20.186 45 45 45 45-20.186 45-45-20.186-45-45-45zm120-421h-240c-8.401 0-15 6.599-15 15v360c0 8.399 6.599 15 15 15h240c8.401 0 15-6.601 15-15v-360c0-8.401-6.599-15-15-15zm-120 330c-24.902 0-45-20.102-45-45 0-24.9 20.098-45 45-45s45 20.1 45 45c0 24.898-20.098 45-45 45zm60-120h-120c-8.401 0-15-6.601-15-15 0-8.401 6.599-15 15-15h120c8.401 0 15 6.599 15 15 0 8.399-6.599 15-15 15zm0-60h-120c-8.401 0-15-6.601-15-15 0-8.401 6.599-15 15-15h120c8.401 0 15 6.599 15 15 0 8.399-6.599 15-15 15zm0-60h-120c-8.401 0-15-6.601-15-15 0-8.401 6.599-15 15-15h120c8.401 0 15 6.599 15 15 0 8.399-6.599 15-15 15z" fill="url(#SVGID_2_)"/></g></g></g></svg>