<svg id="Capa_1" enable-background="new 0 0 511.996 511.996" height="512" viewBox="0 0 511.996 511.996" width="512" xmlns="http://www.w3.org/2000/svg" xmlns:xlink="http://www.w3.org/1999/xlink"><linearGradient id="SVGID_1_" gradientUnits="userSpaceOnUse" x1="260.082" x2="260.082" y1="344.996" y2="0"><stop offset="0" stop-color="#fd5900"/><stop offset="1" stop-color="#ffde00"/></linearGradient><linearGradient id="SVGID_2_" gradientUnits="userSpaceOnUse" x1="255.998" x2="255.998" y1="511.996" y2="329.996"><stop offset="0" stop-color="#ffe59a"/><stop offset="1" stop-color="#ffffd5"/></linearGradient><g><g id="Melting_2_"><path d="m480.681 344.996c-.004-1.877-.051-3.776-.767-5.566l-60-150c-1.787-4.468-5.596-7.808-10.254-8.979l-83.291-20.889-56.338-149.839c-2.08-5.581-7.295-9.39-13.242-9.712-5.977-.22-11.543 2.944-14.209 8.276l-85.84 171.709h-20.742c-5.508 0-10.547 3.003-13.184 7.837l-81.592 150c-1.21 2.232-1.74 4.702-1.74 7.163z" fill="url(#SVGID_1_)"/></g><g><g><path d="m123.664 398.471c-9.814 14.224-32.666 49.351-32.666 68.525 0 24.814 20.186 45 45 45s45-20.186 45-45c0-19.175-22.852-54.302-32.666-68.525-5.566-8.116-19.102-8.116-24.668 0zm120 0c-9.814 14.224-32.666 49.351-32.666 68.525 0 24.814 20.186 45 45 45s45-20.186 45-45c0-19.175-22.852-54.302-32.666-68.525-5.566-8.116-19.102-8.116-24.668 0zm120 0c-9.814 14.224-32.666 49.351-32.666 68.525 0 24.814 20.186 45 45 45s45-20.186 45-45c0-19.175-22.852-54.302-32.666-68.525-5.566-8.116-19.102-8.116-24.668 0zm132.334-68.475h-480c-8.284 0-15 6.716-15 15s6.716 15 15 15h480c8.284 0 15-6.716 15-15s-6.716-15-15-15z" fill="url(#SVGID_2_)"/></g></g></g></svg>