<svg id="Capa_1" enable-background="new 0 0 512 512" height="512" viewBox="0 0 512 512" width="512" xmlns="http://www.w3.org/2000/svg" xmlns:xlink="http://www.w3.org/1999/xlink"><linearGradient id="lg1"><stop offset="0" stop-color="#a93aff"/><stop offset="1" stop-color="#ff81ff"/></linearGradient><linearGradient id="SVGID_1_" gradientUnits="userSpaceOnUse" x1="60" x2="60" xlink:href="#lg1" y1="136" y2="16"/><linearGradient id="SVGID_2_" gradientUnits="userSpaceOnUse" x1="60" x2="60" xlink:href="#lg1" y1="316" y2="196"/><linearGradient id="SVGID_3_" gradientUnits="userSpaceOnUse" x1="60" x2="60" xlink:href="#lg1" y1="496" y2="376"/><linearGradient id="SVGID_4_" gradientUnits="userSpaceOnUse" x1="331" x2="331" xlink:href="#lg1" y1="136" y2="16"/><linearGradient id="SVGID_5_" gradientUnits="userSpaceOnUse" x1="331" x2="331" xlink:href="#lg1" y1="316" y2="196"/><linearGradient id="SVGID_6_" gradientUnits="userSpaceOnUse" x1="331" x2="331" xlink:href="#lg1" y1="496" y2="376"/><g><path d="m105 136h-90c-8.284 0-15-6.716-15-15v-90c0-8.284 6.716-15 15-15h90c8.284 0 15 6.716 15 15v90c0 8.284-6.716 15-15 15z" fill="url(#SVGID_1_)"/><path d="m105 316h-90c-8.284 0-15-6.716-15-15v-90c0-8.284 6.716-15 15-15h90c8.284 0 15 6.716 15 15v90c0 8.284-6.716 15-15 15z" fill="url(#SVGID_2_)"/><path d="m105 496h-90c-8.284 0-15-6.716-15-15v-90c0-8.284 6.716-15 15-15h90c8.284 0 15 6.716 15 15v90c0 8.284-6.716 15-15 15z" fill="url(#SVGID_3_)"/><path d="m497 136h-332c-8.284 0-15-6.716-15-15v-90c0-8.284 6.716-15 15-15h332c8.284 0 15 6.716 15 15v90c0 8.284-6.716 15-15 15z" fill="url(#SVGID_4_)"/><path d="m497 316h-332c-8.284 0-15-6.716-15-15v-90c0-8.284 6.716-15 15-15h332c8.284 0 15 6.716 15 15v90c0 8.284-6.716 15-15 15z" fill="url(#SVGID_5_)"/><path d="m497 496h-332c-8.284 0-15-6.716-15-15v-90c0-8.284 6.716-15 15-15h332c8.284 0 15 6.716 15 15v90c0 8.284-6.716 15-15 15z" fill="url(#SVGID_6_)"/></g></svg>