<svg id="Capa_1" enable-background="new 0 0 512 512" height="512" viewBox="0 0 512 512" width="512" xmlns="http://www.w3.org/2000/svg" xmlns:xlink="http://www.w3.org/1999/xlink"><linearGradient id="SVGID_1_" gradientUnits="userSpaceOnUse" x1="256" x2="256" y1="512" y2="0"><stop offset="0" stop-color="#fd5900"/><stop offset="1" stop-color="#ffde00"/></linearGradient><linearGradient id="SVGID_2_" gradientUnits="userSpaceOnUse" x1="301" x2="301" y1="180" y2="90.069"><stop offset="0" stop-color="#ffedad"/><stop offset="1" stop-color="#ffffe5"/></linearGradient><g><g><path d="m313.598 512h-115.196c-74.751 0-136.391-59.253-137.402-132.1 0-86.089 114.229-213.641 146.309-247.2-9.449-17.695-26.309-55.796-26.309-102.7 0-5.684 3.208-10.869 8.291-13.418 1.362-.674 33.545-16.582 66.709-16.582s65.347 15.908 66.709 16.582c5.083 2.549 8.291 7.734 8.291 13.418 0 46.904-16.846 85.005-26.309 102.7 32.08 33.53 146.309 160.76 146.309 244.3v2.695c-1.011 73.052-62.651 132.305-137.402 132.305z" fill="url(#SVGID_1_)"/></g><path d="m416.605 154.395c-.751-.751-11.014-10.466-30.104-19.395 19.091-8.928 29.354-18.644 30.104-19.395 5.83-5.83 5.815-15.22.044-21.094-5.786-5.845-15.249-5.933-21.167-.205-1.084 1.055-27.114 25.694-79.482 25.694h-120c-8.291 0-15 6.709-15 15s6.709 15 15 15h120c52.368 0 78.398 24.639 79.395 25.605 2.93 2.93 6.768 4.395 10.605 4.395s7.676-1.465 10.605-4.395c5.86-5.859 5.86-15.351 0-21.21z" fill="url(#SVGID_2_)"/></g></svg>