<svg id="Capa_1" enable-background="new 0 0 512 512" height="512" viewBox="0 0 512 512" width="512" xmlns="http://www.w3.org/2000/svg" xmlns:xlink="http://www.w3.org/1999/xlink"><linearGradient id="SVGID_1_" gradientUnits="userSpaceOnUse" x1="256" x2="256" y1="512" y2="60"><stop offset="0" stop-color="#fd5900"/><stop offset="1" stop-color="#ffde00"/></linearGradient><linearGradient id="SVGID_2_" gradientUnits="userSpaceOnUse" x1="256" x2="256" y1="391" y2="0"><stop offset="0" stop-color="#ffe59a"/><stop offset="1" stop-color="#ffffd5"/></linearGradient><g><path d="m376 60h-240l-60 105v332c0 8.399 6.599 15 15 15h60c8.401 0 15-6.601 15-15v-45h180v45c0 8.399 6.599 15 15 15h60c8.401 0 15-6.601 15-15v-332z" fill="url(#SVGID_1_)"/><g><g><path d="m361 0h-210c-41.4 0-75 33.6-75 75v90h360v-90c0-41.4-33.6-75-75-75zm-30 120h-150c-8.401 0-15-6.601-15-15 0-8.401 6.599-15 15-15h150c8.401 0 15 6.599 15 15 0 8.399-6.599 15-15 15zm30 91h-210c-8.291 0-15 6.709-15 15v150c0 8.291 6.709 15 15 15h210c8.291 0 15-6.709 15-15v-150c0-8.291-6.709-15-15-15z" fill="url(#SVGID_2_)"/></g></g></g></svg>