<svg id="Capa_1" enable-background="new 0 0 512 512" height="512" viewBox="0 0 512 512" width="512" xmlns="http://www.w3.org/2000/svg" xmlns:xlink="http://www.w3.org/1999/xlink"><linearGradient id="lg1"><stop offset="0" stop-color="#addcff"/><stop offset=".5028" stop-color="#eaf6ff"/><stop offset="1" stop-color="#eaf6ff"/></linearGradient><linearGradient id="SVGID_1_" gradientUnits="userSpaceOnUse" x1="136" x2="136" xlink:href="#lg1" y1="512" y2="392.388"/><linearGradient id="SVGID_2_" gradientUnits="userSpaceOnUse" x1="256" x2="256" xlink:href="#lg1" y1="512" y2="392.388"/><linearGradient id="SVGID_3_" gradientUnits="userSpaceOnUse" x1="376" x2="376" xlink:href="#lg1" y1="512" y2="392.388"/><linearGradient id="SVGID_4_" gradientUnits="userSpaceOnUse" x1="256" x2="256" y1="360" y2="0"><stop offset="0" stop-color="#5558ff"/><stop offset="1" stop-color="#00c0ff"/></linearGradient><g id="Rain_2_"><g><path d="m136 512c-24.814 0-45-20.186-45-45 0-19.175 22.852-54.302 32.666-68.525 5.566-8.115 19.102-8.115 24.668 0 9.814 14.223 32.666 49.35 32.666 68.525 0 24.814-20.186 45-45 45z" fill="url(#SVGID_1_)"/></g><g><path d="m256 512c-24.814 0-45-20.186-45-45 0-19.175 22.852-54.302 32.666-68.525 5.566-8.115 19.102-8.115 24.668 0 9.814 14.223 32.666 49.35 32.666 68.525 0 24.814-20.186 45-45 45z" fill="url(#SVGID_2_)"/></g><g><path d="m376 512c-24.814 0-45-20.186-45-45 0-19.175 22.852-54.302 32.666-68.525 5.566-8.115 19.102-8.115 24.668 0 9.814 14.223 32.666 49.35 32.666 68.525 0 24.814-20.186 45-45 45z" fill="url(#SVGID_3_)"/></g><g><path d="m391 360h-270c-66.182 0-121-53.833-121-120 0-29.004 11.723-56.792 31.293-78.911 2.9-90.22 75.674-161.089 164.707-161.089 50.303 0 97.764 23.145 129.023 62.417 7.266-1.626 14.209-2.417 20.977-2.417 46.465 0 86.514 29.897 100.078 73.682 39.61 20.551 65.922 61.714 65.922 106.318 0 66.167-54.818 120-121 120z" fill="url(#SVGID_4_)"/></g></g></svg>