<svg id="Capa_1" enable-background="new 0 0 512 512" height="512" viewBox="0 0 512 512" width="512" xmlns="http://www.w3.org/2000/svg" xmlns:xlink="http://www.w3.org/1999/xlink"><linearGradient id="lg1"><stop offset="0" stop-color="#addcff"/><stop offset=".5028" stop-color="#eaf6ff"/><stop offset="1" stop-color="#eaf6ff"/></linearGradient><linearGradient id="SVGID_1_" gradientUnits="userSpaceOnUse" x1="256" x2="256" xlink:href="#lg1" y1="380.745" y2="281.255"/><linearGradient id="SVGID_2_" gradientUnits="userSpaceOnUse" x1="256" x2="256" xlink:href="#lg1" y1="230.746" y2="130.254"/><linearGradient id="lg2"><stop offset="0" stop-color="#5558ff"/><stop offset="1" stop-color="#00c0ff"/></linearGradient><linearGradient id="SVGID_3_" gradientUnits="userSpaceOnUse" x1="105" x2="105" xlink:href="#lg2" y1="361" y2="151"/><linearGradient id="SVGID_4_" gradientUnits="userSpaceOnUse" x1="407" x2="407" xlink:href="#lg2" y1="210" y2="0"/><linearGradient id="SVGID_5_" gradientUnits="userSpaceOnUse" x1="407" x2="407" xlink:href="#lg2" y1="512" y2="301"/><g><path d="m319.852 379.197-140.968-69.484c-7.431-3.663-10.485-12.656-6.822-20.086 3.662-7.431 12.657-10.483 20.086-6.823l140.968 69.484c7.431 3.663 10.485 12.656 6.822 20.086-3.669 7.443-12.666 10.479-20.086 6.823z" fill="url(#SVGID_1_)"/><path d="m172.1 222.451c-3.705-7.41-.701-16.42 6.708-20.125l140.968-70.484c7.41-3.706 16.419-.701 20.125 6.708 3.705 7.41.701 16.42-6.708 20.125l-140.968 70.484c-7.41 3.705-16.42.701-20.125-6.708z" fill="url(#SVGID_2_)"/><path d="m105 361c-57.897 0-105-47.103-105-105s47.103-105 105-105 105 47.103 105 105-47.103 105-105 105z" fill="url(#SVGID_3_)"/><path d="m407 210c-57.897 0-105-47.103-105-105s47.103-105 105-105 105 47.103 105 105-47.103 105-105 105z" fill="url(#SVGID_4_)"/><path d="m407 512c-57.897 0-105-47.551-105-106 0-57.897 47.103-105 105-105s105 47.103 105 105c0 58.449-47.103 106-105 106z" fill="url(#SVGID_5_)"/></g></svg>