<svg id="Capa_1" enable-background="new 0 0 512 512" height="512" viewBox="0 0 512 512" width="512" xmlns="http://www.w3.org/2000/svg" xmlns:xlink="http://www.w3.org/1999/xlink"><linearGradient id="SVGID_1_" gradientUnits="userSpaceOnUse" x1="0" x2="512" y1="271" y2="271"><stop offset="0" stop-color="#fd5900"/><stop offset="1" stop-color="#ffde00"/></linearGradient><linearGradient id="SVGID_2_" gradientUnits="userSpaceOnUse" x1="0" x2="512" y1="226" y2="226"><stop offset="0" stop-color="#ffe59a"/><stop offset="1" stop-color="#ffffd5"/></linearGradient><g><path d="m497 451h-482c-8.284 0-15-6.716-15-15v-315c0-16.569 13.431-30 30-30h452c16.569 0 30 13.431 30 30v315c0 8.284-6.716 15-15 15z" fill="url(#SVGID_1_)"/><g><g><path d="m376 181h-240c-41.353 0-75 33.647-75 75v60c0 41.353 33.647 75 75 75h240c41.353 0 75-33.647 75-75v-60c0-41.353-33.647-75-75-75zm-195 60h-15c-24.814 0-45 20.186-45 45s20.186 45 45 45h15v30h-45c-24.814 0-45-20.186-45-45v-60c0-24.814 20.186-45 45-45h45zm120 120h-90v-150h90zm120-45c0 24.814-20.186 45-45 45h-45v-30h15c24.814 0 45-20.186 45-45s-20.186-45-45-45h-15v-30h45c24.814 0 45 20.186 45 45zm76-255h-482c-8.284 0-15 6.716-15 15v45h512v-45c0-8.284-6.716-15-15-15z" fill="url(#SVGID_2_)"/></g></g></g></svg>