<svg id="Capa_1" enable-background="new 0 0 512.008 512.008" height="512" viewBox="0 0 512.008 512.008" width="512" xmlns="http://www.w3.org/2000/svg" xmlns:xlink="http://www.w3.org/1999/xlink"><linearGradient id="lg1"><stop offset="0" stop-color="#a93aff"/><stop offset="1" stop-color="#ff81ff"/></linearGradient><linearGradient id="SVGID_1_" gradientUnits="userSpaceOnUse" x1="407.004" x2="407.004" xlink:href="#lg1" y1="346.004" y2="136.004"/><linearGradient id="lg2"><stop offset="0" stop-color="#ffbef9"/><stop offset="1" stop-color="#fff1ff"/></linearGradient><linearGradient id="SVGID_2_" gradientUnits="userSpaceOnUse" x1="422.004" x2="422.004" xlink:href="#lg2" y1="256.004" y2="196.004"/><linearGradient id="SVGID_3_" gradientUnits="userSpaceOnUse" x1="256.004" x2="256.004" xlink:href="#lg2" y1="438.008" y2="256"/><linearGradient id="SVGID_4_" gradientUnits="userSpaceOnUse" x1="165.004" x2="165.004" xlink:href="#lg1" y1="496.004" y2="16.004"/><g><g><path d="m407.004 346.004c-57.897 0-105-47.103-105-105s47.103-105 105-105 105 47.103 105 105-47.103 105-105 105z" fill="url(#SVGID_1_)"/></g><g><path d="m437.004 256.004h-30c-8.284 0-15-6.716-15-15v-30c0-8.284 6.716-15 15-15s15 6.716 15 15v15h15c8.284 0 15 6.716 15 15s-6.716 15-15 15z" fill="url(#SVGID_2_)"/></g><g><path d="m497.008 438.008c-1.495 0-3.014-.225-4.515-.698l-482-152c-7.901-2.492-12.286-10.917-9.794-18.817 2.491-7.901 10.917-12.287 18.817-9.794l482 152c7.901 2.492 12.286 10.917 9.794 18.817-2.018 6.399-7.93 10.492-14.302 10.492z" fill="url(#SVGID_3_)"/></g><g><g><path d="m100.004 83.504c0 8.284 6.716 15 15 15s15-6.716 15-15c0-14.638-7.525-28.676-20.645-38.517-8.32-6.239-18.426-10.536-29.355-12.593v-1.391c0-8.284-6.716-15-15-15s-15 6.716-15 15v1.391c-10.929 2.057-21.036 6.354-29.355 12.593-13.12 9.841-20.645 23.879-20.645 38.517s7.525 28.676 20.645 38.517c8.32 6.239 18.426 10.536 29.355 12.593v44.055c-11.61-3.753-20-11.58-20-20.164 0-8.284-6.716-15-15-15s-15 6.716-15 15c0 14.638 7.525 28.676 20.645 38.517 8.32 6.239 18.426 10.536 29.355 12.593v1.391c0 8.284 6.716 15 15 15s15-6.716 15-15v-1.391c10.929-2.057 21.036-6.354 29.355-12.593 13.12-9.84 20.645-23.879 20.645-38.517s-7.525-28.676-20.645-38.517c-8.32-6.239-18.426-10.536-29.355-12.593v-44.055c11.61 3.753 20 11.58 20 20.164zm-50 20.164c-11.61-3.753-20-11.58-20-20.164s8.39-16.411 20-20.164zm50 54.836c0 8.584-8.39 16.411-20 20.164v-40.328c11.61 3.753 20 11.58 20 20.164zm228.707 316.408-60-135c-2.407-5.417-7.779-8.908-13.707-8.908s-11.3 3.491-13.707 8.908l-60 135c-2.063 4.64-1.637 10.008 1.13 14.266 2.767 4.257 7.5 6.826 12.577 6.826h120c5.078 0 9.811-2.569 12.577-6.826 2.767-4.258 3.193-9.626 1.13-14.266z" fill="url(#SVGID_4_)"/></g></g></g></svg>