<svg id="Capa_1" enable-background="new 0 0 512.014 512.014" height="512" viewBox="0 0 512.014 512.014" width="512" xmlns="http://www.w3.org/2000/svg" xmlns:xlink="http://www.w3.org/1999/xlink"><linearGradient id="SVGID_1_" gradientUnits="userSpaceOnUse" x1="256.007" x2="256.007" y1="512.014" y2="0"><stop offset="0" stop-color="#00b59c"/><stop offset="1" stop-color="#9cffac"/></linearGradient><linearGradient id="SVGID_2_" gradientUnits="userSpaceOnUse" x1="256.007" x2="256.007" y1="166.069" y2="76.069"><stop offset="0" stop-color="#c3ffe8"/><stop offset=".9973" stop-color="#f0fff4"/></linearGradient><g><g><g><path d="m390.948 121.069c0 36.108-14.033 70.005-39.492 95.464-5.859 5.859-5.859 15.352 0 21.211 5.86 5.859 15.352 5.859 21.211 0 31.143-31.113 48.281-72.554 48.281-116.675s-17.138-85.561-48.281-116.674c-5.859-5.859-15.352-5.859-21.211 0s-5.859 15.352 0 21.211c25.459 25.458 39.492 59.355 39.492 95.463zm-81.914 74.239c2.93 2.93 6.768 4.395 10.605 4.395s7.676-1.465 10.605-4.395c19.805-19.805 30.703-46.157 30.703-74.238s-10.898-54.434-30.703-74.238c-5.859-5.859-15.352-5.859-21.211 0s-5.859 15.352 0 21.211c14.15 14.136 21.914 32.974 21.914 53.027s-7.764 38.892-21.914 53.027c-5.858 5.859-5.858 15.351.001 21.211zm-148.476 42.436c5.859-5.859 5.859-15.352 0-21.211-25.459-25.459-39.492-59.355-39.492-95.464s14.033-70.005 39.492-95.464c5.859-5.859 5.859-15.352 0-21.211s-15.352-5.859-21.211 0c-31.143 31.113-48.281 72.554-48.281 116.675s17.139 85.562 48.281 116.675c5.859 5.86 15.352 5.86 21.211 0zm21.211-42.436c5.86 5.859 15.352 5.859 21.211 0s5.859-15.352 0-21.211c-14.15-14.136-21.914-32.974-21.914-53.027s7.764-38.892 21.914-53.027c5.859-5.859 5.859-15.352 0-21.211s-15.352-5.859-21.211 0c-19.805 19.805-30.703 46.157-30.703 74.238s10.898 54.433 30.703 74.238zm88.418-49.161c-4.504-13.109-23.842-13.068-28.359 0l-120 345.931c-4.165 12.4 9.68 25.142 21.943 17.754l112.244-67.921 112.229 67.921c12.227 7.366 26.122-5.313 21.943-17.754zm34.233 190.733-22.8-16.483 13.638-9.86zm-48.413-140.122 28.96 84.194-28.956 20.935-28.964-20.937zm-39.25 113.775 13.652 9.866-22.822 16.5zm-52.9 152.083 21.976-63.179 41.213 24.943zm40.998-86.729 51.16-36.982 51.174 36.982-51.171 30.965zm80.13 48.495 41.202-24.932 21.965 63.162z" fill="url(#SVGID_1_)"/></g></g><path d="m256.007 166.069c-24.814 0-45-20.186-45-45s20.186-45 45-45 45 20.186 45 45-20.186 45-45 45z" fill="url(#SVGID_2_)"/></g></svg>