<svg id="Capa_1" enable-background="new 0 0 511.983 511.983" height="512" viewBox="0 0 511.983 511.983" width="512" xmlns="http://www.w3.org/2000/svg" xmlns:xlink="http://www.w3.org/1999/xlink"><linearGradient id="lg1"><stop offset="0" stop-color="#ffbef9"/><stop offset="1" stop-color="#fff1ff"/></linearGradient><linearGradient id="SVGID_1_" gradientUnits="userSpaceOnUse" x1="120.992" x2="120.992" xlink:href="#lg1" y1="436.983" y2="271.983"/><linearGradient id="SVGID_2_" gradientUnits="userSpaceOnUse" x1="255.992" x2="255.992" y1="511.983" y2="0"><stop offset="0" stop-color="#a93aff"/><stop offset="1" stop-color="#ff81ff"/></linearGradient><linearGradient id="SVGID_3_" gradientUnits="userSpaceOnUse" x1="390.992" x2="390.992" xlink:href="#lg1" y1="406.983" y2="301.983"/><g><g><g><g><g><path d="m225.992 301.983v105l-105 30-105-30v-105l105-30z" fill="url(#SVGID_1_)"/></g></g><g><g><path d="m210.992 181.983h-180c-8.401 0-15 6.599-15 15v105h210v-105c0-8.4-6.599-15-15-15zm176.489 195-101.49 30v90c0 8.399 6.599 15 15 15h180c8.401 0 15-6.601 15-15v-90zm-315.884-291.394 34.395-34.395v83.789c0 8.291 6.709 15 15 15s15-6.709 15-15v-83.789l34.395 34.395c2.93 2.93 6.768 4.395 10.605 4.395s7.676-1.465 10.605-4.395c5.859-5.859 5.859-15.352 0-21.211l-59.982-59.982c-1.388-1.392-3.051-2.496-4.896-3.26-3.666-1.516-7.789-1.516-11.455 0-1.846.764-3.508 1.868-4.896 3.26l-59.982 59.982c-5.859 5.859-5.859 15.352 0 21.211s15.352 5.859 21.211 0zm270 122 34.395-34.395v83.789c0 8.291 6.709 15 15 15s15-6.709 15-15v-83.789l34.395 34.395c2.93 2.93 6.768 4.395 10.605 4.395s7.676-1.465 10.605-4.395c5.859-5.859 5.859-15.352 0-21.211l-59.982-59.981c-1.388-1.392-3.051-2.496-4.896-3.26-3.666-1.516-7.789-1.516-11.455 0-1.846.764-3.508 1.868-4.896 3.26l-59.982 59.981c-5.859 5.859-5.859 15.352 0 21.211s15.352 5.859 21.211 0zm-325.605 289.394c0 8.399 6.599 15 15 15h180c8.401 0 15-6.601 15-15v-90h-210v90z" fill="url(#SVGID_2_)"/></g></g></g></g></g><g><path d="m495.992 316.983v90h-210v-90c0-8.401 6.599-15 15-15h180c8.401 0 15 6.6 15 15z" fill="url(#SVGID_3_)"/></g></svg>