<svg id="Capa_1" enable-background="new 0 0 512 512" height="512" viewBox="0 0 512 512" width="512" xmlns="http://www.w3.org/2000/svg" xmlns:xlink="http://www.w3.org/1999/xlink"><linearGradient id="SVGID_1_" gradientUnits="userSpaceOnUse" x1="256" x2="256" y1="512" y2="180"><stop offset="0" stop-color="#ffe59a"/><stop offset="1" stop-color="#ffffd5"/></linearGradient><linearGradient id="SVGID_2_" gradientUnits="userSpaceOnUse" x1="256" x2="256" y1="512" y2="0"><stop offset="0" stop-color="#fd5900"/><stop offset="1" stop-color="#ffde00"/></linearGradient><g><g id="Chair_1_"><g><g><g><path d="m346 422h-75v-197c0-8.291-6.709-15-15-15s-15 6.709-15 15v197h-75c-8.291 0-15 6.709-15 15s6.709 15 15 15h75v45c0 8.291 6.709 15 15 15s15-6.709 15-15v-45h75c8.291 0 15-6.709 15-15s-6.709-15-15-15zm-165-107c0-8.291-6.709-15-15-15h-30c-8.276 0-15-6.724-15-15v-90c0-8.291-6.709-15-15-15h-30c-8.291 0-15 6.709-15 15s6.709 15 15 15h15v75c0 24.814 20.186 45 45 45h30c8.291 0 15-6.709 15-15zm255-135h-30c-8.291 0-15 6.709-15 15v90c0 8.276-6.724 15-15 15h-30c-8.291 0-15 6.709-15 15s6.709 15 15 15h30c24.814 0 45-20.186 45-45v-75h15c8.291 0 15-6.709 15-15s-6.709-15-15-15z" fill="url(#SVGID_1_)"/></g></g></g></g><g><g><path d="m196 240h120c24.814 0 45-20.186 45-45v-90c0-57.891-47.109-105-105-105s-105 47.109-105 105v90c0 24.814 20.186 45 45 45zm-30 182c-24.814 0-45 20.186-45 45s20.186 45 45 45 45-20.186 45-45-20.186-45-45-45zm180 0c-24.814 0-45 20.186-45 45s20.186 45 45 45 45-20.186 45-45-20.186-45-45-45zm-150-62h120c24.814 0 45-20.186 45-45s-20.186-45-45-45h-120c-24.814 0-45 20.186-45 45s20.186 45 45 45z" fill="url(#SVGID_2_)"/></g></g></g></svg>