<svg id="Capa_1" enable-background="new 0 0 512 512" height="512" viewBox="0 0 512 512" width="512" xmlns="http://www.w3.org/2000/svg" xmlns:xlink="http://www.w3.org/1999/xlink"><linearGradient id="SVGID_1_" gradientUnits="userSpaceOnUse" x1="256" x2="256" y1="512" y2="32"><stop offset="0" stop-color="#a93aff"/><stop offset="1" stop-color="#ff81ff"/></linearGradient><linearGradient id="SVGID_2_" gradientUnits="userSpaceOnUse" x1="256" x2="256" y1="392" y2="0"><stop offset="0" stop-color="#ffbef9"/><stop offset="1" stop-color="#fff1ff"/></linearGradient><g><g><path d="m436 512h-360c-8.291 0-15-6.709-15-15v-450c0-8.291 6.709-15 15-15h360c8.291 0 15 6.709 15 15v450c0 8.291-6.709 15-15 15z" fill="url(#SVGID_1_)"/></g><g id="Plan_2_"><g><g><path d="m136 0c-8.291 0-15 6.709-15 15v62c0 8.291 6.709 15 15 15s15-6.709 15-15v-62c0-8.291-6.709-15-15-15zm120 92c8.291 0 15-6.709 15-15v-62c0-8.291-6.709-15-15-15s-15 6.709-15 15v62c0 8.291 6.709 15 15 15zm120-92c-8.291 0-15 6.709-15 15v62c0 8.291 6.709 15 15 15s15-6.709 15-15v-62c0-8.291-6.709-15-15-15zm-240 182c-8.284 0-15 6.716-15 15s6.716 15 15 15 15-6.716 15-15-6.716-15-15-15zm240 0h-180c-8.291 0-15 6.709-15 15s6.709 15 15 15h180c8.291 0 15-6.709 15-15s-6.709-15-15-15zm-240 90c-8.284 0-15 6.716-15 15s6.716 15 15 15 15-6.716 15-15-6.716-15-15-15zm240 0h-180c-8.291 0-15 6.709-15 15s6.709 15 15 15h180c8.291 0 15-6.709 15-15s-6.709-15-15-15zm-240 90c-8.284 0-15 6.716-15 15s6.716 15 15 15 15-6.716 15-15-6.716-15-15-15zm240 0h-180c-8.291 0-15 6.709-15 15s6.709 15 15 15h180c8.291 0 15-6.709 15-15s-6.709-15-15-15z" fill="url(#SVGID_2_)"/></g></g></g></g></svg>