<svg id="Capa_1" enable-background="new 0 0 512 512" height="512" viewBox="0 0 512 512" width="512" xmlns="http://www.w3.org/2000/svg" xmlns:xlink="http://www.w3.org/1999/xlink"><linearGradient id="lg1"><stop offset="0" stop-color="#00b59c"/><stop offset="1" stop-color="#9cffac"/></linearGradient><linearGradient id="SVGID_1_" gradientUnits="userSpaceOnUse" x1="141.706" x2="141.706" xlink:href="#lg1" y1="217.568" y2="22.616"/><linearGradient id="SVGID_2_" gradientUnits="userSpaceOnUse" x1="370.281" x2="370.281" xlink:href="#lg1" y1="217.583" y2="22.601"/><linearGradient id="lg2"><stop offset="0" stop-color="#c3ffe8"/><stop offset=".9973" stop-color="#f0fff4"/></linearGradient><linearGradient id="SVGID_3_" gradientUnits="userSpaceOnUse" x1="256" x2="256" xlink:href="#lg2" y1="294.385" y2="112.597"/><linearGradient id="SVGID_4_" gradientUnits="userSpaceOnUse" x1="256" x2="256" xlink:href="#lg1" y1="474.399" y2="264.399"/><linearGradient id="SVGID_5_" gradientUnits="userSpaceOnUse" x1="256" x2="256" xlink:href="#lg2" y1="489.399" y2="459.399"/><g><g><path d="m149.213 217.568c-23.027 0-46.084-8.76-63.633-26.309-14.297-14.296-29.18-42.597-41.25-151.992-.498-4.526 1.084-9.023 4.307-12.246 3.252-3.237 7.705-4.834 12.246-4.307 109.306 12.086 137.637 26.968 151.963 41.251 35.098 35.112 35.098 92.197.029 127.295-17.549 17.534-40.605 26.308-63.662 26.308z" fill="url(#SVGID_1_)"/></g><g><path d="m362.787 217.583c-24.053 0-46.67-9.36-63.663-26.353-35.097-35.083-35.097-92.183 0-127.266 14.327-14.296 42.657-29.194 151.993-41.264 4.482-.527 8.994 1.069 12.246 4.307 3.223 3.223 4.805 7.72 4.307 12.246-12.07 109.395-26.953 137.695-41.25 151.978-16.992 16.991-39.58 26.352-63.633 26.352z" fill="url(#SVGID_2_)"/></g><g id="Plant_3_"><g><path d="m256 294.385c-8.291 0-15-6.709-15-15v-.029c0-49.982-47.399-86.223-102.393-141.123-5.859-5.859-5.859-15.352 0-21.211s15.352-5.859 21.211 0c40.271 40.202 76.255 70.773 96.094 106.611 20.058-36.647 57.758-68.195 96.27-106.641 5.859-5.859 15.352-5.859 21.211 0s5.859 15.352 0 21.211c-51.942 52.029-102.393 90.317-102.393 141.152v.029c0 8.292-6.709 15.001-15 15.001z" fill="url(#SVGID_3_)"/></g></g><g><path d="m466 474.399h-420c-8.291 0-15-6.709-15-15 0-63.882 44.209-118.125 106.172-131.631 23.437-38.716 69.228-63.369 118.828-63.369s95.391 24.653 118.828 63.369c61.963 13.506 106.172 67.749 106.172 131.631 0 8.291-6.709 15-15 15z" fill="url(#SVGID_4_)"/></g><g><path d="m497 489.399h-482c-8.291 0-15-6.709-15-15s6.709-15 15-15h482c8.291 0 15 6.709 15 15s-6.709 15-15 15z" fill="url(#SVGID_5_)"/></g></g></svg>