<svg id="Capa_1" enable-background="new 0 0 512.023 512.023" height="512" viewBox="0 0 512.023 512.023" width="512" xmlns="http://www.w3.org/2000/svg" xmlns:xlink="http://www.w3.org/1999/xlink"><linearGradient id="lg1"><stop offset="0" stop-color="#00b59c"/><stop offset="1" stop-color="#9cffac"/></linearGradient><linearGradient id="SVGID_1_" gradientUnits="userSpaceOnUse" x1="141.718" x2="141.718" xlink:href="#lg1" y1="194.958" y2=".026"/><linearGradient id="SVGID_2_" gradientUnits="userSpaceOnUse" x1="370.292" x2="370.292" xlink:href="#lg1" y1="194.972" y2=".012"/><linearGradient id="lg2"><stop offset="0" stop-color="#c3ffe8"/><stop offset=".9973" stop-color="#f0fff4"/></linearGradient><linearGradient id="SVGID_3_" gradientUnits="userSpaceOnUse" x1="256.012" x2="256.012" xlink:href="#lg2" y1="271.997" y2="89.987"/><linearGradient id="SVGID_4_" gradientUnits="userSpaceOnUse" x1="256.012" x2="256.012" xlink:href="#lg1" y1="512.011" y2="242.012"/><linearGradient id="SVGID_5_" gradientUnits="userSpaceOnUse" x1="165.012" x2="165.012" xlink:href="#lg2" y1="332.012" y2="242.012"/><linearGradient id="SVGID_6_" gradientUnits="userSpaceOnUse" x1="226.012" x2="226.012" xlink:href="#lg2" y1="422.012" y2="332.012"/><linearGradient id="SVGID_7_" gradientUnits="userSpaceOnUse" x1="316.012" x2="316.012" xlink:href="#lg2" y1="392.012" y2="302.012"/><g><g><path d="m149.224 194.958c-23.027 0-46.084-8.76-63.633-26.309-14.297-14.297-29.18-42.598-41.25-151.992-.498-4.526 1.084-9.023 4.307-12.246 3.252-3.223 7.676-4.761 12.246-4.307 109.307 12.085 137.637 26.968 151.963 41.25 35.098 35.112 35.098 92.197.029 127.295-17.548 17.534-40.605 26.309-63.662 26.309z" fill="url(#SVGID_1_)"/></g><g><path d="m362.799 194.972c-24.053 0-46.67-9.36-63.663-26.353-35.097-35.083-35.097-92.183 0-127.266 14.327-14.296 42.657-29.193 151.993-41.263 4.453-.454 8.994 1.084 12.246 4.307 3.223 3.223 4.805 7.72 4.307 12.246-12.07 109.395-26.953 137.695-41.25 151.978-16.993 16.991-39.581 26.351-63.633 26.351z" fill="url(#SVGID_2_)"/></g><g id="Stump_1_"><g><path d="m256.012 271.997c-8.291 0-15-6.709-15-15v-.029c0-49.982-47.399-86.446-102.393-141.346-5.859-5.859-5.859-15.352 0-21.211s15.352-5.859 21.211 0c40.271 40.202 76.255 70.773 96.094 106.611 20.058-36.647 57.758-68.195 96.27-106.641 5.859-5.859 15.352-5.859 21.211 0s5.859 15.352 0 21.211c-51.942 52.029-102.393 90.54-102.393 141.375v.029c0 8.292-6.709 15.001-15 15.001z" fill="url(#SVGID_3_)"/></g><g><path d="m507.511 456.51c-10.8-10.8-22.2-20.4-33.3-29.399-29.099-23.699-52.2-42.299-52.2-75v-95.099c0-8.401-6.599-15-15-15h-302c-8.401 0-15 6.599-15 15v95.099c0 32.701-23.101 51.301-52.2 75-11.1 9-22.5 18.6-33.3 29.399-4.501 4.2-5.702 10.501-3.3 16.201 2.399 5.7 7.8 9.3 13.799 9.3 77.402 0 106.201-13.801 125.398-22.8 9.602-4.501 15.601-7.2 24.602-7.2 16.201 0 29.799 14.099 43.001 28.799 13.499 15.3 27.601 31.201 47.999 31.201s34.501-15.901 47.999-31.201c13.202-14.7 25.8-28.799 42.001-28.799 8.401 0 15.399 2.699 25.302 7.2 20.098 9 50.398 22.8 125.698 22.8 5.999 0 11.4-3.6 13.799-9.3 2.404-5.699 1.202-12-3.298-16.201z" fill="url(#SVGID_4_)"/></g><g><path d="m180.012 242.012v75c0 8.399-6.599 15-15 15s-15-6.601-15-15v-75z" fill="url(#SVGID_5_)"/></g><g><path d="m226.012 422.012c-8.291 0-15-6.709-15-15v-60c0-8.291 6.709-15 15-15s15 6.709 15 15v60c0 8.291-6.709 15-15 15z" fill="url(#SVGID_6_)"/></g><g><path d="m316.012 392.012c-8.291 0-15-6.709-15-15v-60c0-8.291 6.709-15 15-15s15 6.709 15 15v60c0 8.291-6.709 15-15 15z" fill="url(#SVGID_7_)"/></g></g></g></svg>