<svg id="Capa_1" enable-background="new 0 0 512 512" height="512" viewBox="0 0 512 512" width="512" xmlns="http://www.w3.org/2000/svg" xmlns:xlink="http://www.w3.org/1999/xlink"><linearGradient id="lg1"><stop offset="0" stop-color="#ffc8d1"/><stop offset="1" stop-color="#fff6f7"/></linearGradient><linearGradient id="SVGID_1_" gradientUnits="userSpaceOnUse" x1="406" x2="406" xlink:href="#lg1" y1="210" y2="0"/><linearGradient id="SVGID_2_" gradientUnits="userSpaceOnUse" x1="106" x2="106" xlink:href="#lg1" y1="180" y2="0"/><linearGradient id="SVGID_3_" gradientUnits="userSpaceOnUse" x1="256" x2="256" y1="512" y2="135"><stop offset="0" stop-color="#fd3a84"/><stop offset="1" stop-color="#ffa68d"/></linearGradient><linearGradient id="SVGID_4_" gradientUnits="userSpaceOnUse" x1="256" x2="256" xlink:href="#lg1" y1="180" y2="0"/><g id="attract_2_"><path d="m466 15v120l-60 75-60-75v-120c0-8.401 6.599-15 15-15h90c8.401 0 15 6.599 15 15z" fill="url(#SVGID_1_)"/><path d="m166 15v120l-60 45-60-45v-120c0-8.401 6.599-15 15-15h90c8.401 0 15 6.599 15 15z" fill="url(#SVGID_2_)"/><g><g><path d="m466 135v167c0 115.8-94.2 210-210 210s-210-94.2-210-210v-167h120v167c0 49.499 40.499 90 90 90s90-40.501 90-90v-167z" fill="url(#SVGID_3_)"/></g></g><g><path d="m241 180c-3.838 0-7.676-1.465-10.605-4.395-5.859-5.859-5.859-15.352 0-21.211l42.832-42.832-66.973-22.339c-4.937-1.641-8.657-5.713-9.858-10.781-1.187-5.054.322-10.371 3.999-14.048l60-60c5.859-5.859 15.352-5.859 21.211 0s5.859 15.352 0 21.211l-42.832 42.832 66.973 22.339c4.937 1.641 8.657 5.713 9.858 10.781 1.187 5.054-.322 10.371-3.999 14.048l-60 60c-2.93 2.93-6.768 4.395-10.606 4.395z" fill="url(#SVGID_4_)"/></g></g></svg>