<svg id="Capa_1" enable-background="new 0 0 512 512" height="512" viewBox="0 0 512 512" width="512" xmlns="http://www.w3.org/2000/svg" xmlns:xlink="http://www.w3.org/1999/xlink"><linearGradient id="SVGID_1_" gradientUnits="userSpaceOnUse" x1="256" x2="256" y1="420.637" y2="0"><stop offset="0" stop-color="#00b59c"/><stop offset="1" stop-color="#9cffac"/></linearGradient><linearGradient id="SVGID_2_" gradientUnits="userSpaceOnUse" x1="256" x2="256" y1="512" y2="120.212"><stop offset="0" stop-color="#c3ffe8"/><stop offset=".9973" stop-color="#f0fff4"/></linearGradient><g><g><path d="m256 420.637c-91.23 0-165.439-72.524-165.439-161.675 0-84.36 138.311-237.07 154.102-254.194 5.801-6.357 16.875-6.357 22.676 0 15.791 17.124 154.102 169.834 154.102 254.194-.002 89.151-74.211 161.675-165.441 161.675z" fill="url(#SVGID_1_)"/></g><path d="m326.605 274.607c-5.859-5.859-15.352-5.859-21.211 0l-34.394 34.394v-77.578l45.469-45.469c5.859-5.859 5.859-15.352 0-21.211s-15.352-5.859-21.211 0l-24.258 24.258v-53.789c0-8.291-6.709-15-15-15s-15 6.709-15 15v53.789l-24.258-24.258c-5.859-5.859-15.352-5.859-21.211 0s-5.859 15.352 0 21.211l45.469 45.469v77.578l-34.395-34.395c-5.859-5.859-15.352-5.859-21.211 0s-5.859 15.352 0 21.211l55.606 55.606v145.577c0 8.291 6.709 15 15 15s15-6.709 15-15v-145.577l55.605-55.605c5.86-5.86 5.86-15.352 0-21.211z" fill="url(#SVGID_2_)"/></g></svg>