<svg id="Capa_1" enable-background="new 0 0 512 512" height="512" viewBox="0 0 512 512" width="512" xmlns="http://www.w3.org/2000/svg" xmlns:xlink="http://www.w3.org/1999/xlink"><linearGradient id="SVGID_1_" gradientUnits="userSpaceOnUse" x1="331" x2="331" y1="182" y2="0"><stop offset="0" stop-color="#ffc8d1"/><stop offset="1" stop-color="#fff6f7"/></linearGradient><linearGradient id="SVGID_2_" gradientUnits="userSpaceOnUse" x1="256" x2="256" y1="512" y2="122"><stop offset="0" stop-color="#fd3a84"/><stop offset="1" stop-color="#ffa68d"/></linearGradient><g><g id="Apple_1_"><g><path d="m256 182c-8.291 0-15-6.709-15-15 0-90.981 74.033-167 165-167 8.291 0 15 6.709 15 15s-6.709 15-15 15c-74.443 0-135 62.557-135 137 0 8.291-6.709 15-15 15z" fill="url(#SVGID_1_)"/></g></g><g><path d="m342.484 512c-31.26 0-46.963-10.957-59.59-19.775-9.434-6.577-14.912-10.503-26.484-10.225-.234 0-.586 0-.82 0-11.924-.352-17.051 3.647-26.484 10.225-12.627 8.818-28.33 19.775-59.59 19.775-74.59 0-138.516-136.831-138.516-248.833 0-39.712 8.555-73.359 24.756-97.31 19.394-28.696 49.658-43.857 87.51-43.857 29.619 0 51.445 9.492 70.693 17.856 15 6.519 27.949 12.144 42.041 12.144s27.041-5.625 42.041-12.144c19.248-8.364 41.074-17.856 70.693-17.856 37.852 0 68.115 15.176 87.51 43.872 16.201 23.965 24.756 57.627 24.756 97.339 0 111.987-63.926 248.789-138.516 248.789z" fill="url(#SVGID_2_)"/></g></g></svg>