<svg id="Capa_1" enable-background="new 0 0 512 512" height="512" viewBox="0 0 512 512" width="512" xmlns="http://www.w3.org/2000/svg" xmlns:xlink="http://www.w3.org/1999/xlink"><linearGradient id="SVGID_1_" gradientUnits="userSpaceOnUse" x1="256" x2="256" y1="512" y2="0"><stop offset="0" stop-color="#fd5900"/><stop offset="1" stop-color="#ffde00"/></linearGradient><linearGradient id="SVGID_2_" gradientUnits="userSpaceOnUse" x1="240.999" x2="240.999" y1="452" y2="91.134"><stop offset="0" stop-color="#ffe59a"/><stop offset="1" stop-color="#ffffd5"/></linearGradient><g id="Bluetooth_2_"><path d="m391 512h-270c-8.291 0-15-6.709-15-15v-482c0-8.291 6.709-15 15-15h270c8.291 0 15 6.709 15 15v482c0 8.291-6.709 15-15 15z" fill="url(#SVGID_1_)"/><g><g><path d="m324.32 273.52-71.279-47.52 71.279-47.52c4.16-2.783 6.68-7.471 6.68-12.48s-2.52-9.697-6.68-12.48l-90-60c-9.576-6.37-23.32.772-23.32 12.48v91.97l-36.68-24.456c-6.855-4.541-16.201-2.739-20.801 4.16-4.6 6.885-2.725 16.201 4.16 20.801l41.28 27.525-41.279 27.524c-6.885 4.6-8.76 13.916-4.16 20.801 2.9 4.336 7.646 6.68 12.48 6.68 2.871 0 5.771-.82 8.32-2.52l36.68-24.455v91.97c0 10.5 12.681 19.598 23.32 12.48l90-60c4.16-2.783 6.68-7.471 6.68-12.48s-2.52-9.697-6.68-12.48zm-83.32-139.492 47.959 31.972-47.959 31.972zm0 183.944v-63.944l47.959 31.972zm30 104.028h-30c-8.291 0-15 6.709-15 15s6.709 15 15 15h30c8.291 0 15-6.709 15-15s-6.709-15-15-15z" fill="url(#SVGID_2_)"/></g></g></g></svg>