<svg id="Capa_1" enable-background="new 0 0 512 512" height="512" viewBox="0 0 512 512" width="512" xmlns="http://www.w3.org/2000/svg" xmlns:xlink="http://www.w3.org/1999/xlink"><linearGradient id="SVGID_1_" gradientUnits="userSpaceOnUse" x1="256.992" x2="256.992" y1="466.5" y2="30.5"><stop offset="0" stop-color="#a93aff"/><stop offset="1" stop-color="#ff81ff"/></linearGradient><linearGradient id="SVGID_2_" gradientUnits="userSpaceOnUse" x1="256" x2="256" y1="481.5" y2="90.5"><stop offset="0" stop-color="#ffbef9"/><stop offset="1" stop-color="#fff1ff"/></linearGradient><g><g><g><path d="m226.992 30.5h-180c-8.291 0-15 6.709-15 15v421h210v-421c0-8.291-6.709-15-15-15zm240 120h-180c-8.291 0-15 6.709-15 15v301h210v-301c0-8.291-6.709-15-15-15z" fill="url(#SVGID_1_)"/></g></g><g><g><path d="m106 120.5h60c8.291 0 15-6.709 15-15s-6.709-15-15-15h-60c-8.291 0-15 6.709-15 15s6.709 15 15 15zm0 60h60c8.291 0 15-6.709 15-15s-6.709-15-15-15h-60c-8.291 0-15 6.709-15 15s6.709 15 15 15zm240 120h60c8.291 0 15-6.709 15-15s-6.709-15-15-15h-60c-8.291 0-15 6.709-15 15s6.709 15 15 15zm0-60h60c8.291 0 15-6.709 15-15s-6.709-15-15-15h-60c-8.291 0-15 6.709-15 15s6.709 15 15 15zm-240 0h60c8.291 0 15-6.709 15-15s-6.709-15-15-15h-60c-8.291 0-15 6.709-15 15s6.709 15 15 15zm0 60h60c8.291 0 15-6.709 15-15s-6.709-15-15-15h-60c-8.291 0-15 6.709-15 15s6.709 15 15 15zm391 151h-76v-75c0-8.401-6.599-15-15-15h-60c-8.401 0-15 6.599-15 15v75h-150v-75c0-8.401-6.599-15-15-15h-60c-8.401 0-15 6.599-15 15v75h-76c-8.401 0-15 6.599-15 15 0 8.399 6.599 15 15 15h482c8.401 0 15-6.601 15-15 0-8.401-6.599-15-15-15z" fill="url(#SVGID_2_)"/></g></g></g></svg>