<svg id="Capa_1" enable-background="new 0 0 512 512" height="512" viewBox="0 0 512 512" width="512" xmlns="http://www.w3.org/2000/svg" xmlns:xlink="http://www.w3.org/1999/xlink"><linearGradient id="lg1"><stop offset="0" stop-color="#ffedad"/><stop offset="1" stop-color="#ffffe5"/></linearGradient><linearGradient id="SVGID_1_" gradientUnits="userSpaceOnUse" x1="422" x2="422" xlink:href="#lg1" y1="512" y2="280.137"/><linearGradient id="SVGID_2_" gradientUnits="userSpaceOnUse" x1="227" x2="227" xlink:href="#lg1" y1="92" y2="0"/><linearGradient id="SVGID_3_" gradientUnits="userSpaceOnUse" x1="248.5" x2="248.5" y1="302" y2="62"><stop offset="0" stop-color="#fd5900"/><stop offset="1" stop-color="#ffde00"/></linearGradient><linearGradient id="SVGID_4_" gradientUnits="userSpaceOnUse" x1="15" x2="15" xlink:href="#lg1" y1="302" y2="62"/><g><g id="Faucet_1_"><g><path d="m422 512c-49.629 0-90-40.371-90-90 0-40.459 60.117-114.932 78.545-136.787 5.684-6.768 17.227-6.768 22.91 0 18.428 21.855 78.545 96.328 78.545 136.787 0 49.629-40.371 90-90 90z" fill="url(#SVGID_1_)"/></g><path d="m317 0h-180c-8.291 0-15 6.709-15 15s6.709 15 15 15h75v47c0 8.291 6.709 15 15 15s15-6.709 15-15v-47h75c8.291 0 15-6.709 15-15s-6.709-15-15-15z" fill="url(#SVGID_2_)"/></g><path d="m377 122h-46.143c-21.298-36.738-61.054-60-103.857-60s-82.559 23.262-103.857 60h-108.143v120h108.143c21.299 36.738 61.055 60 103.857 60s82.559-23.262 103.857-60h31.143v45c0 8.291 6.709 15 15 15h90c8.291 0 15-6.709 15-15v-60c0-57.891-47.109-105-105-105z" fill="url(#SVGID_3_)"/><g><path d="m15 302c-8.291 0-15-6.709-15-15v-210c0-8.291 6.709-15 15-15s15 6.709 15 15v210c0 8.291-6.709 15-15 15z" fill="url(#SVGID_4_)"/></g></g></svg>