<svg id="Capa_1" enable-background="new 0 0 512 512" height="512" viewBox="0 0 512 512" width="512" xmlns="http://www.w3.org/2000/svg" xmlns:xlink="http://www.w3.org/1999/xlink"><linearGradient id="lg1"><stop offset="0" stop-color="#fd5900"/><stop offset="1" stop-color="#ffde00"/></linearGradient><linearGradient id="SVGID_1_" gradientUnits="userSpaceOnUse" x1="467" x2="467" xlink:href="#lg1" y1="301" y2="181"/><linearGradient id="lg2"><stop offset="0" stop-color="#ffe59a"/><stop offset="1" stop-color="#ffffd5"/></linearGradient><linearGradient id="SVGID_2_" gradientUnits="userSpaceOnUse" x1="142.501" x2="142.501" xlink:href="#lg2" y1="481" y2="300.997"/><linearGradient id="SVGID_3_" gradientUnits="userSpaceOnUse" x1="301" x2="301" xlink:href="#lg2" y1="451.002" y2="31"/><linearGradient id="SVGID_4_" gradientUnits="userSpaceOnUse" x1="82.5" x2="82.5" xlink:href="#lg1" y1="331" y2="151"/><g><path d="m452 181h-15c-8.284 0-15 6.716-15 15v90c0 8.284 6.716 15 15 15h15c33.084 0 60-26.916 60-60s-26.916-60-60-60z" fill="url(#SVGID_1_)"/><path d="m209.708 463.058-30-150c-1.625-8.123-9.529-13.393-17.65-11.767h-75c-8.123 1.625-13.392 9.527-11.767 17.65l30 150c1.402 7.012 7.559 12.059 14.709 12.059h75c9.445 0 16.567-8.649 14.708-17.942z" fill="url(#SVGID_2_)"/><path d="m441.818 31.795c-6.087-2.064-12.813-.021-16.723 5.079-.215.28-21.958 28.322-64.853 56.604-39.799 26.241-105.979 57.522-195.242 57.522-8.284 0-15 6.716-15 15v150c0 8.284 6.716 15 15 15 88.696 0 154.564 30.909 194.202 56.839 43.237 28.285 65.689 57.023 65.894 57.288 3.89 5.074 10.605 7.154 16.723 5.079 6.086-2.066 10.181-7.778 10.181-14.206v-390c0-6.427-4.095-12.14-10.182-14.205z" fill="url(#SVGID_3_)"/><path d="m90 151c-49.626 0-90 40.374-90 90s40.374 90 90 90h75v-180z" fill="url(#SVGID_4_)"/></g></svg>