<svg id="Capa_1" enable-background="new 0 0 512 512" height="512" viewBox="0 0 512 512" width="512" xmlns="http://www.w3.org/2000/svg" xmlns:xlink="http://www.w3.org/1999/xlink"><linearGradient id="SVGID_1_" gradientUnits="userSpaceOnUse" x1="273" x2="273" y1="495" y2="0"><stop offset="0" stop-color="#fd3a84"/><stop offset="1" stop-color="#ffa68d"/></linearGradient><linearGradient id="SVGID_2_" gradientUnits="userSpaceOnUse" x1="256" x2="256" y1="512" y2="2"><stop offset="0" stop-color="#ffc8d1"/><stop offset="1" stop-color="#fff6f7"/></linearGradient><g><g id="Growth_2_"><g><g><path d="m168 360h-90c-8.291 0-15 6.709-15 15v105c0 8.291 6.709 15 15 15h90c8.291 0 15-6.709 15-15v-105c0-8.291-6.709-15-15-15zm150-90h-90c-8.291 0-15 6.709-15 15v195c0 8.291 6.709 15 15 15h90c8.291 0 15-6.709 15-15v-195c0-8.291-6.709-15-15-15zm150-90h-90c-8.291 0-15 6.709-15 15v285c0 8.291 6.709 15 15 15h90c8.291 0 15-6.709 15-15v-285c0-8.291-6.709-15-15-15zm13.846-170.728c-1.52-3.673-4.446-6.599-8.119-8.119-1.832-.757-3.775-1.153-5.727-1.153h-60c-8.291 0-15 6.709-15 15s6.709 15 15 15h23.789l-113.789 113.789-49.395-49.395c-5.859-5.859-15.352-5.859-21.211 0l-150 150c-5.859 5.859-5.859 15.352 0 21.211 2.93 2.93 6.768 4.395 10.605 4.395s7.676-1.465 10.605-4.395l139.396-139.394 49.395 49.395c5.859 5.859 15.352 5.859 21.211 0l124.394-124.395v23.789c0 8.291 6.709 15 15 15s15-6.709 15-15v-60c0-1.952-.396-3.895-1.154-5.728z" fill="url(#SVGID_1_)"/></g></g></g><g><path d="m496 512h-480c-8.291 0-15-6.709-15-15v-480c0-8.291 6.709-15 15-15s15 6.709 15 15v465h465c8.291 0 15 6.709 15 15s-6.709 15-15 15z" fill="url(#SVGID_2_)"/></g></g></svg>