<svg id="Capa_1" enable-background="new 0 0 512 512" height="512" viewBox="0 0 512 512" width="512" xmlns="http://www.w3.org/2000/svg" xmlns:xlink="http://www.w3.org/1999/xlink"><linearGradient id="SVGID_1_" gradientUnits="userSpaceOnUse" x1="256" x2="256" y1="512" y2="0"><stop offset="0" stop-color="#fd3a84"/><stop offset="1" stop-color="#ffa68d"/></linearGradient><linearGradient id="SVGID_2_" gradientUnits="userSpaceOnUse" x1="256" x2="256" y1="451" y2="61"><stop offset="0" stop-color="#ffc2cc"/><stop offset="1" stop-color="#fff2f4"/></linearGradient><g><path d="m406 512h-300c-8.291 0-15-6.709-15-15v-482c0-8.291 6.709-15 15-15h300c8.291 0 15 6.709 15 15v482c0 8.291-6.709 15-15 15z" fill="url(#SVGID_1_)"/><g><g><path d="m330.099 241.899c-24.598-24.898-60-35.4-94.497-29.099-41.404 8.099-74.7 41.4-82.5 82.8-6.899 34.499 3.896 69.899 28.799 94.499 19.797 20.101 46.501 30.901 74.399 30.901 52.576 0 93.881-38.335 102.598-84.6 6.899-34.501-3.897-69.901-28.799-94.501zm-74.099 119.101c-24.902 0-45-20.102-45-45 0-24.9 20.098-45 45-45s45 20.1 45 45c0 24.898-20.098 45-45 45zm-60-165c24.814 0 45-20.186 45-45s-20.186-45-45-45-45 20.186-45 45 20.186 45 45 45zm120-90c-24.814 0-45 20.186-45 45s20.186 45 45 45 45-20.186 45-45-20.186-45-45-45zm30 315c-8.284 0-15 6.716-15 15s6.716 15 15 15 15-6.716 15-15-6.716-15-15-15zm-180 0c-8.284 0-15 6.716-15 15s6.716 15 15 15 15-6.716 15-15-6.716-15-15-15zm180-360c-8.284 0-15 6.716-15 15s6.716 15 15 15 15-6.716 15-15-6.716-15-15-15zm-180 30c8.284 0 15-6.716 15-15s-6.716-15-15-15-15 6.716-15 15 6.716 15 15 15zm315.238 90.762c-5.859-5.859-15.352-5.859-21.211 0s-5.859 15.352 0 21.211c14.15 14.136 21.914 32.974 21.914 53.027s-7.764 38.892-21.914 53.027c-5.859 5.859-5.859 15.352 0 21.211 5.86 5.859 15.352 5.859 21.211 0 19.805-19.805 30.703-46.157 30.703-74.238s-10.898-54.434-30.703-74.238zm-429.265 0c-5.859-5.859-15.352-5.859-21.211 0-19.805 19.804-30.703 46.157-30.703 74.238s10.898 54.434 30.703 74.238c5.86 5.859 15.352 5.859 21.211 0s5.859-15.352 0-21.211c-14.151-14.135-21.914-32.973-21.914-53.027s7.764-38.892 21.914-53.027c5.859-5.86 5.859-15.352 0-21.211z" fill="url(#SVGID_2_)"/></g></g></g></svg>