<svg id="Capa_1" enable-background="new 0 0 512 512" height="512" viewBox="0 0 512 512" width="512" xmlns="http://www.w3.org/2000/svg" xmlns:xlink="http://www.w3.org/1999/xlink"><linearGradient id="SVGID_1_" gradientUnits="userSpaceOnUse" x1="256" x2="256" y1="512" y2="0"><stop offset="0" stop-color="#5558ff"/><stop offset="1" stop-color="#00c0ff"/></linearGradient><linearGradient id="SVGID_2_" gradientUnits="userSpaceOnUse" x1="301.001" x2="301.001" y1="361" y2="0"><stop offset="0" stop-color="#addcff"/><stop offset=".5028" stop-color="#eaf6ff"/><stop offset="1" stop-color="#eaf6ff"/></linearGradient><g><g><path d="m451 105v392c0 8.399-6.599 15-15 15h-360c-8.401 0-15-6.601-15-15v-482c0-8.401 6.599-15 15-15h270l15 90z" fill="url(#SVGID_1_)"/></g><g id="Paper_1_"><g><g><path d="m446.499 94.499-90-90c-2.699-2.999-6.599-4.499-10.499-4.499v90c0 8.284 6.716 15 15 15h90c0-3.9-1.5-7.8-4.501-10.501zm-115.763 196.906c-4.277-7.104-13.535-9.346-20.566-5.142-7.119 4.263-9.434 13.477-5.156 20.581l14.502 24.156h-29.766c-8.291 0-15 6.709-15 15s6.709 15 15 15h56.25c5.391 0 10.4-2.9 13.066-7.603 2.637-4.702 2.578-10.474-.205-15.117zm-108.486 39.595h-29.766l14.502-24.155c4.277-7.104 1.963-16.318-5.156-20.581-7.002-4.204-16.289-1.963-20.566 5.142l-28.125 46.875c-2.783 4.644-2.842 10.415-.205 15.117 2.666 4.702 7.675 7.602 13.066 7.602h56.25c8.291 0 15-6.709 15-15s-6.709-15-15-15zm75.205-65.889c7.119-4.263 9.434-13.477 5.156-20.581l-33.75-56.25c-5.391-9.023-20.332-9.023-25.723 0l-33.75 56.25c-4.277 7.104-1.963 16.318 5.156 20.581 7.031 4.233 16.289 1.992 20.566-5.142l20.89-34.819 20.889 34.819c4.284 7.14 13.544 9.381 20.566 5.142z" fill="url(#SVGID_2_)"/></g></g></g></g></svg>