<svg id="Capa_1" enable-background="new 0 0 512 512" height="512" viewBox="0 0 512 512" width="512" xmlns="http://www.w3.org/2000/svg" xmlns:xlink="http://www.w3.org/1999/xlink"><linearGradient id="SVGID_1_" gradientUnits="userSpaceOnUse" x1="241" x2="241" y1="422" y2="0"><stop offset="0" stop-color="#ffbef9"/><stop offset="1" stop-color="#fff1ff"/></linearGradient><linearGradient id="lg1"><stop offset="0" stop-color="#a93aff"/><stop offset="1" stop-color="#ff81ff"/></linearGradient><linearGradient id="SVGID_2_" gradientUnits="userSpaceOnUse" x1="196" x2="196" xlink:href="#lg1" y1="512" y2="422"/><linearGradient id="SVGID_3_" gradientUnits="userSpaceOnUse" x1="407" x2="407" xlink:href="#lg1" y1="512" y2="422"/><linearGradient id="SVGID_4_" gradientUnits="userSpaceOnUse" x1="293.423" x2="293.423" xlink:href="#lg1" y1="332" y2="91"/><g><path d="m467 422h-331c-7.408 0-13.707-5.408-14.827-12.73l-58.052-379.27h-48.121c-8.284 0-15-6.716-15-15s6.716-15 15-15h61c7.408 0 13.707 5.408 14.827 12.73l58.052 379.27h318.121c8.284 0 15 6.716 15 15s-6.716 15-15 15z" fill="url(#SVGID_1_)"/><path d="m196 512c-24.813 0-45-20.187-45-45s20.187-45 45-45 45 20.187 45 45-20.187 45-45 45z" fill="url(#SVGID_2_)"/><path d="m407 512c-24.813 0-45-20.187-45-45s20.187-45 45-45 45 20.187 45 45-20.187 45-45 45z" fill="url(#SVGID_3_)"/><path d="m508.328 96.168c-2.849-3.283-6.981-5.168-11.328-5.168h-407.154c-8.284 0-15 6.716-15 15l32.309 211c0 8.284 6.716 15 15 15h344.845c7.469 0 13.799-5.494 14.851-12.889l30-211c.612-4.303-.673-8.66-3.523-11.943z" fill="url(#SVGID_4_)"/></g></svg>