<svg id="Capa_1" enable-background="new 0 0 512.103 512.103" height="512" viewBox="0 0 512.103 512.103" width="512" xmlns="http://www.w3.org/2000/svg" xmlns:xlink="http://www.w3.org/1999/xlink"><linearGradient id="lg1"><stop offset="0" stop-color="#fd5900"/><stop offset="1" stop-color="#ffde00"/></linearGradient><linearGradient id="SVGID_1_" gradientUnits="userSpaceOnUse" x1="160.653" x2="160.653" xlink:href="#lg1" y1="512.102" y2="190.796"/><linearGradient id="SVGID_2_" gradientUnits="userSpaceOnUse" x1="327.45" x2="327.45" y1="305.698" y2="63.604"><stop offset="0" stop-color="#ffedad"/><stop offset="1" stop-color="#ffffe5"/></linearGradient><linearGradient id="SVGID_3_" gradientUnits="userSpaceOnUse" x1="327.45" x2="327.45" xlink:href="#lg1" y1="512" y2="0"/><g id="Justice_Hammer_2_"><g><g><g><path d="m45.101 512.103c-11.558 0-23.115-4.395-31.904-13.198-17.593-17.593-17.593-46.216 0-63.809l239.89-239.906c5.859-5.859 15.352-5.859 21.211 0l42.612 42.598c2.813 2.813 4.395 6.621 4.395 10.605s-1.582 7.793-4.395 10.605l-239.905 239.906c-8.789 8.804-20.347 13.199-31.904 13.199z" fill="url(#SVGID_1_)"/></g><g><path d="m348.595 305.698c-3.984 0-7.793-1.582-10.605-4.395l-127.193-127.192c-5.859-5.859-5.859-15.352 0-21.211l84.902-84.902c5.859-5.859 15.352-5.859 21.211 0l127.193 127.192c5.859 5.859 5.859 15.352 0 21.211l-84.903 84.903c-2.812 2.812-6.621 4.394-10.605 4.394z" fill="url(#SVGID_2_)"/></g></g></g><g><g><path d="m312.296 312.026c0 3.984 1.597 7.808 4.424 10.62l42.598 42.305c2.93 2.9 6.753 4.351 10.576 4.351 3.838 0 7.676-1.465 10.605-4.395l127.207-127.207c2.813-2.813 4.395-6.621 4.395-10.605s-1.582-7.793-4.395-10.605l-42.305-42.29c-5.815-5.815-15.234-5.859-21.138-.073l-127.572 127.265c-2.828 2.812-4.395 6.65-4.395 10.634zm25.605-265.327-42.29-42.305c-2.812-2.812-6.621-4.394-10.605-4.394s-7.793 1.582-10.605 4.395l-127.208 127.207c-5.845 5.845-5.859 15.308-.044 21.182l42.305 42.598c2.813 2.827 6.636 4.424 10.62 4.424h.029c3.984 0 7.793-1.582 10.605-4.395l127.267-127.574c5.786-5.874 5.757-15.308-.074-21.138zm99.101 375.301h-90c-41.353 0-75 33.647-75 75 0 8.291 6.709 15 15 15h210c8.291 0 15-6.709 15-15 0-41.353-33.648-75-75-75z" fill="url(#SVGID_3_)"/></g></g></g></svg>