<svg id="Capa_1" enable-background="new 0 0 510 510" height="512" viewBox="0 0 510 510" width="512" xmlns="http://www.w3.org/2000/svg" xmlns:xlink="http://www.w3.org/1999/xlink"><linearGradient id="lg1"><stop offset="0" stop-color="#5558ff"/><stop offset="1" stop-color="#00c0ff"/></linearGradient><linearGradient id="SVGID_1_" gradientUnits="userSpaceOnUse" x1="255" x2="255" xlink:href="#lg1" y1="510" y2="0"/><linearGradient id="SVGID_2_" gradientUnits="userSpaceOnUse" x1="255" x2="255" y1="419.311" y2="90.689"><stop offset="0" stop-color="#addcff"/><stop offset=".5028" stop-color="#eaf6ff"/><stop offset="1" stop-color="#eaf6ff"/></linearGradient><linearGradient id="SVGID_3_" gradientUnits="userSpaceOnUse" x1="195" x2="195" xlink:href="#lg1" y1="285" y2="225"/><linearGradient id="SVGID_4_" gradientUnits="userSpaceOnUse" x1="315" x2="315" xlink:href="#lg1" y1="285" y2="225"/><g><g><path d="m435 510h-360c-24.813 0-45-20.187-45-45v-420c0-24.813 20.187-45 45-45h360c24.813 0 45 20.187 45 45v420c0 24.813-20.187 45-45 45z" fill="url(#SVGID_1_)"/></g><path d="m270 90.689v44.311c0 8.284-6.716 15-15 15s-15-6.716-15-15v-44.311c-83.978 7.604-150 78.386-150 164.311s66.022 156.707 150 164.311v-44.311c0-8.284 6.716-15 15-15s15 6.716 15 15v44.311c83.978-7.604 150-78.386 150-164.311s-66.022-156.707-150-164.311z" fill="url(#SVGID_2_)"/><path d="m195 285c-8.284 0-15-6.716-15-15v-30c0-8.284 6.716-15 15-15s15 6.716 15 15v30c0 8.284-6.716 15-15 15z" fill="url(#SVGID_3_)"/><path d="m315 285c-8.284 0-15-6.716-15-15v-30c0-8.284 6.716-15 15-15s15 6.716 15 15v30c0 8.284-6.716 15-15 15z" fill="url(#SVGID_4_)"/></g></svg>