<svg id="Capa_1" enable-background="new 0 0 511.979 511.979" height="512" viewBox="0 0 511.979 511.979" width="512" xmlns="http://www.w3.org/2000/svg" xmlns:xlink="http://www.w3.org/1999/xlink"><linearGradient id="lg1"><stop offset="0" stop-color="#ffedad"/><stop offset="1" stop-color="#ffffe5"/></linearGradient><linearGradient id="SVGID_1_" gradientUnits="userSpaceOnUse" x1="170.868" x2="170.868" xlink:href="#lg1" y1="370.606" y2="311.615"/><linearGradient id="lg2"><stop offset="0" stop-color="#fd5900"/><stop offset="1" stop-color="#ffde00"/></linearGradient><linearGradient id="SVGID_2_" gradientUnits="userSpaceOnUse" x1="316.979" x2="316.979" xlink:href="#lg2" y1="390" y2="0"/><linearGradient id="SVGID_3_" gradientUnits="userSpaceOnUse" x1="316.979" x2="316.979" xlink:href="#lg1" y1="330" y2="60"/><linearGradient id="SVGID_4_" gradientUnits="userSpaceOnUse" x1="94.096" x2="94.096" xlink:href="#lg2" y1="511.979" y2="323.787"/><g><g><path d="m162.585 370.606-21.213-21.212 37.779-37.779 21.213 21.213z" fill="url(#SVGID_1_)"/></g><g id="Finding_money"><g><path d="m316.979 390c-107.523 0-195-87.477-195-195s87.477-195 195-195 195 87.477 195 195-87.477 195-195 195z" fill="url(#SVGID_2_)"/></g><path d="m368.405 196.18c-10.232-7.675-22.823-12.802-36.426-14.983v-59.409c17.28 4.223 30 15.437 30 28.212 0 8.284 6.716 15 15 15s15-6.716 15-15c0-16.612-8.593-32.584-23.574-43.82-10.232-7.675-22.823-12.802-36.426-14.983v-16.197c0-8.284-6.716-15-15-15s-15 6.716-15 15v16.197c-13.603 2.181-26.194 7.308-36.426 14.983-14.981 11.236-23.574 27.208-23.574 43.82s8.593 32.584 23.574 43.82c10.232 7.675 22.823 12.802 36.426 14.983v59.409c-17.28-4.223-30-15.437-30-28.212 0-8.284-6.716-15-15-15s-15 6.716-15 15c0 16.612 8.593 32.584 23.574 43.82 10.232 7.675 22.823 12.802 36.426 14.983v16.197c0 8.284 6.716 15 15 15s15-6.716 15-15v-16.197c13.603-2.181 26.194-7.308 36.426-14.983 14.981-11.236 23.574-27.208 23.574-43.82s-8.593-32.584-23.574-43.82zm-96.426-46.18c0-12.775 12.72-23.989 30-28.212v56.424c-17.28-4.223-30-15.437-30-28.212zm60 118.212v-56.424c17.28 4.223 30 15.437 30 28.212s-12.72 23.989-30 28.212z" fill="url(#SVGID_3_)"/><g><g><g><path d="m44.979 511.979c-11.525 0-23.047-4.386-31.82-13.16-17.545-17.545-17.544-46.094.001-63.639l107-107c2.813-2.813 6.628-4.394 10.606-4.394s7.794 1.581 10.606 4.394l42.426 42.427c5.858 5.858 5.858 15.355 0 21.213l-107 107c-8.771 8.772-20.297 13.159-31.819 13.159z" fill="url(#SVGID_4_)"/></g></g></g></g></g></svg>