<svg id="Capa_1" enable-background="new 0 0 512 512" height="512" viewBox="0 0 512 512" width="512" xmlns="http://www.w3.org/2000/svg" xmlns:xlink="http://www.w3.org/1999/xlink"><linearGradient id="lg1"><stop offset="0" stop-color="#addcff"/><stop offset=".5028" stop-color="#eaf6ff"/><stop offset="1" stop-color="#eaf6ff"/></linearGradient><linearGradient id="SVGID_1_" gradientUnits="userSpaceOnUse" x1="422" x2="422" xlink:href="#lg1" y1="413.5" y2="233.5"/><linearGradient id="SVGID_2_" gradientUnits="userSpaceOnUse" x1="90" x2="90" xlink:href="#lg1" y1="413.5" y2="233.5"/><linearGradient id="SVGID_3_" gradientUnits="userSpaceOnUse" x1="256.009" x2="256.009" y1="338.5" y2="98.5"><stop offset="0" stop-color="#5558ff"/><stop offset="1" stop-color="#00c0ff"/></linearGradient><g><path d="m422 233.5c-49.629 0-90 40.371-90 90s40.371 90 90 90 90-40.371 90-90-40.371-90-90-90zm0 150c-33.091 0-60-26.909-60-60s26.909-60 60-60 60 26.909 60 60-26.909 60-60 60z" fill="url(#SVGID_1_)"/><path d="m90 233.5c-49.629 0-90 40.371-90 90s40.371 90 90 90 90-40.371 90-90-40.371-90-90-90zm0 150c-33.091 0-60-26.909-60-60s26.909-60 60-60 60 26.909 60 60-26.909 60-60 60z" fill="url(#SVGID_2_)"/><path d="m434.861 315.78-87.861-146.435v-25.845c0-8.276 6.738-15 15-15h30c8.291 0 15-6.709 15-15s-6.709-15-15-15h-30c-24.814 0-45 20.186-45 45v15h-152v-30h15c8.291 0 15-6.709 15-15s-6.709-15-15-15h-60c-8.291 0-15 6.709-15 15s6.709 15 15 15h15v42.144l-58.916 147.29c-1.846 4.614-1.289 9.858 1.494 13.975s7.442 6.591 12.422 6.591h182c4.796 0 10.158-2.778 13.916-9.434l48.772-121.928 74.451 124.081c4.288 7.147 13.551 9.377 20.566 5.142 7.119-4.262 9.434-13.476 5.156-20.581zm-280.492-112.795 86.412 105.515h-128.633zm113.26 91.031-86.428-105.516h128.65z" fill="url(#SVGID_3_)"/></g></svg>