<svg id="Capa_1" enable-background="new 0 0 512 512" height="512" viewBox="0 0 512 512" width="512" xmlns="http://www.w3.org/2000/svg" xmlns:xlink="http://www.w3.org/1999/xlink"><linearGradient id="lg1"><stop offset="0" stop-color="#fd5900"/><stop offset="1" stop-color="#ffde00"/></linearGradient><linearGradient id="SVGID_1_" gradientUnits="userSpaceOnUse" x1="256" x2="256" xlink:href="#lg1" y1="512" y2="241"/><linearGradient id="SVGID_2_" gradientUnits="userSpaceOnUse" x1="256.021" x2="256.021" xlink:href="#lg1" y1="192.861" y2="0"/><linearGradient id="SVGID_3_" gradientUnits="userSpaceOnUse" x1="256" x2="256" y1="421" y2="300.99"><stop offset="0" stop-color="#ffedad"/><stop offset="1" stop-color="#ffffe5"/></linearGradient><g id="Rank_1_"><g><path d="m497 512h-482c-8.291 0-15-6.709-15-15v-181c0-8.291 6.709-15 15-15h136v-45c0-8.291 6.709-15 15-15h180c8.291 0 15 6.709 15 15v105h136c8.291 0 15 6.709 15 15v121c0 8.291-6.709 15-15 15z" fill="url(#SVGID_1_)"/></g><g><path d="m301.85 191.133-45.908-24.185-45.938 24.097c-5.054 2.666-11.162 2.212-15.806-1.157-4.614-3.354-6.914-9.053-5.947-14.678l8.804-51.123-37.104-36.24c-4.087-3.999-5.552-9.961-3.794-15.381 1.772-5.435 6.475-9.39 12.129-10.195l51.357-7.427 22.998-46.494c2.534-5.113 7.749-8.35 13.447-8.35h.015c5.713 0 10.928 3.252 13.447 8.379l22.91 46.538 51.328 7.515c5.654.82 10.342 4.79 12.1 10.225 1.758 5.42.278 11.382-3.809 15.366l-37.178 36.167 8.716 51.152c.967 5.625-1.348 11.309-5.977 14.663-4.629 3.355-10.746 3.785-15.79 1.128z" fill="url(#SVGID_2_)"/></g><path d="m286 391h-15v-75c0-6.064-3.647-11.543-9.258-13.857-5.625-2.344-12.041-1.04-16.348 3.252l-30 30c-5.859 5.859-5.859 15.352 0 21.211s15.352 5.859 21.211 0l4.395-4.395v38.789h-15c-8.291 0-15 6.709-15 15s6.709 15 15 15h60c8.291 0 15-6.709 15-15s-6.709-15-15-15z" fill="url(#SVGID_3_)"/></g></svg>