<svg id="Capa_1" enable-background="new 0 0 512 512" height="512" viewBox="0 0 512 512" width="512" xmlns="http://www.w3.org/2000/svg" xmlns:xlink="http://www.w3.org/1999/xlink"><linearGradient id="lg1"><stop offset="0" stop-color="#fd5900"/><stop offset="1" stop-color="#ffde00"/></linearGradient><linearGradient id="SVGID_1_" gradientUnits="userSpaceOnUse" x1="407" x2="407" xlink:href="#lg1" y1="512" y2="0"/><linearGradient id="lg2"><stop offset="0" stop-color="#ffedad"/><stop offset="1" stop-color="#ffffe5"/></linearGradient><linearGradient id="SVGID_2_" gradientUnits="userSpaceOnUse" x1="407" x2="407" xlink:href="#lg2" y1="452" y2="90"/><linearGradient id="SVGID_3_" gradientUnits="userSpaceOnUse" x1="135.15" x2="135.15" xlink:href="#lg1" y1="512" y2="0"/><linearGradient id="SVGID_4_" gradientUnits="userSpaceOnUse" x1="135" x2="135" xlink:href="#lg2" y1="512" y2="0"/><g><g><path d="m407 512c-57.891 0-105-47.109-105-105 0-27.144 10.869-53.394 30-73.022v-258.978c0-41.353 33.633-75 75-75s75 33.647 75 75v258.978c19.131 19.629 30 45.879 30 73.022 0 57.891-47.109 105-105 105z" fill="url(#SVGID_1_)"/></g><g id="Global_Warming_2_"><path d="m422 364.763v-259.763c0-8.291-6.709-15-15-15s-15 6.709-15 15v259.763c-17.424 6.213-30 22.707-30 42.237 0 24.814 20.186 45 45 45s45-20.186 45-45c0-19.53-12.576-36.024-30-42.237z" fill="url(#SVGID_2_)"/></g><path d="m270 120v-87.601c-4.733-1.544-26.287-32.399-15-32.399-91.199 0-171 47.999-216.301 120l15.575 30h-31.474c-12.9 27.599-20.4 58.2-22.5 90l36.059 17-36.059 15c2.1 31.8 9.6 62.399 22.5 90l53.258 15-37.359 15c45.301 71.999 125.102 120 216.301 120-9.375 0-5.272-11.433-5.272-11.433l4.069-18.739c5.352.167 10.746-.491 16.203-2.228v-87.6l-30-15 30-15v-90l-30-15 30-17v-90l-30-15z" fill="url(#SVGID_3_)"/><path d="m171.599 120h98.401v30h-107.401c-6.899 27.299-11.1 57.9-11.999 90h119.4v32h-119.399c1.199 31.8 5.099 62.399 12.299 90h107.1v30h-98.101c14.7 40.499 35.4 71.1 59.401 84 12.599 6.599 25.499 7.8 38.699 3.6v17.4c0 7.2-5.099 13.2-12.001 14.7-.898.3-2.097.3-2.998.3-12.599 0-25.201-3.001-37.5-9.6-33.3-17.401-60.3-57.599-77.1-110.4h-101.7c-5.999-9.6-11.4-19.501-15.899-30h109.2c-6.601-27.9-10.501-57.9-11.4-90h-120.301c-.3-5.101-.3-9.901-.3-15 0-5.101 0-11.901.3-17h120.3c.899-31.8 4.799-62.1 11.4-90h-109.2c4.499-10.501 9.901-20.4 15.899-30h101.7c16.5-51 42.301-90.601 74.101-108.9 13.201-7.5 26.699-11.1 40.5-11.1.901 0 2.1 0 2.999.3 6.902 1.5 12.001 7.5 12.001 14.7v17.399c-13.801-4.499-27.299-2.999-40.8 4.801-23.701 13.8-43.5 43.5-57.601 82.8z" fill="url(#SVGID_4_)"/></g></svg>