<svg id="Capa_1" enable-background="new 0 0 512 512" height="512" viewBox="0 0 512 512" width="512" xmlns="http://www.w3.org/2000/svg" xmlns:xlink="http://www.w3.org/1999/xlink"><linearGradient id="SVGID_1_" gradientUnits="userSpaceOnUse" x1="255.5" x2="255.5" y1="512" y2="27.441"><stop offset="0" stop-color="#addcff"/><stop offset=".5028" stop-color="#eaf6ff"/><stop offset="1" stop-color="#eaf6ff"/></linearGradient><linearGradient id="SVGID_2_" gradientUnits="userSpaceOnUse" x1="256" x2="256" y1="452" y2="0"><stop offset="0" stop-color="#5558ff"/><stop offset="1" stop-color="#00c0ff"/></linearGradient><g id="News_Van_1_"><g><g><path d="m304.6 401.898 26.4 50.102c0 32.999 27.001 60 60 60s60-27.001 60-60l26.4-49.801-86.4-40.199zm-243.6 50.102c0 32.999 27.001 60 60 60s60-27.001 60-60l26.4-49.801-86.4-40.199-87.4 39.898zm128.994-373.334c3.838 0 7.676-1.465 10.605-4.395l21.211-21.226c5.859-5.859 5.859-15.366 0-21.211-5.859-5.859-15.352-5.859-21.211 0l-21.211 21.226c-5.859 5.859-5.859 15.366 0 21.211 2.93 2.93 6.768 4.395 10.606 4.395zm-101.514 124.654 63.281-3.574c2.11 6.284 7.969 10.254 14.239 10.254 1.582 0 3.164-.249 4.746-.776 7.852-2.607 12.1-11.104 9.492-18.97l-23.555-70.635c-2.003-5.979-7.379-9.789-13.301-10.162-1.066-2.856-2.754-5.506-5.479-7.328-6.855-4.556-16.201-2.754-20.801 4.16l-53.582 80.391c-4.6 6.899-2.725 16.201 4.16 20.801 2.549 1.699 5.449 2.519 8.32 2.519 4.834 0 9.58-2.344 12.48-6.68zm390.938 104.971-60-120c-2.541-5.081-7.734-8.291-13.415-8.291h-75.003c-16.569 0-30 13.432-30 30h-135-90-46v152h91 180v-47c0 8.284 6.716 15 15 15h150c5.186 0 10.02-2.695 12.773-7.119 2.725-4.424 2.959-9.947.645-14.59z" fill="url(#SVGID_1_)"/></g></g><g><g><path d="m497 300h-166v-120h-316c-8.401 0-15 6.599-15 15v242c0 8.399 6.599 15 15 15h46c0-6.901 1.201-13.801 3.6-20.102 8.1-23.699 30.901-39.898 56.4-39.898s48.3 16.199 56.4 40.199c2.399 6 3.6 12.899 3.6 19.801h150c0-6.901 1.201-13.801 3.6-20.102 8.1-23.699 30.901-39.898 56.4-39.898s48.3 16.199 56.4 40.199c2.399 6 3.6 12.899 3.6 19.801h46c8.401 0 15-6.601 15-15v-122c0-8.401-6.599-15-15-15zm-226 15c0 8.399-6.599 15-15 15h-180c-8.401 0-15-6.601-15-15v-60c0-8.401 6.599-15 15-15h180c8.401 0 15 6.599 15 15zm-23.672-181.68c3.574-2.563 5.889-6.577 6.24-10.972.381-4.409-1.201-8.745-4.336-11.865l-106.054-106.055c-3.105-3.135-7.617-4.819-11.982-4.351-4.424.381-8.555 2.666-11.104 6.284-40.755 39.673-36.064 96.651-2.725 129.932 33.709 33.738 91.664 37.738 129.961-2.973z" fill="url(#SVGID_2_)"/></g></g></g></svg>