<svg id="Capa_1" enable-background="new 0 0 512 512" height="512" viewBox="0 0 512 512" width="512" xmlns="http://www.w3.org/2000/svg" xmlns:xlink="http://www.w3.org/1999/xlink"><linearGradient id="SVGID_1_" gradientUnits="userSpaceOnUse" x1="256" x2="256" y1="462" y2="50"><stop offset="0" stop-color="#fd3a84"/><stop offset="1" stop-color="#ffa68d"/></linearGradient><g><path d="m367.549 462h-63.549c-8.284 0-15-6.716-15-15v-21.003c-16.212 2.677-33.08 4.069-49.651 4.069-16.392 0-33.16-1.393-49.349-4.069v21.003c0 8.284-6.716 15-15 15h-63.851c-8.284 0-15-6.716-15-15 0-30.509-13.678-60.621-37.526-82.615-37.804-34.864-58.623-78.979-58.623-124.218 0-104.711 107.372-189.9 239.349-189.9 41.243 0 81.854 8.468 117.441 24.489l3.225 1.452c19.981-16.973 44.818-26.208 70.985-26.208 8.284 0 15 6.716 15 15v80.427c14.282 19.785 24.062 41.815 28.711 64.573h22.289c8.284 0 15 6.716 15 15v94.667c0 8.284-6.716 15-15 15-30.866 0-59.765 11.938-81.375 33.613-21.109 21.174-33.165 49.85-33.076 78.674.012 3.986-1.563 7.813-4.377 10.636s-6.636 4.41-10.623 4.41z" fill="url(#SVGID_1_)"/><g fill="#ffdbe1"><path d="m287 150h-122c-8.284 0-15-6.716-15-15s6.716-15 15-15h122c8.284 0 15 6.716 15 15s-6.716 15-15 15z"/><circle cx="377" cy="195" r="15"/></g></g></svg>