<svg id="Capa_1" enable-background="new 0 0 512 512" height="512" viewBox="0 0 512 512" width="512" xmlns="http://www.w3.org/2000/svg" xmlns:xlink="http://www.w3.org/1999/xlink"><linearGradient id="lg1"><stop offset="0" stop-color="#ffc8d1"/><stop offset="1" stop-color="#fff6f7"/></linearGradient><linearGradient id="SVGID_1_" gradientUnits="userSpaceOnUse" x1="271.002" x2="271.002" xlink:href="#lg1" y1="512" y2="401.598"/><linearGradient id="SVGID_2_" gradientUnits="userSpaceOnUse" x1="240.996" x2="240.996" y1="390" y2="0"><stop offset="0" stop-color="#fd3a84"/><stop offset="1" stop-color="#ffa68d"/></linearGradient><linearGradient id="SVGID_3_" gradientUnits="userSpaceOnUse" x1="211.002" x2="211.002" xlink:href="#lg1" y1="150" y2="120"/><linearGradient id="SVGID_4_" gradientUnits="userSpaceOnUse" x1="271.002" x2="271.002" xlink:href="#lg1" y1="433.4" y2="360"/><g><path d="m433.902 504.8c-2.999 4.499-7.8 7.2-12.9 7.2h-300c-5.099 0-9.901-2.701-12.9-7.2-2.701-4.2-2.701-9.901-.601-14.401l28.5-56.999 138.872-31.802 131.129 31.802 28.5 56.999c2.1 4.501 2.1 10.201-.6 14.401z" fill="url(#SVGID_1_)"/><g><g><path d="m273.703 34.2c-14.101-21.3-37.5-34.2-62.701-34.2-8.401 0-15 6.599-15 15v46.8c-40.201 32.1-114.3 91.5-114.3 91.5-5.7 4.501-7.2 12.001-4.2 18.3l30 60c2.1 4.501 6.301 7.5 11.1 8.101 4.801.899 9.6-.601 12.9-4.2l25.801-25.501h68.099c-.599 9.6-1.8 17.699-3.6 25.199v.3c-5.099 21.899-14.7 35.099-24.6 48.6-14.701 20.101-31.2 42.601-31.2 90.901 0 8.399 6.599 15 15 15h180c8.401 0 15-6.601 15-15 0-64.2 8.699-87.9 16.8-108.6 6.601-18.301 13.2-35.7 13.2-71.4 0-84.901-46.8-141.901-132.299-160.8z" fill="url(#SVGID_2_)"/></g><g id="Chess_4_"><g><circle cx="211.002" cy="135" fill="url(#SVGID_3_)" r="15"/></g></g><path d="m406.002 375v58.4h-270v-58.4c0-8.401 6.599-15 15-15h240c8.401 0 15 6.599 15 15z" fill="url(#SVGID_4_)"/></g></g></svg>