<svg id="Capa_1" enable-background="new 0 0 512 512" height="512" viewBox="0 0 512 512" width="512" xmlns="http://www.w3.org/2000/svg" xmlns:xlink="http://www.w3.org/1999/xlink"><linearGradient id="lg1"><stop offset="0" stop-color="#addcff"/><stop offset=".5028" stop-color="#eaf6ff"/><stop offset="1" stop-color="#eaf6ff"/></linearGradient><linearGradient id="SVGID_1_" gradientUnits="userSpaceOnUse" x1="256" x2="256" xlink:href="#lg1" y1="151.509" y2="0"/><linearGradient id="SVGID_2_" gradientUnits="userSpaceOnUse" x1="256" x2="256" y1="512" y2="62"><stop offset="0" stop-color="#5558ff"/><stop offset="1" stop-color="#00c0ff"/></linearGradient><linearGradient id="SVGID_3_" gradientUnits="userSpaceOnUse" x1="256" x2="256" xlink:href="#lg1" y1="332" y2="152"/><g><g><g><path d="m286 0h-60c-8.291 0-15 6.709-15 15s6.709 15 15 15h15v45c0 8.291 6.709 15 15 15s15-6.709 15-15v-45h15c8.291 0 15-6.709 15-15s-6.709-15-15-15zm-210.22 83.569c-5.859-5.859-15.352-5.859-21.211 0s-5.859 15.352 0 21.211l42.334 42.334c2.93 2.93 6.768 4.395 10.605 4.395s7.676-1.465 10.605-4.395c5.859-5.859 5.859-15.352 0-21.211zm381.651 0c-5.859-5.859-15.352-5.859-21.211 0l-42.334 42.334c-5.859 5.859-5.859 15.352 0 21.211 2.93 2.93 6.768 4.395 10.605 4.395s7.676-1.465 10.605-4.395l42.334-42.334c5.86-5.859 5.86-15.351.001-21.211z" fill="url(#SVGID_1_)"/></g></g><g id="Stopwatch_2_"><g><path d="m256 512c-124.072 0-225-100.928-225-225s100.928-225 225-225 225 100.928 225 225-100.928 225-225 225z" fill="url(#SVGID_2_)"/></g><path d="m271 244.763v-77.763c0-8.291-6.709-15-15-15s-15 6.709-15 15v77.763c-17.422 6.213-30 22.707-30 42.237 0 24.814 20.186 45 45 45s45-20.186 45-45c0-19.53-12.578-36.024-30-42.237z" fill="url(#SVGID_3_)"/></g></g></svg>