<svg id="Capa_1" enable-background="new 0 0 512 512" height="512" viewBox="0 0 512 512" width="512" xmlns="http://www.w3.org/2000/svg" xmlns:xlink="http://www.w3.org/1999/xlink"><linearGradient id="SVGID_1_" gradientTransform="matrix(.707 .707 -.707 .707 172.801 142.821)" gradientUnits="userSpaceOnUse" x1="138.86" x2="138.86" y1="81.492" y2="-291.114"><stop offset="0" stop-color="#ffbef9"/><stop offset="1" stop-color="#fff1ff"/></linearGradient><linearGradient id="SVGID_2_" gradientTransform="matrix(.707 .707 -.707 .707 172.801 142.821)" gradientUnits="userSpaceOnUse" x1="138.86" x2="138.86" y1="333.513" y2="-38.508"><stop offset="0" stop-color="#a93aff"/><stop offset="1" stop-color="#ff81ff"/></linearGradient><g><path d="m183.032 247.086c5.303 18.88 15.485 36.698 30.335 51.548 14.85 14.849 32.668 25.031 51.548 30.335l12.092 33.305 52.185-32.668c19.728-5.305 38.396-15.487 53.881-30.972l93.767-93.767c46.882-46.882 46.882-122.824 0-169.706s-122.824-46.882-169.706 0l-93.767 93.767c-15.485 15.485-25.667 34.153-30.972 53.881l30.972 30.972 33.305-30.335c5.623-10.732 6.521-8.677 102.888-105.858 23.335-23.335 61.519-23.334 84.853 0s23.335 61.518 0 84.853l-93.767 93.767c-3.606 3.606-7.636 6.787-12.092 9.122l-51.548-30.335-63.64-21.213z" fill="url(#SVGID_1_)"/><path d="m298.219 383.486-93.353 93.353c-46.88 46.88-122.824 46.882-169.706 0s-46.88-122.825 0-169.706l93.353-93.353c15.487-15.487 34.154-25.668 53.881-30.972 21.002-5.727 43.276-5.516 64.277.637 18.88 5.303 36.698 15.485 51.548 30.335s25.031 32.668 30.335 51.548c-22.909 13.577-53.033 10.607-72.761-9.122s-49.852-22.698-72.761-9.122c-4.454 2.333-8.484 5.514-12.092 9.122l-93.353 93.354c-23.334 23.334-23.334 61.519 0 84.853s61.519 23.334 84.853 0c95.736-96.548 96.85-94.707 102.474-105.444 21.002 6.151 43.274 6.364 64.277.637-5.303 19.726-15.485 38.394-30.972 53.88z" fill="url(#SVGID_2_)"/></g></svg>