<svg id="Capa_1" enable-background="new 0 0 512 512" height="512" viewBox="0 0 512 512" width="512" xmlns="http://www.w3.org/2000/svg" xmlns:xlink="http://www.w3.org/1999/xlink"><linearGradient id="SVGID_1_" gradientUnits="userSpaceOnUse" x1="256" x2="256" y1="239.363" y2="0"><stop offset="0" stop-color="#addcff"/><stop offset=".5028" stop-color="#eaf6ff"/><stop offset="1" stop-color="#eaf6ff"/></linearGradient><linearGradient id="SVGID_2_" gradientUnits="userSpaceOnUse" x1="256" x2="256" y1="512" y2="212"><stop offset="0" stop-color="#5558ff"/><stop offset="1" stop-color="#00c0ff"/></linearGradient><g id="Filter_1_"><g><path d="m256 239.363c-49.629 0-90-40.371-90-90 0-34.863 46.846-106.714 78.545-144.287 5.684-6.768 17.227-6.768 22.91 0 31.699 37.573 78.545 109.424 78.545 144.287 0 49.629-40.371 90-90 90z" fill="url(#SVGID_1_)"/></g><g><path d="m202.24 509.173c-3.926-2.827-6.24-7.354-6.24-12.173v-113.262l-129.961-115.532c-3.193-2.842-5.039-6.929-5.039-11.206v-30c0-8.291 6.709-15 15-15h360c8.291 0 15 6.709 15 15v30c0 4.277-1.846 8.364-5.039 11.206l-129.961 115.532v83.262c0 6.46-4.131 12.188-10.254 14.224l-90 30c-4.382 1.488-9.479.854-13.506-2.051z" fill="url(#SVGID_2_)"/></g></g></svg>