<svg id="Capa_1" enable-background="new 0 0 512 512" height="512" viewBox="0 0 512 512" width="512" xmlns="http://www.w3.org/2000/svg" xmlns:xlink="http://www.w3.org/1999/xlink"><linearGradient id="SVGID_1_" gradientUnits="userSpaceOnUse" x1="256" x2="256" y1="512" y2="0"><stop offset="0" stop-color="#ffe59a"/><stop offset="1" stop-color="#ffffd5"/></linearGradient><linearGradient id="SVGID_2_" gradientUnits="userSpaceOnUse" x1="256" x2="256" y1="451" y2="61"><stop offset="0" stop-color="#fd5900"/><stop offset="1" stop-color="#ffde00"/></linearGradient><linearGradient id="SVGID_3_" gradientUnits="userSpaceOnUse" x1="256" x2="256" y1="391" y2="121"><stop offset="0" stop-color="#ffedad"/><stop offset="1" stop-color="#ffffe5"/></linearGradient><g><g><g><path d="m118.114 372.675-53.835 53.835c-5.867-2.807-12.352-4.51-19.279-4.51-24.814 0-45 20.186-45 45s20.186 45 45 45 45-20.186 45-45c0-6.927-1.703-13.413-4.51-19.279l53.835-53.835c5.859-5.859 5.859-15.352 0-21.211s-15.351-5.86-21.211 0zm275.772-233.35 53.835-53.835c5.867 2.807 12.352 4.51 19.279 4.51 24.814 0 45-20.186 45-45s-20.186-45-45-45-45 20.186-45 45c0 6.927 1.703 13.413 4.51 19.279l-53.835 53.835c-5.859 5.859-5.859 15.352 0 21.211 5.859 5.86 15.351 5.86 21.211 0zm73.114 282.675c-6.927 0-13.412 1.703-19.279 4.51l-53.835-53.835c-5.859-5.859-15.352-5.859-21.211 0s-5.859 15.352 0 21.211l53.835 53.835c-2.807 5.866-4.51 12.352-4.51 19.279 0 24.814 20.186 45 45 45s45-20.186 45-45-20.186-45-45-45zm-381.51-357.721c2.807-5.866 4.51-12.352 4.51-19.279 0-24.814-20.186-45-45-45s-45 20.186-45 45 20.186 45 45 45c6.927 0 13.412-1.703 19.279-4.51l53.835 53.835c5.859 5.859 15.351 5.859 21.211 0 5.859-5.859 5.859-15.352 0-21.211z" fill="url(#SVGID_1_)"/></g></g><g><path d="m256 451c-107.52 0-195-87.48-195-195s87.48-195 195-195 195 87.48 195 195-87.48 195-195 195z" fill="url(#SVGID_2_)"/></g><g id="Money_1_"><path d="m271 242.214v-59.306c17.245 4.235 30 15.335 30 28.092 0 8.291 6.709 15 15 15s15-6.709 15-15c0-28.98-25.809-53.212-60-58.786v-16.214c0-8.291-6.709-15-15-15s-15 6.709-15 15v16.214c-34.191 5.574-60 29.806-60 58.786s25.809 53.212 60 58.786v59.306c-17.245-4.235-30-15.335-30-28.092 0-8.291-6.709-15-15-15s-15 6.709-15 15c0 28.98 25.809 53.212 60 58.786v16.214c0 8.291 6.709 15 15 15s15-6.709 15-15v-16.214c34.191-5.574 60-29.806 60-58.786s-25.809-53.212-60-58.786zm-60-31.214c0-12.757 12.755-23.857 30-28.092v56.184c-17.245-4.235-30-15.335-30-28.092zm60 118.092v-56.184c17.245 4.235 30 15.335 30 28.092s-12.755 23.857-30 28.092z" fill="url(#SVGID_3_)"/></g></g></svg>