<svg id="Capa_1" enable-background="new 0 0 512 512" height="512" viewBox="0 0 512 512" width="512" xmlns="http://www.w3.org/2000/svg" xmlns:xlink="http://www.w3.org/1999/xlink"><linearGradient id="lg1"><stop offset="0" stop-color="#fd3a84"/><stop offset="1" stop-color="#ffa68d"/></linearGradient><linearGradient id="SVGID_1_" gradientUnits="userSpaceOnUse" x1="135.5" x2="135.5" xlink:href="#lg1" y1="210.998" y2="31.017"/><linearGradient id="SVGID_2_" gradientUnits="userSpaceOnUse" x1="377" x2="377" xlink:href="#lg1" y1="210.998" y2="31.002"/><linearGradient id="SVGID_3_" gradientUnits="userSpaceOnUse" x1="256" x2="256" xlink:href="#lg1" y1="480.998" y2="240.998"/><linearGradient id="SVGID_4_" gradientUnits="userSpaceOnUse" x1="256" x2="256" y1="270.998" y2="180.998"><stop offset="0" stop-color="#ffc8d1"/><stop offset="1" stop-color="#fff6f7"/></linearGradient><linearGradient id="SVGID_5_" gradientUnits="userSpaceOnUse" x1="256" x2="256" y1="420.998" y2="300.998"><stop offset="0" stop-color="#ffc2cc"/><stop offset="1" stop-color="#fff2f4"/></linearGradient><g><g><path d="m74.985 210.998c-3.281 0-6.592-1.069-9.361-3.281-6.459-5.186-7.514-14.619-2.343-21.094l120-150c5.2-6.416 15.619-7.5 22.093-2.344 6.461 5.186 7.515 14.619 2.344 21.094l-121 150c-2.973 3.692-7.323 5.625-11.733 5.625z" fill="url(#SVGID_1_)"/></g><g><path d="m437.015 210.998c-4.409 0-8.76-1.934-11.733-5.625l-120-150c-5.171-6.475-4.116-15.908 2.343-21.094 6.49-5.171 15.894-4.102 21.094 2.344l120 150c5.171 6.475 4.116 15.908-2.344 21.094-2.769 2.212-6.079 3.281-9.36 3.281z" fill="url(#SVGID_2_)"/></g><g id="Shopping_basket_2_"><g><path d="m407 480.998h-302c-6.694 0-12.583-4.438-14.429-10.884l-60-210c-1.289-4.526-.381-9.39 2.446-13.154 2.842-3.75 7.28-5.962 11.982-5.962h422c4.702 0 9.141 2.212 11.982 5.962 2.827 3.765 3.735 8.628 2.446 13.154l-60 210c-1.844 6.446-7.733 10.884-14.427 10.884z" fill="url(#SVGID_3_)"/></g><g><g><path d="m497 180.998h-482c-8.291 0-15 6.709-15 15v60c0 8.291 6.709 15 15 15h482c8.291 0 15-6.709 15-15v-60c0-8.291-6.709-15-15-15z" fill="url(#SVGID_4_)"/></g></g><g><g><path d="m165 300.998c-8.291 0-15 6.709-15 15v90c0 8.291 6.709 15 15 15s15-6.709 15-15v-90c0-8.291-6.709-15-15-15zm91 0c-8.291 0-15 6.709-15 15v90c0 8.291 6.709 15 15 15s15-6.709 15-15v-90c0-8.291-6.709-15-15-15zm91 0c-8.291 0-15 6.709-15 15v90c0 8.291 6.709 15 15 15s15-6.709 15-15v-90c0-8.291-6.709-15-15-15z" fill="url(#SVGID_5_)"/></g></g></g></g></svg>