<svg id="Capa_1" enable-background="new 0 0 512.001 512.001" height="512" viewBox="0 0 512.001 512.001" width="512" xmlns="http://www.w3.org/2000/svg" xmlns:xlink="http://www.w3.org/1999/xlink"><linearGradient id="lg1"><stop offset="0" stop-color="#ffe59a"/><stop offset="1" stop-color="#ffffd5"/></linearGradient><linearGradient id="SVGID_1_" gradientUnits="userSpaceOnUse" x1="87.807" x2="87.807" xlink:href="#lg1" y1="512" y2="336.389"/><linearGradient id="SVGID_2_" gradientUnits="userSpaceOnUse" x1="414.502" x2="414.502" xlink:href="#lg1" y1="194.999" y2=".001"/><linearGradient id="SVGID_3_" gradientUnits="userSpaceOnUse" x1="246.308" x2="246.308" y1="447.608" y2="83.778"><stop offset="0" stop-color="#fd5900"/><stop offset="1" stop-color="#ffde00"/></linearGradient><g><path d="m64.393 336.389c-1.43 1.44-2.56 3.15-3.32 5.04l-60 150c-2.23 5.57-.92 11.93 3.32 16.18 4.25 4.25 10.62 5.54 16.18 3.32l150-60c1.89-.76 3.6-1.89 5.04-3.32l-33.61-72.61z" fill="url(#SVGID_1_)"/><path d="m507.613 115.608-79.39 79.39-70.22-39-41-72.22 79.39-79.39c5.86-5.85 15.36-5.85 21.22 0l90 90c5.85 5.861 5.85 15.361 0 21.22z" fill="url(#SVGID_2_)"/><path d="m428.223 194.999-252.61 252.609-111.22-111.219 252.61-252.611z" fill="url(#SVGID_3_)"/></g></svg>