<svg id="Capa_1" enable-background="new 0 0 512 512" height="512" viewBox="0 0 512 512" width="512" xmlns="http://www.w3.org/2000/svg" xmlns:xlink="http://www.w3.org/1999/xlink"><linearGradient id="SVGID_1_" gradientUnits="userSpaceOnUse" x1="256" x2="256" y1="512" y2="60"><stop offset="0" stop-color="#fd3a84"/><stop offset="1" stop-color="#ffa68d"/></linearGradient><linearGradient id="SVGID_2_" gradientUnits="userSpaceOnUse" x1="256" x2="256" y1="452" y2="0"><stop offset="0" stop-color="#ffc2cc"/><stop offset="1" stop-color="#fff2f4"/></linearGradient><g><g><g><g><path d="m436 512h-360c-8.284 0-15-6.716-15-15v-422c0-8.284 6.716-15 15-15h90c8.284 0 15 6.716 15 15v15h150v-15c0-8.284 6.716-15 15-15h90c8.284 0 15 6.716 15 15v422c0 8.284-6.716 15-15 15z" fill="url(#SVGID_1_)"/></g><g><g><path d="m166 120h180c8.284 0 15-6.716 15-15v-30c0-24.813-20.187-45-45-45h-17.57c-6.191-17.461-22.873-30-42.43-30s-36.239 12.539-42.43 30h-17.57c-24.813 0-45 20.187-45 45v30c0 8.284 6.716 15 15 15zm160.606 156.394c-5.857-5.858-15.355-5.858-21.213 0l-64.393 64.393-34.394-34.393c-5.857-5.858-15.355-5.858-21.213 0s-5.858 15.355 0 21.213l45 45c2.929 2.929 6.768 4.393 10.607 4.393s7.678-1.464 10.606-4.394l75-75c5.859-5.857 5.859-15.355 0-21.212zm-70.606-94.394c-74.439 0-135 60.561-135 135s60.561 135 135 135 135-60.561 135-135-60.561-135-135-135zm0 240c-57.897 0-105-47.103-105-105s47.103-105 105-105 105 47.103 105 105-47.103 105-105 105z" fill="url(#SVGID_2_)"/></g></g></g></g></g></svg>