<svg id="Capa_1" enable-background="new 0 0 512 512" height="512" viewBox="0 0 512 512" width="512" xmlns="http://www.w3.org/2000/svg" xmlns:xlink="http://www.w3.org/1999/xlink"><linearGradient id="SVGID_1_" gradientUnits="userSpaceOnUse" x1="256" x2="256" y1="512" y2="231.461"><stop offset="0" stop-color="#5558ff"/><stop offset="1" stop-color="#00c0ff"/></linearGradient><linearGradient id="SVGID_2_" gradientUnits="userSpaceOnUse" x1="375.983" x2="375.983" y1="231.863" y2="0"><stop offset="0" stop-color="#addcff"/><stop offset=".5028" stop-color="#eaf6ff"/><stop offset="1" stop-color="#eaf6ff"/></linearGradient><g id="Water_4_"><g><path d="m75.016 512c-5.828 0-11.268-3.39-13.711-8.906l-60-135c-2.754-6.226-.996-13.55 4.336-17.813 191.221-152.959 299.854-119.751 328.594-105.923 11.748 5.654 25.781 15.044 25.781 27.642 0 27.393-38.643 35.054-87.598 44.751-18.252 3.618-46.875 9.287-58.77 14.985 16.23 7.925 68.031 14.121 120.443 14.209l67.441-67.412c29.238-29.238 76.816-29.238 106.055 0 2.813 2.813 4.395 6.621 4.395 10.605 0 3.97-1.582 7.793-4.395 10.605l-114.198 114.215c-14.209 14.18-33.047 21.973-53.057 21.973-2.168 0-5.273-.132-9.229-.308-35.713-1.421-145.668-6.328-246.83 73.169-2.665 2.095-5.917 3.208-9.257 3.208z" fill="url(#SVGID_1_)"/></g><g><path d="m375.983 231.863c-49.629 0-90-40.371-90-90 0-40.459 60.117-114.932 78.545-136.787 5.684-6.768 17.227-6.768 22.91 0 18.428 21.855 78.545 96.328 78.545 136.787 0 49.629-40.371 90-90 90z" fill="url(#SVGID_2_)"/></g></g></svg>