<svg id="Capa_1" enable-background="new 0 0 512 512" height="512" viewBox="0 0 512 512" width="512" xmlns="http://www.w3.org/2000/svg" xmlns:xlink="http://www.w3.org/1999/xlink"><linearGradient id="lg1"><stop offset="0" stop-color="#00b59c"/><stop offset="1" stop-color="#9cffac"/></linearGradient><linearGradient id="SVGID_1_" gradientUnits="userSpaceOnUse" x1="255.983" x2="255.983" xlink:href="#lg1" y1="512" y2="231.461"/><linearGradient id="SVGID_2_" gradientUnits="userSpaceOnUse" x1="234.122" x2="234.122" xlink:href="#lg1" y1="162.88" y2=".04"/><linearGradient id="SVGID_3_" gradientUnits="userSpaceOnUse" x1="430.575" x2="430.575" xlink:href="#lg1" y1="162.85" y2="0"/><linearGradient id="SVGID_4_" gradientUnits="userSpaceOnUse" x1="332.349" x2="332.349" y1="209.916" y2="72.865"><stop offset="0" stop-color="#c3ffe8"/><stop offset=".9973" stop-color="#f0fff4"/></linearGradient><g><g id="Plant_2_"><g><path d="m75 512c-5.828 0-11.268-3.39-13.711-8.906l-60-135c-2.754-6.226-.996-13.55 4.336-17.813 191.191-152.959 299.853-119.751 328.593-105.923 11.748 5.655 25.782 15.044 25.782 27.642 0 27.393-38.643 35.054-87.598 44.751-18.252 3.618-46.875 9.287-58.77 14.985 16.23 7.925 68.031 14.121 120.443 14.209l67.441-67.412c29.238-29.238 76.816-29.238 106.055 0 2.813 2.813 4.395 6.621 4.395 10.605 0 3.97-1.582 7.793-4.395 10.605l-114.198 114.215c-14.209 14.18-33.047 21.973-53.057 21.973-2.168 0-5.273-.132-9.229-.308-35.684-1.421-145.668-6.328-246.83 73.169-2.666 2.095-5.917 3.208-9.257 3.208z" fill="url(#SVGID_1_)"/></g><g><path d="m240.562 162.879c-20.01 0-38.848-7.793-53.027-21.943-10.283-10.283-23.496-33.662-34.717-124.087-.586-4.585.996-9.185 4.277-12.451s7.764-4.731 12.48-4.277c91.494 11.455 114.609 25.298 124.043 34.717 29.238 29.253 29.238 76.846 0 106.084-14.179 14.164-33.017 21.957-53.056 21.957z" fill="url(#SVGID_2_)"/></g><g><path d="m424.136 162.85c-20.039 0-38.877-7.793-53.057-21.943-29.238-29.253-29.238-76.831 0-106.069 10.254-10.269 33.633-23.496 124.072-34.731 4.541-.542 9.17 1.011 12.451 4.277s4.863 7.866 4.277 12.466c-11.396 91.45-25.283 114.595-34.717 124.043-14.178 14.164-33.016 21.957-53.026 21.957z" fill="url(#SVGID_3_)"/></g></g><path d="m434.741 77.259c-5.859-5.859-15.352-5.859-21.211 0-31.016 30.958-61.719 57.486-81.233 86.45-19.537-28.81-50.645-55.935-81.13-86.42-5.859-5.859-15.352-5.859-21.211 0s-5.859 15.352 0 21.211c38.455 38.455 76.202 69.986 88.389 101.777.04.104.154.143.194.245 1.83 4.506 7.042 9.393 13.81 9.393 6.458 0 11.979-4.883 13.81-9.393.04-.103.154-.141.194-.245 12.443-32.496 50.326-63.744 88.389-101.807 5.859-5.859 5.859-15.351-.001-21.211z" fill="url(#SVGID_4_)"/></g></svg>