<svg id="Capa_1" enable-background="new 0 0 512 512" height="512" viewBox="0 0 512 512" width="512" xmlns="http://www.w3.org/2000/svg" xmlns:xlink="http://www.w3.org/1999/xlink"><linearGradient id="lg1"><stop offset="0" stop-color="#ffbef9"/><stop offset="1" stop-color="#fff1ff"/></linearGradient><linearGradient id="SVGID_1_" gradientUnits="userSpaceOnUse" x1="256" x2="256" xlink:href="#lg1" y1="211" y2="15"/><linearGradient id="SVGID_2_" gradientUnits="userSpaceOnUse" x1="256" x2="256" xlink:href="#lg1" y1="512" y2="301"/><linearGradient id="SVGID_3_" gradientUnits="userSpaceOnUse" x1="256" x2="256" y1="331" y2="0"><stop offset="0" stop-color="#a93aff"/><stop offset="1" stop-color="#ff81ff"/></linearGradient><g><g id="Pin_1_"><path d="m181 196c0 8.291 6.709 15 15 15h120c8.291 0 15-6.709 15-15v-181h-150z" fill="url(#SVGID_1_)"/><g><path d="m256 512c-8.291 0-15-6.709-15-15v-181c0-8.291 6.709-15 15-15s15 6.709 15 15v181c0 8.291-6.709 15-15 15z" fill="url(#SVGID_2_)"/></g><g><g><path d="m136 30h240c8.291 0 15-6.709 15-15s-6.709-15-15-15h-240c-8.291 0-15 6.709-15 15s6.709 15 15 15zm180 151h-120c-57.891 0-105 47.109-105 105v30c0 8.291 6.709 15 15 15h300c8.291 0 15-6.709 15-15v-30c0-57.891-47.109-105-105-105z" fill="url(#SVGID_3_)"/></g></g></g></g></svg>