<svg id="Capa_1" enable-background="new 0 0 512 512" height="512" viewBox="0 0 512 512" width="512" xmlns="http://www.w3.org/2000/svg" xmlns:xlink="http://www.w3.org/1999/xlink"><linearGradient id="SVGID_1_" gradientUnits="userSpaceOnUse" x1="256" x2="256" y1="512" y2="93.973"><stop offset="0" stop-color="#5558ff"/><stop offset="1" stop-color="#00c0ff"/></linearGradient><linearGradient id="SVGID_2_" gradientUnits="userSpaceOnUse" x1="256" x2="256" y1="120" y2="0"><stop offset="0" stop-color="#addcff"/><stop offset=".5028" stop-color="#eaf6ff"/><stop offset="1" stop-color="#eaf6ff"/></linearGradient><g><path d="m477.169 93.973h-442.338c-6.09 5.616-6.474 15.106-.857 21.196l162.026 175.692v206.139c0 5.532 3.045 10.615 7.922 13.225 4.866 2.604 10.784 2.331 15.398-.744l90-60c4.173-2.782 6.68-7.466 6.68-12.481v-146.139l162.026-175.692c5.617-6.09 5.233-15.58-.857-21.196z" fill="url(#SVGID_1_)"/><path d="m497 120h-482c-8.284 0-15-6.716-15-15v-90c0-8.284 6.716-15 15-15h482c8.284 0 15 6.716 15 15v90c0 8.284-6.716 15-15 15z" fill="url(#SVGID_2_)"/></g></svg>